{
.appVersion = "1352";
DisplayStrings = (
"/LJ JL"
);
copyright = "Copyright 2008 The Oh Ley Project Authors (https://github.com/googlefonts/ohley)";
customParameters = (
{
name = licenseURL;
value = "https://scripts.sil.org/OFL";
},
{
name = license;
value = "This Font Software is licensed under the SIL Open Font License, Version 1.1. This license is available with a FAQ at: https://scripts.sil.org/OFL";
},
{
name = vendorID;
value = GOOG;
},
{
name = "Disable Subroutines";
value = 1;
},
{
name = glyphOrder;
value = (
.notdef,
CR,
.null,
space
);
},
{
name = fsType;
value = (
);
},
{
name = "Use Typo Metrics";
value = 1;
}
);
date = "2021-11-09 23:28:12 +0000";
designer = "Robert E. Leuschke";
designerURL = www.typesetit.com;
disablesAutomaticAlignment = 1;
familyName = "Oh Ley";
featurePrefixes = (
{
code = "languagesystem DFLT dflt;\012\012languagesystem latn dflt;\012languagesystem latn AZE;\012languagesystem latn CRT;\012languagesystem latn KAZ;\012languagesystem latn TAT;\012languagesystem latn TRK;\012languagesystem latn ROM;\012languagesystem latn MOL;\012languagesystem latn CAT;\012";
name = Languagesystems;
}
);
features = (
{
automatic = 1;
code = "feature locl;\012feature sups;\012feature frac;\012feature ordn;\012feature lnum;\012feature onum;\012feature case;\012feature ornm;\012feature salt;\012feature ss01;\012";
name = aalt;
},
{
automatic = 1;

glyphs = (
{
glyphname = .notdef;
lastChange = "2021-09-23 22:10:10 +0000";
layers = (
{
layerId = "A20F32D1-A37C-460A-962C-541C205D5E83";
paths = (
{
closed = 1;
nodes = (
"436 0 LINE",
"444 9 LINE",
"444 573 LINE",
"436 582 LINE",
"49 582 LINE",
"40 573 LINE",
"40 9 LINE",
"49 0 LINE"
);
},
{
closed = 1;
nodes = (
"136 139 LINE",
"219 292 LINE",
"136 443 LINE",
"153 476 LINE",
"236 324 LINE",
"321 476 LINE",
"340 443 LINE",
"254 290 LINE",
"340 139 LINE",
"321 107 LINE",
"236 257 LINE",
"153 107 LINE"
);
},
{
closed = 1;
nodes = (
"56 566 LINE",
"430 566 LINE",
"430 16 LINE",
"56 16 LINE"
);
},
{
closed = 1;
nodes = (
"397 45 LINE",
"397 533 LINE",
"87 533 LINE",
"87 45 LINE"
);
}
);
width = 484;
}
);
note = .notdef;
},
{
glyphname = A;
layers = (
{
hints = (
{
horizontal = 1;
place = "{-17, 25}";
type = Stem;
},
{
horizontal = 1;
place = "{62, 18}";
type = Stem;
},
{
horizontal = 1;
place = "{148, 29}";
type = Stem;
},
{
horizontal = 1;
place = "{259, 23}";
type = Stem;
},
{
horizontal = 1;
place = "{597, -20}";
target = down;
type = TopGhost;
},
{
place = "{11, 32}";
type = Stem;
},
{
place = "{232, 22}";
type = Stem;
},
{
place = "{520, 122}";
type = Stem;
},
{
place = "{688, 15}";
type = Stem;
},
{
place = "{750, 31}";
type = Stem;
}
);
layerId = "A20F32D1-A37C-460A-962C-541C205D5E83";
paths = (
{
closed = 1;
nodes = (
"781 116 OFFCURVE",
"776 129 OFFCURVE",
"765 140 CURVE SMOOTH",
"754 150 OFFCURVE",
"741 156 OFFCURVE",
"726 156 CURVE SMOOTH",
"701 156 OFFCURVE",
"688 138 OFFCURVE",
"688 102 CURVE SMOOTH",
"688 68 OFFCURVE",
"692 51 OFFCURVE",
"701 51 CURVE SMOOTH",
"707 51 OFFCURVE",
"709 56 OFFCURVE",
"709 64 CURVE SMOOTH",
"709 69 OFFCURVE",
"708 77 OFFCURVE",
"706 86 CURVE SMOOTH",
"704 96 OFFCURVE",
"703 103 OFFCURVE",
"703 108 CURVE SMOOTH",
"703 127 OFFCURVE",
"709 137 OFFCURVE",
"720 137 CURVE SMOOTH",
"728 137 OFFCURVE",
"735 133 OFFCURVE",
"741 125 CURVE SMOOTH",
"748 117 OFFCURVE",
"751 108 OFFCURVE",
"751 100 CURVE SMOOTH",
"751 75 OFFCURVE",
"743 53 OFFCURVE",
"728 35 CURVE SMOOTH",
"713 17 OFFCURVE",
"693 8 OFFCURVE",
"669 8 CURVE SMOOTH",
"609 8 OFFCURVE",
"575 71 OFFCURVE",
"565 198 CURVE",
"584 199 OFFCURVE",
"602 206 OFFCURVE",
"618 218 CURVE SMOOTH",
"634 231 OFFCURVE",
"642 246 OFFCURVE",
"642 265 CURVE SMOOTH",
"642 273 OFFCURVE",
"639 281 OFFCURVE",
"632 287 CURVE SMOOTH",
"626 294 OFFCURVE",
"618 297 OFFCURVE",
"609 297 CURVE SMOOTH",
"602 297 OFFCURVE",
"599 293 OFFCURVE",
"599 286 CURVE SMOOTH",
"599 281 OFFCURVE",
"601 276 OFFCURVE",
"606 270 CURVE SMOOTH",
"611 263 OFFCURVE",
"613 260 OFFCURVE",
"613 258 CURVE SMOOTH",
"613 251 OFFCURVE",
"596 245 OFFCURVE",
"563 243 CURVE",
"563 335 OFFCURVE",
"575 417 OFFCURVE",
"598 487 CURVE",
"598 489 OFFCURVE",
"599 491 OFFCURVE",
"599 493 CURVE SMOOTH",
"599 501 OFFCURVE",
"595 505 OFFCURVE",
"588 505 CURVE SMOOTH",
"584 505 OFFCURVE",
"578 503 OFFCURVE",
"573 497 CURVE SMOOTH",
"537 457 OFFCURVE",
"519 383 OFFCURVE",
"519 275 CURVE SMOOTH",
"519 265 OFFCURVE",
"520 254 OFFCURVE",
"520 242 CURVE",
"499 245 OFFCURVE",
"468 251 OFFCURVE",
"427 261 CURVE",
"465 359 OFFCURVE",
"492 422 OFFCURVE",
"506 449 CURVE SMOOTH",
"551 534 OFFCURVE",
"596 577 OFFCURVE",
"641 577 CURVE SMOOTH",
"642 577 OFFCURVE",
"643 577 OFFCURVE",
"644 576 CURVE",
"646 576 OFFCURVE",
"647 576 OFFCURVE",
"648 576 CURVE SMOOTH",
"659 576 OFFCURVE",
"664 579 OFFCURVE",
"664 584 CURVE SMOOTH",
"664 593 OFFCURVE",
"658 597 OFFCURVE",
"644 597 CURVE SMOOTH",
"602 597 OFFCURVE",
"559 569 OFFCURVE",
"514 512 CURVE SMOOTH",
"478 467 OFFCURVE",
"450 419 OFFCURVE",
"431 368 CURVE SMOOTH",
"416 328 OFFCURVE",
"404 296 OFFCURVE",
"392 271 CURVE",
"360 278 OFFCURVE",
"332 282 OFFCURVE",
"309 282 CURVE SMOOTH",
"299 282 OFFCURVE",
"287 278 OFFCURVE",
"273 270 CURVE SMOOTH",
"259 262 OFFCURVE",
"252 254 OFFCURVE",
"252 244 CURVE SMOOTH",
"252 239 OFFCURVE",
"254 237 OFFCURVE",
"258 237 CURVE",
"258 237 OFFCURVE",
"263 240 OFFCURVE",
"273 248 CURVE SMOOTH",
"282 255 OFFCURVE",
"291 259 OFFCURVE",
"300 259 CURVE SMOOTH",
"323 259 OFFCURVE",
"349 254 OFFCURVE",
"380 243 CURVE",
"308 92 OFFCURVE",
"214 17 OFFCURVE",
"97 17 CURVE SMOOTH",
"61 17 OFFCURVE",
"43 28 OFFCURVE",
"43 50 CURVE SMOOTH",
"43 67 OFFCURVE",
"53 85 OFFCURVE",
"74 104 CURVE SMOOTH",
"91 119 OFFCURVE",
"108 130 OFFCURVE",
"127 137 CURVE SMOOTH",
"146 144 OFFCURVE",
"164 148 OFFCURVE",
"182 148 CURVE SMOOTH",
"215 148 OFFCURVE",
"231 143 OFFCURVE",
"231 134 CURVE SMOOTH",
"231 124 OFFCURVE",
"218 112 OFFCURVE",
"192 99 CURVE SMOOTH",
"165 87 OFFCURVE",
"146 80 OFFCURVE",
"135 80 CURVE SMOOTH",
"123 80 OFFCURVE",
"117 76 OFFCURVE",
"117 68 CURVE SMOOTH",
"117 64 OFFCURVE",
"120 62 OFFCURVE",
"125 62 CURVE SMOOTH",
"150 62 OFFCURVE",
"176 70 OFFCURVE",
"204 85 CURVE SMOOTH",
"237 102 OFFCURVE",
"253 122 OFFCURVE",
"253 144 CURVE SMOOTH",
"253 166 OFFCURVE",
"229 176 OFFCURVE",
"182 176 CURVE SMOOTH",
"166 176 OFFCURVE",
"148 173 OFFCURVE",
"129 167 CURVE SMOOTH",
"50 139 OFFCURVE",
"11 97 OFFCURVE",
"11 40 CURVE SMOOTH",
"11 10 OFFCURVE",
"37 -5 OFFCURVE",
"88 -5 CURVE SMOOTH",
"172 -5 OFFCURVE",
"239 16 OFFCURVE",
"291 57 CURVE SMOOTH",
"336 92 OFFCURVE",
"377 150 OFFCURVE",
"414 230 CURVE",
"465 211 OFFCURVE",
"502 200 OFFCURVE",
"524 197 CURVE",
"539 54 OFFCURVE",
"582 -17 OFFCURVE",
"653 -17 CURVE SMOOTH",
"685 -17 OFFCURVE",
"715 -5 OFFCURVE",
"741 19 CURVE SMOOTH",
"768 43 OFFCURVE",
"781 71 OFFCURVE",
"781 102 CURVE SMOOTH"
);
}
);
width = 778;
}
);
note = A;
unicode = 0041;
},
{
glyphname = AE;
layers = (
{
hints = (
{
horizontal = 1;
place = "{-52, 25}";
type = Stem;
},
{
horizontal = 1;
place = "{-5, 22}";
type = Stem;
},
{
horizontal = 1;
place = "{175, 24}";
type = Stem;
},
{
horizontal = 1;
place = "{259, 23}";
type = Stem;
},
{
horizontal = 1;
place = "{566, 24}";
type = Stem;
},
{
place = "{33, 33}";
type = Stem;
},
{
place = "{254, 21}";
type = Stem;
},
{
place = "{542, 46}";
type = Stem;
},
{
place = "{646, 49}";
type = Stem;
},
{
place = "{769, 38}";
type = Stem;
},
{
place = "{853, 18}";
type = Stem;
},
{
place = "{942, 31}";
type = Stem;
}
);
layerId = "A20F32D1-A37C-460A-962C-541C205D5E83";
paths = (
{
closed = 1;
nodes = (
"998 134 OFFCURVE",
"990 157 OFFCURVE",
"975 174 CURVE SMOOTH",
"959 191 OFFCURVE",
"937 199 OFFCURVE",
"908 199 CURVE SMOOTH",
"873 199 OFFCURVE",
"842 190 OFFCURVE",
"815 173 CURVE SMOOTH",
"785 152 OFFCURVE",
"770 125 OFFCURVE",
"770 92 CURVE SMOOTH",
"770 55 OFFCURVE",
"788 36 OFFCURVE",
"825 36 CURVE SMOOTH",
"837 36 OFFCURVE",
"848 40 OFFCURVE",
"857 47 CURVE SMOOTH",
"867 54 OFFCURVE",
"871 63 OFFCURVE",
"871 75 CURVE SMOOTH",
"871 94 OFFCURVE",
"866 104 OFFCURVE",
"855 104 CURVE SMOOTH",
"851 104 OFFCURVE",
"850 101 OFFCURVE",
"850 97 CURVE SMOOTH",
"850 95 OFFCURVE",
"850 93 OFFCURVE",
"851 90 CURVE",
"853 87 OFFCURVE",
"853 85 OFFCURVE",
"853 83 CURVE SMOOTH",
"853 68 OFFCURVE",
"844 60 OFFCURVE",
"825 60 CURVE SMOOTH",
"813 60 OFFCURVE",
"807 69 OFFCURVE",
"807 86 CURVE SMOOTH",
"807 112 OFFCURVE",
"818 134 OFFCURVE",
"839 151 CURVE SMOOTH",
"858 167 OFFCURVE",
"882 175 OFFCURVE",
"908 175 CURVE SMOOTH",
"919 175 OFFCURVE",
"930 166 OFFCURVE",
"941 150 CURVE SMOOTH",
"953 133 OFFCURVE",
"959 119 OFFCURVE",
"959 108 CURVE SMOOTH",
"959 65 OFFCURVE",
"939 32 OFFCURVE",
"900 6 CURVE SMOOTH",
"866 -16 OFFCURVE",
"826 -27 OFFCURVE",
"781 -27 CURVE SMOOTH",
"681 -27 OFFCURVE",
"631 16 OFFCURVE",
"631 101 CURVE SMOOTH",
"631 173 OFFCURVE",
"654 235 OFFCURVE",
"701 284 CURVE",
"729 263 OFFCURVE",
"760 253 OFFCURVE",
"793 253 CURVE SMOOTH",
"870 253 OFFCURVE",
"908 271 OFFCURVE",
"908 306 CURVE SMOOTH",
"908 323 OFFCURVE",
"900 336 OFFCURVE",
"883 346 CURVE SMOOTH",
"867 355 OFFCURVE",
"850 360 OFFCURVE",
"833 360 CURVE SMOOTH",
"787 360 OFFCURVE",
"745 348 OFFCURVE",
"707 325 CURVE",
"699 345 OFFCURVE",
"695 368 OFFCURVE",
"695 395 CURVE SMOOTH",
"695 436 OFFCURVE",
"713 475 OFFCURVE",
"748 511 CURVE SMOOTH",
"783 548 OFFCURVE",
"822 566 OFFCURVE",
"863 566 CURVE SMOOTH",
"882 566 OFFCURVE",
"900 560 OFFCURVE",
"915 549 CURVE SMOOTH",
"933 536 OFFCURVE",
"942 521 OFFCURVE",
"942 502 CURVE SMOOTH",
"942 489 OFFCURVE",
"935 477 OFFCURVE",
"921 465 CURVE SMOOTH",
"907 453 OFFCURVE",
"900 446 OFFCURVE",
"900 442 CURVE SMOOTH",
"900 437 OFFCURVE",
"903 434 OFFCURVE",
"908 434 CURVE SMOOTH",
"923 434 OFFCURVE",
"937 441 OFFCURVE",
"951 457 CURVE SMOOTH",
"966 472 OFFCURVE",
"973 487 OFFCURVE",
"973 501 CURVE SMOOTH",
"973 527 OFFCURVE",
"960 549 OFFCURVE",
"935 566 CURVE SMOOTH",
"912 582 OFFCURVE",
"887 590 OFFCURVE",
"860 590 CURVE SMOOTH",
"803 590 OFFCURVE",
"754 571 OFFCURVE",
"712 534 CURVE SMOOTH",
"668 495 OFFCURVE",
"646 447 OFFCURVE",
"646 391 CURVE SMOOTH",
"646 359 OFFCURVE",
"657 331 OFFCURVE",
"678 306 CURVE",
"636 273 OFFCURVE",
"609 230 OFFCURVE",
"595 176 CURVE",
"591 207 OFFCURVE",
"589 239 OFFCURVE",
"589 274 CURVE SMOOTH",
"589 359 OFFCURVE",
"599 431 OFFCURVE",
"621 487 CURVE SMOOTH",
"622 490 OFFCURVE",
"622 492 OFFCURVE",
"622 493 CURVE SMOOTH",
"622 501 OFFCURVE",
"618 505 OFFCURVE",
"610 505 CURVE SMOOTH",
"606 505 OFFCURVE",
"601 502 OFFCURVE",
"597 497 CURVE SMOOTH",
"560 454 OFFCURVE",
"542 380 OFFCURVE",
"542 275 CURVE SMOOTH",
"542 265 OFFCURVE",
"542 254 OFFCURVE",
"543 242 CURVE",
"522 244 OFFCURVE",
"491 250 OFFCURVE",
"449 261 CURVE",
"459 286 OFFCURVE",
"466 304 OFFCURVE",
"471 318 CURVE SMOOTH",
"491 376 OFFCURVE",
"515 429 OFFCURVE",
"543 474 CURVE SMOOTH",
"584 543 OFFCURVE",
"625 577 OFFCURVE",
"664 577 CURVE SMOOTH",
"665 577 OFFCURVE",
"668 577 OFFCURVE",
"671 576 CURVE",
"679 576 LINE SMOOTH",
"685 576 OFFCURVE",
"688 579 OFFCURVE",
"688 584 CURVE SMOOTH",
"688 593 OFFCURVE",
"681 597 OFFCURVE",
"667 597 CURVE SMOOTH",
"626 597 OFFCURVE",
"582 568 OFFCURVE",
"536 511 CURVE SMOOTH",
"509 477 OFFCURVE",
"485 438 OFFCURVE",
"466 394 CURVE SMOOTH",
"449 353 OFFCURVE",
"433 312 OFFCURVE",
"416 271 CURVE",
"383 278 OFFCURVE",
"355 282 OFFCURVE",
"331 282 CURVE SMOOTH",
"322 282 OFFCURVE",
"310 278 OFFCURVE",
"296 270 CURVE SMOOTH",
"282 262 OFFCURVE",
"275 254 OFFCURVE",
"275 244 CURVE SMOOTH",
"275 239 OFFCURVE",
"277 237 OFFCURVE",
"281 237 CURVE",
"281 237 OFFCURVE",
"287 240 OFFCURVE",
"296 248 CURVE SMOOTH",
"306 255 OFFCURVE",
"315 259 OFFCURVE",
"323 259 CURVE SMOOTH",
"345 259 OFFCURVE",
"372 254 OFFCURVE",
"403 243 CURVE",
"331 92 OFFCURVE",
"236 17 OFFCURVE",
"120 17 CURVE SMOOTH",
"84 17 OFFCURVE",
"67 28 OFFCURVE",
"67 50 CURVE SMOOTH",
"67 76 OFFCURVE",
"84 99 OFFCURVE",
"119 120 CURVE SMOOTH",
"150 138 OFFCURVE",
"179 148 OFFCURVE",
"206 148 CURVE SMOOTH",
"239 148 OFFCURVE",
"255 143 OFFCURVE",
"255 134 CURVE SMOOTH",
"255 124 OFFCURVE",
"242 113 OFFCURVE",
"215 100 CURVE",
"201 95 OFFCURVE",
"187 90 OFFCURVE",
"173 86 CURVE SMOOTH",
"151 78 OFFCURVE",
"140 72 OFFCURVE",
"140 68 CURVE SMOOTH",
"140 64 OFFCURVE",
"143 62 OFFCURVE",
"149 62 CURVE SMOOTH",
"165 62 OFFCURVE",
"181 65 OFFCURVE",
"198 71 CURVE SMOOTH",
"216 77 OFFCURVE",
"232 86 OFFCURVE",
"248 99 CURVE SMOOTH",
"266 114 OFFCURVE",
"275 130 OFFCURVE",
"275 144 CURVE SMOOTH",
"275 166 OFFCURVE",
"252 176 OFFCURVE",
"206 176 CURVE SMOOTH",
"190 176 OFFCURVE",
"172 173 OFFCURVE",
"151 167 CURVE SMOOTH",
"73 140 OFFCURVE",
"33 97 OFFCURVE",
"33 40 CURVE SMOOTH",
"33 10 OFFCURVE",
"59 -5 OFFCURVE",
"112 -5 CURVE SMOOTH",
"195 -5 OFFCURVE",
"262 16 OFFCURVE",
"314 57 CURVE SMOOTH",
"360 92 OFFCURVE",
"401 150 OFFCURVE",
"437 230 CURVE",
"488 211 OFFCURVE",
"525 200 OFFCURVE",
"547 197 CURVE",
"551 162 OFFCURVE",
"559 129 OFFCURVE",
"572 99 CURVE SMOOTH",
"579 82 OFFCURVE",
"584 70 OFFCURVE",
"588 63 CURVE",
"593 47 OFFCURVE",
"596 37 OFFCURVE",
"598 31 CURVE SMOOTH",
"623 -25 OFFCURVE",
"684 -52 OFFCURVE",
"781 -52 CURVE SMOOTH",
"832 -52 OFFCURVE",
"878 -39 OFFCURVE",
"922 -13 CURVE SMOOTH",
"973 19 OFFCURVE",
"998 58 OFFCURVE",
"998 105 CURVE SMOOTH"
);
},
{
closed = 1;
nodes = (
"846 303 OFFCURVE",
"839 292 OFFCURVE",
"826 284 CURVE SMOOTH",
"812 276 OFFCURVE",
"798 272 OFFCURVE",
"782 272 CURVE SMOOTH",
"755 272 OFFCURVE",
"734 282 OFFCURVE",
"720 302 CURVE",
"751 328 OFFCURVE",
"785 341 OFFCURVE",
"824 341 CURVE SMOOTH",
"839 341 OFFCURVE",
"846 333 OFFCURVE",
"846 318 CURVE SMOOTH"
);
}
);
width = 1007;
}
);
note = AE;
unicode = 00C6;
},
{
glyphname = B;
layers = (
{
hints = (
{
horizontal = 1;
place = "{-83, 27}";
type = Stem;
},
{
horizontal = 1;
place = "{139, 23}";
type = Stem;
},
{
horizontal = 1;
place = "{301, 26}";
type = Stem;
},
{
horizontal = 1;
place = "{597, 30}";
type = Stem;
},
{
place = "{10, 25}";
type = Stem;
},
{
place = "{130, 47}";
type = Stem;
},
{
place = "{220, 43}";
type = Stem;
},
{
place = "{452, 39}";
type = Stem;
},
{
place = "{597, 26}";
type = Stem;
},
{
place = "{639, 45}";
type = Stem;
}
);
layerId = "A20F32D1-A37C-460A-962C-541C205D5E83";
paths = (
{
closed = 1;
nodes = (
"684 258 OFFCURVE",
"664 289 OFFCURVE",
"623 310 CURVE SMOOTH",
"592 326 OFFCURVE",
"553 334 OFFCURVE",
"507 334 CURVE SMOOTH",
"487 334 LINE",
"578 404 OFFCURVE",
"623 466 OFFCURVE",
"623 521 CURVE SMOOTH",
"623 592 OFFCURVE",
"562 627 OFFCURVE",
"441 627 CURVE SMOOTH",
"392 627 OFFCURVE",
"342 621 OFFCURVE",
"292 608 CURVE SMOOTH",
"223 592 OFFCURVE",
"163 566 OFFCURVE",
"112 532 CURVE SMOOTH",
"44 487 OFFCURVE",
"10 436 OFFCURVE",
"10 378 CURVE SMOOTH",
"10 326 OFFCURVE",
"35 301 OFFCURVE",
"85 301 CURVE SMOOTH",
"111 301 OFFCURVE",
"139 311 OFFCURVE",
"169 332 CURVE SMOOTH",
"202 354 OFFCURVE",
"218 378 OFFCURVE",
"218 403 CURVE SMOOTH",
"218 412 OFFCURVE",
"214 416 OFFCURVE",
"205 416 CURVE SMOOTH",
"200 416 OFFCURVE",
"196 413 OFFCURVE",
"193 406 CURVE SMOOTH",
"186 392 OFFCURVE",
"182 383 OFFCURVE",
"179 379 CURVE SMOOTH",
"155 344 OFFCURVE",
"124 327 OFFCURVE",
"86 327 CURVE SMOOTH",
"52 327 OFFCURVE",
"35 344 OFFCURVE",
"35 378 CURVE SMOOTH",
"35 421 OFFCURVE",
"75 465 OFFCURVE",
"154 508 CURVE SMOOTH",
"265 568 OFFCURVE",
"371 598 OFFCURVE",
"472 598 CURVE SMOOTH",
"555 598 OFFCURVE",
"597 572 OFFCURVE",
"597 521 CURVE SMOOTH",
"597 487 OFFCURVE",
"569 448 OFFCURVE",
"515 404 CURVE SMOOTH",
"478 374 OFFCURVE",
"435 347 OFFCURVE",
"387 322 CURVE SMOOTH",
"372 314 OFFCURVE",
"350 304 OFFCURVE",
"320 292 CURVE",
"317 290 OFFCURVE",
"316 289 OFFCURVE",
"316 286 CURVE SMOOTH",
"316 281 OFFCURVE",
"320 275 OFFCURVE",
"329 268 CURVE",
"328 259 OFFCURVE",
"332 254 OFFCURVE",
"341 254 CURVE SMOOTH",
"344 254 OFFCURVE",
"347 255 OFFCURVE",
"349 257 CURVE",
"356 256 OFFCURVE",
"369 261 OFFCURVE",
"387 271 CURVE SMOOTH",
"406 281 OFFCURVE",
"418 287 OFFCURVE",
"422 290 CURVE",
"438 296 OFFCURVE",
"471 299 OFFCURVE",
"520 299 CURVE SMOOTH",
"554 299 OFFCURVE",
"582 291 OFFCURVE",
"603 275 CURVE SMOOTH",
"627 256 OFFCURVE",
"639 231 OFFCURVE",
"639 198 CURVE SMOOTH",
"639 145 OFFCURVE",
"611 100 OFFCURVE",
"555 64 CURVE SMOOTH",
"527 45 OFFCURVE",
"485 30 OFFCURVE",
"430 16 CURVE SMOOTH",
"383 4 OFFCURVE",
"338 -4 OFFCURVE",
"296 -7 CURVE",
"282 23 OFFCURVE",
"272 62 OFFCURVE",
"266 112 CURVE",
"303 130 OFFCURVE",
"342 139 OFFCURVE",
"383 139 CURVE SMOOTH",
"429 139 OFFCURVE",
"452 131 OFFCURVE",
"452 114 CURVE SMOOTH",
"452 104 OFFCURVE",
"437 94 OFFCURVE",
"408 85 CURVE",
"398 85 OFFCURVE",
"387 84 OFFCURVE",
"375 81 CURVE SMOOTH",
"360 77 OFFCURVE",
"352 72 OFFCURVE",
"352 66 CURVE SMOOTH",
"352 58 OFFCURVE",
"368 54 OFFCURVE",
"401 54 CURVE SMOOTH",
"422 54 OFFCURVE",
"441 57 OFFCURVE",
"457 64 CURVE SMOOTH",
"480 73 OFFCURVE",
"491 87 OFFCURVE",
"491 105 CURVE SMOOTH",
"491 125 OFFCURVE",
"479 139 OFFCURVE",
"455 149 CURVE SMOOTH",
"437 157 OFFCURVE",
"416 161 OFFCURVE",
"393 161 CURVE SMOOTH",
"355 161 OFFCURVE",
"311 151 OFFCURVE",
"263 131 CURVE",
"262 144 OFFCURVE",
"261 156 OFFCURVE",
"261 167 CURVE SMOOTH",
"261 227 OFFCURVE",
"274 311 OFFCURVE",
"299 418 CURVE SMOOTH",
"316 492 OFFCURVE",
"325 528 OFFCURVE",
"325 526 CURVE SMOOTH",
"325 529 OFFCURVE",
"323 530 OFFCURVE",
"320 530 CURVE SMOOTH",
"313 530 OFFCURVE",
"303 526 OFFCURVE",
"291 519 CURVE SMOOTH",
"278 511 OFFCURVE",
"270 504 OFFCURVE",
"267 498 CURVE",
"262 482 OFFCURVE",
"258 468 OFFCURVE",
"255 455 CURVE SMOOTH",
"232 360 OFFCURVE",
"220 260 OFFCURVE",
"220 157 CURVE SMOOTH",
"220 144 OFFCURVE",
"221 129 OFFCURVE",
"223 113 CURVE",
"193 98 OFFCURVE",
"172 85 OFFCURVE",
"160 75 CURVE SMOOTH",
"140 57 OFFCURVE",
"130 36 OFFCURVE",
"130 12 CURVE SMOOTH",
"130 -26 OFFCURVE",
"161 -45 OFFCURVE",
"224 -45 CURVE SMOOTH",
"240 -45 OFFCURVE",
"259 -44 OFFCURVE",
"280 -42 CURVE",
"300 -69 OFFCURVE",
"324 -83 OFFCURVE",
"352 -83 CURVE SMOOTH",
"367 -83 OFFCURVE",
"374 -78 OFFCURVE",
"374 -69 CURVE SMOOTH",
"374 -60 OFFCURVE",
"370 -56 OFFCURVE",
"362 -56 CURVE SMOOTH",
"341 -56 OFFCURVE",
"325 -49 OFFCURVE",
"314 -36 CURVE",
"419 -17 OFFCURVE",
"498 8 OFFCURVE",
"552 40 CURVE SMOOTH",
"640 91 OFFCURVE",
"684 151 OFFCURVE",
"684 216 CURVE SMOOTH"
);
},
{
closed = 1;
nodes = (
"204 -10 OFFCURVE",
"176 1 OFFCURVE",
"176 23 CURVE SMOOTH",
"176 41 OFFCURVE",
"194 62 OFFCURVE",
"228 88 CURVE",
"235 51 OFFCURVE",
"246 18 OFFCURVE",
"260 -10 CURVE"
);
}
);
width = 684;
}
);
note = B;
unicode = 0042;
},
{
glyphname = C;
layers = (
{
hints = (
{
horizontal = 1;
place = "{-8, 33}";
type = Stem;
},
{
horizontal = 1;
place = "{311, 30}";
type = Stem;
},
{
horizontal = 1;
place = "{537, 15}";
type = Stem;
},
{
place = "{17, 64}";
type = Stem;
},
{
place = "{198, 37}";
type = Stem;
},
{
place = "{399, 48}";
type = Stem;
}
);
layerId = "A20F32D1-A37C-460A-962C-541C205D5E83";
paths = (
{
closed = 1;
nodes = (
"509 147 OFFCURVE",
"509 149 OFFCURVE",
"507 149 CURVE SMOOTH",
"501 149 OFFCURVE",
"493 142 OFFCURVE",
"483 128 CURVE SMOOTH",
"470 109 OFFCURVE",
"462 97 OFFCURVE",
"457 93 CURVE",
"414 48 OFFCURVE",
"356 25 OFFCURVE",
"284 25 CURVE SMOOTH",
"221 25 OFFCURVE",
"172 43 OFFCURVE",
"135 79 CURVE SMOOTH",
"99 115 OFFCURVE",
"81 165 OFFCURVE",
"81 228 CURVE SMOOTH",
"81 288 OFFCURVE",
"94 344 OFFCURVE",
"120 393 CURVE SMOOTH",
"147 447 OFFCURVE",
"187 488 OFFCURVE",
"239 515 CURVE SMOOTH",
"267 530 OFFCURVE",
"293 536 OFFCURVE",
"318 536 CURVE SMOOTH",
"341 536 OFFCURVE",
"360 530 OFFCURVE",
"376 518 CURVE SMOOTH",
"392 505 OFFCURVE",
"400 488 OFFCURVE",
"400 465 CURVE SMOOTH",
"400 437 OFFCURVE",
"386 409 OFFCURVE",
"357 382 CURVE SMOOTH",
"329 355 OFFCURVE",
"301 341 OFFCURVE",
"273 341 CURVE SMOOTH",
"248 341 OFFCURVE",
"235 352 OFFCURVE",
"235 373 CURVE SMOOTH",
"235 395 OFFCURVE",
"249 413 OFFCURVE",
"277 428 CURVE SMOOTH",
"288 434 OFFCURVE",
"293 439 OFFCURVE",
"293 443 CURVE SMOOTH",
"293 449 OFFCURVE",
"290 452 OFFCURVE",
"284 452 CURVE SMOOTH",
"280 452 OFFCURVE",
"277 451 OFFCURVE",
"275 449 CURVE",
"255 440 OFFCURVE",
"239 427 OFFCURVE",
"224 410 CURVE SMOOTH",
"207 391 OFFCURVE",
"198 372 OFFCURVE",
"198 354 CURVE SMOOTH",
"198 326 OFFCURVE",
"215 311 OFFCURVE",
"249 311 CURVE SMOOTH",
"286 311 OFFCURVE",
"328 327 OFFCURVE",
"374 358 CURVE SMOOTH",
"423 392 OFFCURVE",
"447 427 OFFCURVE",
"447 461 CURVE SMOOTH",
"447 467 OFFCURVE",
"447 474 OFFCURVE",
"445 480 CURVE SMOOTH",
"429 528 OFFCURVE",
"385 552 OFFCURVE",
"315 552 CURVE SMOOTH",
"275 552 OFFCURVE",
"237 541 OFFCURVE",
"203 521 CURVE SMOOTH",
"79 449 OFFCURVE",
"17 349 OFFCURVE",
"17 220 CURVE SMOOTH",
"17 155 OFFCURVE",
"41 101 OFFCURVE",
"88 57 CURVE SMOOTH",
"135 14 OFFCURVE",
"191 -8 OFFCURVE",
"257 -8 CURVE SMOOTH",
"280 -8 OFFCURVE",
"305 -5 OFFCURVE",
"330 1 CURVE SMOOTH",
"374 11 OFFCURVE",
"407 24 OFFCURVE",
"428 39 CURVE SMOOTH",
"450 53 OFFCURVE",
"473 78 OFFCURVE",
"497 114 CURVE SMOOTH",
"505 127 OFFCURVE",
"509 137 OFFCURVE",
"509 143 CURVE SMOOTH"
);
}
);
width = 483;
}
);
note = C;
unicode = 0043;
},
{
glyphname = D;
layers = (
{
hints = (
{
horizontal = 1;
place = "{-57, 26}";
type = Stem;
},
{
horizontal = 1;
place = "{82, 31}";
type = Stem;
},
{
horizontal = 1;
place = "{176, 29}";
type = Stem;
},
{
horizontal = 1;
place = "{280, 32}";
type = Stem;
},
{
horizontal = 1;
place = "{483, 51}";
type = Stem;
},
{
horizontal = 1;
place = "{558, -20}";
target = down;
type = TopGhost;
},
{
place = "{8, 25}";
type = Stem;
},
{
place = "{124, 42}";
type = Stem;
},
{
place = "{403, 24}";
type = Stem;
},
{
place = "{622, 24}";
type = Stem;
}
);
layerId = "A20F32D1-A37C-460A-962C-541C205D5E83";
paths = (
{
closed = 1;
nodes = (
"646 422 OFFCURVE",
"625 466 OFFCURVE",
"581 497 CURVE SMOOTH",
"547 521 OFFCURVE",
"489 534 OFFCURVE",
"406 534 CURVE SMOOTH",
"384 534 OFFCURVE",
"361 532 OFFCURVE",
"337 529 CURVE",
"337 531 OFFCURVE",
"338 533 OFFCURVE",
"338 534 CURVE SMOOTH",
"338 540 OFFCURVE",
"333 545 OFFCURVE",
"324 550 CURVE SMOOTH",
"315 556 OFFCURVE",
"307 558 OFFCURVE",
"300 558 CURVE SMOOTH",
"292 558 OFFCURVE",
"282 546 OFFCURVE",
"271 521 CURVE",
"203 509 OFFCURVE",
"147 489 OFFCURVE",
"104 464 CURVE SMOOTH",
"40 428 OFFCURVE",
"8 383 OFFCURVE",
"8 329 CURVE SMOOTH",
"8 319 OFFCURVE",
"11 309 OFFCURVE",
"16 299 CURVE SMOOTH",
"23 287 OFFCURVE",
"31 281 OFFCURVE",
"40 281 CURVE SMOOTH",
"73 281 OFFCURVE",
"101 295 OFFCURVE",
"126 321 CURVE SMOOTH",
"134 329 OFFCURVE",
"153 356 OFFCURVE",
"185 402 CURVE SMOOTH",
"189 407 OFFCURVE",
"191 412 OFFCURVE",
"191 417 CURVE SMOOTH",
"191 423 OFFCURVE",
"189 427 OFFCURVE",
"185 427 CURVE",
"130 350 OFFCURVE",
"83 312 OFFCURVE",
"44 312 CURVE SMOOTH",
"37 312 OFFCURVE",
"33 317 OFFCURVE",
"33 325 CURVE SMOOTH",
"33 364 OFFCURVE",
"61 397 OFFCURVE",
"117 425 CURVE SMOOTH",
"154 444 OFFCURVE",
"198 458 OFFCURVE",
"249 468 CURVE",
"220 380 OFFCURVE",
"203 274 OFFCURVE",
"199 149 CURVE",
"149 117 OFFCURVE",
"124 83 OFFCURVE",
"124 46 CURVE SMOOTH",
"124 20 OFFCURVE",
"136 -3 OFFCURVE",
"159 -25 CURVE SMOOTH",
"182 -46 OFFCURVE",
"206 -57 OFFCURVE",
"232 -57 CURVE SMOOTH",
"290 -57 OFFCURVE",
"353 -34 OFFCURVE",
"420 14 CURVE SMOOTH",
"479 55 OFFCURVE",
"529 107 OFFCURVE",
"572 168 CURVE SMOOTH",
"621 239 OFFCURVE",
"646 305 OFFCURVE",
"646 367 CURVE SMOOTH"
);
},
{
closed = 1;
nodes = (
"622 269 OFFCURVE",
"577 187 OFFCURVE",
"486 100 CURVE SMOOTH",
"395 13 OFFCURVE",
"311 -31 OFFCURVE",
"232 -31 CURVE SMOOTH",
"214 -31 OFFCURVE",
"199 -25 OFFCURVE",
"186 -14 CURVE SMOOTH",
"173 -2 OFFCURVE",
"167 13 OFFCURVE",
"167 31 CURVE SMOOTH",
"167 54 OFFCURVE",
"177 77 OFFCURVE",
"199 100 CURVE",
"200 42 OFFCURVE",
"202 5 OFFCURVE",
"207 -13 CURVE SMOOTH",
"209 -20 OFFCURVE",
"214 -24 OFFCURVE",
"220 -24 CURVE SMOOTH",
"230 -24 OFFCURVE",
"235 -20 OFFCURVE",
"234 -12 CURVE",
"232 -8 LINE",
"228 42 OFFCURVE",
"226 72 OFFCURVE",
"226 81 CURVE SMOOTH",
"226 95 OFFCURVE",
"227 110 OFFCURVE",
"228 125 CURVE",
"275 159 OFFCURVE",
"318 176 OFFCURVE",
"356 176 CURVE SMOOTH",
"387 176 OFFCURVE",
"402 164 OFFCURVE",
"402 140 CURVE SMOOTH",
"402 122 OFFCURVE",
"395 113 OFFCURVE",
"381 113 CURVE SMOOTH",
"377 113 OFFCURVE",
"372 114 OFFCURVE",
"365 118 CURVE SMOOTH",
"358 122 OFFCURVE",
"353 123 OFFCURVE",
"348 123 CURVE SMOOTH",
"341 123 OFFCURVE",
"338 120 OFFCURVE",
"338 114 CURVE SMOOTH",
"338 111 OFFCURVE",
"340 108 OFFCURVE",
"344 104 CURVE",
"355 89 OFFCURVE",
"366 82 OFFCURVE",
"377 82 CURVE SMOOTH",
"390 82 OFFCURVE",
"401 92 OFFCURVE",
"412 112 CURVE SMOOTH",
"422 129 OFFCURVE",
"427 145 OFFCURVE",
"427 159 CURVE SMOOTH",
"427 190 OFFCURVE",
"407 205 OFFCURVE",
"369 205 CURVE SMOOTH",
"332 205 OFFCURVE",
"286 192 OFFCURVE",
"230 166 CURVE",
"242 288 OFFCURVE",
"267 392 OFFCURVE",
"307 478 CURVE",
"337 481 OFFCURVE",
"366 482 OFFCURVE",
"395 482 CURVE SMOOTH",
"546 482 OFFCURVE",
"622 437 OFFCURVE",
"622 347 CURVE SMOOTH"
);
}
);
width = 665;
}
);
note = D;
unicode = 0044;
},
{
glyphname = Eth;
layers = (
{
hints = (
{
horizontal = 1;
place = "{-57, 26}";
type = Stem;
},
{
horizontal = 1;
place = "{82, 31}";
type = Stem;
},
{
horizontal = 1;
place = "{176, 29}";
type = Stem;
},
{
horizontal = 1;
place = "{294, 24}";
type = Stem;
},
{
horizontal = 1;
place = "{483, 51}";
type = Stem;
},
{
place = "{8, 25}";
type = Stem;
},
{
place = "{124, 42}";
type = Stem;
},
{
place = "{403, 24}";
type = Stem;
},
{
place = "{622, 24}";
type = Stem;
}
);
layerId = "A20F32D1-A37C-460A-962C-541C205D5E83";
paths = (
{
closed = 1;
nodes = (
"646 422 OFFCURVE",
"625 466 OFFCURVE",
"581 497 CURVE SMOOTH",
"547 521 OFFCURVE",
"489 534 OFFCURVE",
"406 534 CURVE SMOOTH",
"384 534 OFFCURVE",
"361 532 OFFCURVE",
"337 529 CURVE",
"337 531 OFFCURVE",
"338 533 OFFCURVE",
"338 534 CURVE SMOOTH",
"338 540 OFFCURVE",
"333 546 OFFCURVE",
"324 551 CURVE SMOOTH",
"315 556 OFFCURVE",
"307 558 OFFCURVE",
"300 558 CURVE SMOOTH",
"292 558 OFFCURVE",
"282 546 OFFCURVE",
"271 521 CURVE",
"203 509 OFFCURVE",
"147 489 OFFCURVE",
"104 464 CURVE SMOOTH",
"40 428 OFFCURVE",
"8 383 OFFCURVE",
"8 329 CURVE SMOOTH",
"8 319 OFFCURVE",
"11 309 OFFCURVE",
"16 299 CURVE SMOOTH",
"23 287 OFFCURVE",
"31 281 OFFCURVE",
"40 281 CURVE SMOOTH",
"67 281 OFFCURVE",
"92 290 OFFCURVE",
"113 310 CURVE SMOOTH",
"128 322 OFFCURVE",
"144 343 OFFCURVE",
"164 372 CURVE SMOOTH",
"182 398 OFFCURVE",
"191 413 OFFCURVE",
"191 417 CURVE SMOOTH",
"191 423 OFFCURVE",
"189 427 OFFCURVE",
"185 427 CURVE",
"130 350 OFFCURVE",
"83 312 OFFCURVE",
"44 312 CURVE SMOOTH",
"37 312 OFFCURVE",
"33 317 OFFCURVE",
"33 325 CURVE SMOOTH",
"33 364 OFFCURVE",
"61 397 OFFCURVE",
"117 425 CURVE SMOOTH",
"154 444 OFFCURVE",
"198 458 OFFCURVE",
"249 468 CURVE",
"233 418 OFFCURVE",
"220 359 OFFCURVE",
"211 290 CURVE",
"184 280 OFFCURVE",
"156 266 OFFCURVE",
"126 250 CURVE SMOOTH",
"84 227 OFFCURVE",
"63 210 OFFCURVE",
"63 197 CURVE SMOOTH",
"63 182 OFFCURVE",
"70 175 OFFCURVE",
"85 175 CURVE SMOOTH",
"89 175 OFFCURVE",
"93 176 OFFCURVE",
"98 180 CURVE SMOOTH",
"143 214 OFFCURVE",
"179 238 OFFCURVE",
"206 250 CURVE",
"203 216 OFFCURVE",
"200 182 OFFCURVE",
"199 149 CURVE",
"149 117 OFFCURVE",
"124 83 OFFCURVE",
"124 46 CURVE SMOOTH",
"124 20 OFFCURVE",
"136 -3 OFFCURVE",
"159 -25 CURVE SMOOTH",
"182 -46 OFFCURVE",
"206 -57 OFFCURVE",
"232 -57 CURVE SMOOTH",
"290 -57 OFFCURVE",
"353 -34 OFFCURVE",
"420 14 CURVE SMOOTH",
"479 55 OFFCURVE",
"529 107 OFFCURVE",
"572 168 CURVE SMOOTH",
"621 239 OFFCURVE",
"646 305 OFFCURVE",
"646 367 CURVE SMOOTH"
);
},
{
closed = 1;
nodes = (
"622 269 OFFCURVE",
"577 187 OFFCURVE",
"486 100 CURVE SMOOTH",
"395 13 OFFCURVE",
"311 -31 OFFCURVE",
"232 -31 CURVE SMOOTH",
"214 -31 OFFCURVE",
"199 -25 OFFCURVE",
"186 -14 CURVE SMOOTH",
"173 -2 OFFCURVE",
"167 13 OFFCURVE",
"167 31 CURVE SMOOTH",
"167 54 OFFCURVE",
"177 77 OFFCURVE",
"199 100 CURVE",
"200 42 OFFCURVE",
"202 4 OFFCURVE",
"207 -13 CURVE SMOOTH",
"209 -20 OFFCURVE",
"214 -24 OFFCURVE",
"220 -24 CURVE SMOOTH",
"230 -24 OFFCURVE",
"235 -20 OFFCURVE",
"234 -12 CURVE",
"232 -8 LINE",
"228 42 OFFCURVE",
"226 72 OFFCURVE",
"226 81 CURVE SMOOTH",
"226 95 OFFCURVE",
"227 110 OFFCURVE",
"228 125 CURVE",
"275 159 OFFCURVE",
"318 176 OFFCURVE",
"356 176 CURVE SMOOTH",
"387 176 OFFCURVE",
"402 164 OFFCURVE",
"402 140 CURVE SMOOTH",
"402 122 OFFCURVE",
"395 113 OFFCURVE",
"381 113 CURVE SMOOTH",
"377 113 OFFCURVE",
"372 114 OFFCURVE",
"365 118 CURVE SMOOTH",
"358 122 OFFCURVE",
"353 123 OFFCURVE",
"348 123 CURVE SMOOTH",
"341 123 OFFCURVE",
"338 120 OFFCURVE",
"338 114 CURVE SMOOTH",
"338 111 OFFCURVE",
"340 108 OFFCURVE",
"344 104 CURVE",
"355 89 OFFCURVE",
"366 82 OFFCURVE",
"377 82 CURVE SMOOTH",
"390 82 OFFCURVE",
"401 92 OFFCURVE",
"412 112 CURVE SMOOTH",
"422 129 OFFCURVE",
"427 145 OFFCURVE",
"427 159 CURVE SMOOTH",
"427 190 OFFCURVE",
"407 205 OFFCURVE",
"369 205 CURVE SMOOTH",
"332 205 OFFCURVE",
"286 192 OFFCURVE",
"230 166 CURVE",
"233 199 OFFCURVE",
"238 233 OFFCURVE",
"244 268 CURVE",
"288 285 OFFCURVE",
"331 293 OFFCURVE",
"371 293 CURVE SMOOTH",
"387 293 OFFCURVE",
"395 299 OFFCURVE",
"395 309 CURVE SMOOTH",
"395 315 OFFCURVE",
"389 318 OFFCURVE",
"377 318 CURVE SMOOTH",
"336 318 OFFCURVE",
"293 312 OFFCURVE",
"250 301 CURVE",
"265 370 OFFCURVE",
"284 429 OFFCURVE",
"307 478 CURVE",
"337 481 OFFCURVE",
"366 482 OFFCURVE",
"395 482 CURVE SMOOTH",
"546 482 OFFCURVE",
"622 437 OFFCURVE",
"622 347 CURVE SMOOTH"
);
}
);
width = 665;
}
);
note = Eth;
unicode = 00D0;
},
{
glyphname = E;
layers = (
{
hints = (
{
horizontal = 1;
place = "{-52, 25}";
type = Stem;
},
{
horizontal = 1;
place = "{36, 24}";
type = Stem;
},
{
horizontal = 1;
place = "{175, 24}";
type = Stem;
},
{
horizontal = 1;
place = "{253, 19}";
type = Stem;
},
{
horizontal = 1;
place = "{341, 19}";
type = Stem;
},
{
horizontal = 1;
place = "{566, 24}";
type = Stem;
},
{
place = "{12, 46}";
type = Stem;
},
{
place = "{73, 50}";
type = Stem;
},
{
place = "{197, 37}";
type = Stem;
},
{
place = "{274, 61}";
type = Stem;
},
{
place = "{369, 31}";
type = Stem;
}
);
layerId = "A20F32D1-A37C-460A-962C-541C205D5E83";
paths = (
{
closed = 1;
nodes = (
"424 168 OFFCURVE",
"395 199 OFFCURVE",
"336 199 CURVE SMOOTH",
"300 199 OFFCURVE",
"269 190 OFFCURVE",
"243 173 CURVE SMOOTH",
"212 152 OFFCURVE",
"197 125 OFFCURVE",
"197 92 CURVE SMOOTH",
"197 55 OFFCURVE",
"216 36 OFFCURVE",
"253 36 CURVE SMOOTH",
"264 36 OFFCURVE",
"275 40 OFFCURVE",
"284 47 CURVE SMOOTH",
"294 54 OFFCURVE",
"299 63 OFFCURVE",
"299 75 CURVE SMOOTH",
"299 94 OFFCURVE",
"293 104 OFFCURVE",
"282 104 CURVE SMOOTH",
"279 104 OFFCURVE",
"277 101 OFFCURVE",
"277 97 CURVE SMOOTH",
"277 95 OFFCURVE",
"278 93 OFFCURVE",
"279 90 CURVE SMOOTH",
"280 87 OFFCURVE",
"281 85 OFFCURVE",
"281 83 CURVE SMOOTH",
"281 77 OFFCURVE",
"278 72 OFFCURVE",
"272 67 CURVE SMOOTH",
"266 63 OFFCURVE",
"260 60 OFFCURVE",
"253 60 CURVE SMOOTH",
"240 60 OFFCURVE",
"234 69 OFFCURVE",
"234 86 CURVE SMOOTH",
"234 112 OFFCURVE",
"245 133 OFFCURVE",
"266 150 CURVE SMOOTH",
"286 166 OFFCURVE",
"309 175 OFFCURVE",
"336 175 CURVE SMOOTH",
"346 175 OFFCURVE",
"357 166 OFFCURVE",
"369 150 CURVE SMOOTH",
"380 133 OFFCURVE",
"386 119 OFFCURVE",
"386 108 CURVE SMOOTH",
"386 65 OFFCURVE",
"367 32 OFFCURVE",
"328 6 CURVE SMOOTH",
"293 -16 OFFCURVE",
"254 -27 OFFCURVE",
"209 -27 CURVE SMOOTH",
"108 -27 OFFCURVE",
"58 16 OFFCURVE",
"58 101 CURVE SMOOTH",
"58 173 OFFCURVE",
"81 235 OFFCURVE",
"129 284 CURVE",
"156 263 OFFCURVE",
"187 253 OFFCURVE",
"220 253 CURVE SMOOTH",
"296 253 OFFCURVE",
"335 271 OFFCURVE",
"335 306 CURVE SMOOTH",
"335 322 OFFCURVE",
"326 336 OFFCURVE",
"309 347 CURVE SMOOTH",
"294 356 OFFCURVE",
"278 360 OFFCURVE",
"260 360 CURVE SMOOTH",
"215 360 OFFCURVE",
"173 348 OFFCURVE",
"134 325 CURVE",
"126 345 OFFCURVE",
"122 368 OFFCURVE",
"122 395 CURVE SMOOTH",
"122 436 OFFCURVE",
"140 475 OFFCURVE",
"176 511 CURVE SMOOTH",
"211 548 OFFCURVE",
"249 566 OFFCURVE",
"291 566 CURVE SMOOTH",
"310 566 OFFCURVE",
"328 560 OFFCURVE",
"344 548 CURVE SMOOTH",
"361 536 OFFCURVE",
"369 521 OFFCURVE",
"369 502 CURVE SMOOTH",
"369 489 OFFCURVE",
"362 477 OFFCURVE",
"348 465 CURVE SMOOTH",
"335 453 OFFCURVE",
"328 446 OFFCURVE",
"328 442 CURVE SMOOTH",
"328 437 OFFCURVE",
"330 434 OFFCURVE",
"335 434 CURVE SMOOTH",
"349 434 OFFCURVE",
"364 441 OFFCURVE",
"378 457 CURVE SMOOTH",
"392 472 OFFCURVE",
"400 487 OFFCURVE",
"400 501 CURVE SMOOTH",
"400 527 OFFCURVE",
"387 548 OFFCURVE",
"362 566 CURVE SMOOTH",
"339 583 OFFCURVE",
"314 590 OFFCURVE",
"287 590 CURVE SMOOTH",
"230 590 OFFCURVE",
"181 571 OFFCURVE",
"139 534 CURVE SMOOTH",
"95 495 OFFCURVE",
"73 447 OFFCURVE",
"73 391 CURVE SMOOTH",
"73 359 OFFCURVE",
"84 331 OFFCURVE",
"105 306 CURVE",
"43 256 OFFCURVE",
"12 187 OFFCURVE",
"12 97 CURVE SMOOTH",
"12 -2 OFFCURVE",
"77 -52 OFFCURVE",
"209 -52 CURVE SMOOTH",
"260 -52 OFFCURVE",
"307 -39 OFFCURVE",
"349 -13 CURVE SMOOTH",
"399 18 OFFCURVE",
"424 58 OFFCURVE",
"424 105 CURVE SMOOTH"
);
},
{
closed = 1;
nodes = (
"274 303 OFFCURVE",
"267 292 OFFCURVE",
"253 284 CURVE SMOOTH",
"240 276 OFFCURVE",
"225 272 OFFCURVE",
"210 272 CURVE SMOOTH",
"183 272 OFFCURVE",
"162 282 OFFCURVE",
"147 302 CURVE",
"178 328 OFFCURVE",
"213 341 OFFCURVE",
"252 341 CURVE SMOOTH",
"266 341 OFFCURVE",
"274 333 OFFCURVE",
"274 318 CURVE SMOOTH"
);
}
);
width = 423;
}
);
note = E;
unicode = 0045;
},
{
glyphname = F;
layers = (
{
hints = (
{
horizontal = 1;
place = "{-86, 23}";
type = Stem;
},
{
horizontal = 1;
place = "{32, 31}";
type = Stem;
},
{
horizontal = 1;
place = "{240, 41}";
type = Stem;
},
{
horizontal = 1;
place = "{451, 25}";
type = Stem;
},
{
horizontal = 1;
place = "{541, 38}";
type = Stem;
},
{
place = "{75, 19}";
type = Stem;
},
{
place = "{196, 26}";
type = Stem;
},
{
place = "{328, 18}";
type = Stem;
},
{
place = "{349, 312}";
type = Stem;
},
{
place = "{705, 21}";
type = Stem;
}
);
layerId = "A20F32D1-A37C-460A-962C-541C205D5E83";
paths = (
{
closed = 1;
nodes = (
"726 532 OFFCURVE",
"722 542 OFFCURVE",
"715 550 CURVE SMOOTH",
"707 559 OFFCURVE",
"698 563 OFFCURVE",
"689 563 CURVE SMOOTH",
"682 563 OFFCURVE",
"679 560 OFFCURVE",
"679 554 CURVE SMOOTH",
"679 547 OFFCURVE",
"683 543 OFFCURVE",
"690 545 CURVE",
"701 541 OFFCURVE",
"706 535 OFFCURVE",
"706 526 CURVE SMOOTH",
"706 509 OFFCURVE",
"694 495 OFFCURVE",
"670 486 CURVE SMOOTH",
"652 479 OFFCURVE",
"634 476 OFFCURVE",
"615 476 CURVE SMOOTH",
"590 476 OFFCURVE",
"564 480 OFFCURVE",
"538 490 CURVE SMOOTH",
"506 501 OFFCURVE",
"482 511 OFFCURVE",
"465 517 CURVE",
"460 539 OFFCURVE",
"456 552 OFFCURVE",
"452 557 CURVE SMOOTH",
"445 566 OFFCURVE",
"433 570 OFFCURVE",
"415 570 CURVE SMOOTH",
"396 570 OFFCURVE",
"387 566 OFFCURVE",
"387 559 CURVE SMOOTH",
"387 556 OFFCURVE",
"389 551 OFFCURVE",
"392 543 CURVE",
"322 567 OFFCURVE",
"262 579 OFFCURVE",
"211 579 CURVE SMOOTH",
"169 579 OFFCURVE",
"129 572 OFFCURVE",
"92 560 CURVE SMOOTH",
"65 551 OFFCURVE",
"43 529 OFFCURVE",
"24 494 CURVE SMOOTH",
"7 462 OFFCURVE",
"-1 431 OFFCURVE",
"-1 401 CURVE SMOOTH",
"-1 393 OFFCURVE",
"2 389 OFFCURVE",
"7 389 CURVE SMOOTH",
"14 389 OFFCURVE",
"18 393 OFFCURVE",
"20 402 CURVE SMOOTH",
"26 429 OFFCURVE",
"30 445 OFFCURVE",
"32 448 CURVE",
"61 510 OFFCURVE",
"131 541 OFFCURVE",
"243 541 CURVE SMOOTH",
"291 541 OFFCURVE",
"344 532 OFFCURVE",
"403 515 CURVE",
"425 451 OFFCURVE",
"437 379 OFFCURVE",
"439 301 CURVE",
"404 304 OFFCURVE",
"377 306 OFFCURVE",
"356 306 CURVE SMOOTH",
"351 306 OFFCURVE",
"348 301 OFFCURVE",
"348 290 CURVE SMOOTH",
"348 283 OFFCURVE",
"350 274 OFFCURVE",
"354 265 CURVE SMOOTH",
"358 253 OFFCURVE",
"362 247 OFFCURVE",
"367 247 CURVE SMOOTH",
"394 247 OFFCURVE",
"419 247 OFFCURVE",
"440 248 CURVE",
"440 185 OFFCURVE",
"432 133 OFFCURVE",
"419 92 CURVE SMOOTH",
"403 40 OFFCURVE",
"375 -4 OFFCURVE",
"335 -40 CURVE SMOOTH",
"317 -55 OFFCURVE",
"297 -63 OFFCURVE",
"273 -63 CURVE SMOOTH",
"231 -63 OFFCURVE",
"190 -44 OFFCURVE",
"152 -5 CURVE SMOOTH",
"113 33 OFFCURVE",
"94 73 OFFCURVE",
"94 114 CURVE SMOOTH",
"94 144 OFFCURVE",
"106 168 OFFCURVE",
"129 188 CURVE SMOOTH",
"169 223 OFFCURVE",
"206 240 OFFCURVE",
"242 240 CURVE SMOOTH",
"266 240 OFFCURVE",
"286 233 OFFCURVE",
"303 217 CURVE SMOOTH",
"319 202 OFFCURVE",
"328 183 OFFCURVE",
"328 159 CURVE SMOOTH",
"328 138 OFFCURVE",
"318 116 OFFCURVE",
"298 95 CURVE SMOOTH",
"279 73 OFFCURVE",
"259 62 OFFCURVE",
"238 62 CURVE SMOOTH",
"227 62 OFFCURVE",
"222 76 OFFCURVE",
"222 104 CURVE SMOOTH",
"222 124 OFFCURVE",
"228 139 OFFCURVE",
"239 149 CURVE SMOOTH",
"251 160 OFFCURVE",
"257 166 OFFCURVE",
"257 166 CURVE",
"257 169 OFFCURVE",
"254 170 OFFCURVE",
"250 170 CURVE SMOOTH",
"247 170 OFFCURVE",
"243 169 OFFCURVE",
"238 166 CURVE SMOOTH",
"210 147 OFFCURVE",
"196 123 OFFCURVE",
"196 95 CURVE SMOOTH",
"196 78 OFFCURVE",
"200 63 OFFCURVE",
"208 50 CURVE SMOOTH",
"216 38 OFFCURVE",
"229 32 OFFCURVE",
"245 32 CURVE SMOOTH",
"269 32 OFFCURVE",
"292 47 OFFCURVE",
"313 77 CURVE SMOOTH",
"335 108 OFFCURVE",
"346 140 OFFCURVE",
"346 174 CURVE SMOOTH",
"346 245 OFFCURVE",
"319 281 OFFCURVE",
"266 281 CURVE SMOOTH",
"222 281 OFFCURVE",
"170 254 OFFCURVE",
"111 200 CURVE SMOOTH",
"87 178 OFFCURVE",
"75 149 OFFCURVE",
"75 111 CURVE SMOOTH",
"75 57 OFFCURVE",
"93 12 OFFCURVE",
"128 -26 CURVE SMOOTH",
"164 -65 OFFCURVE",
"208 -86 OFFCURVE",
"261 -86 CURVE SMOOTH",
"296 -86 OFFCURVE",
"325 -74 OFFCURVE",
"350 -52 CURVE SMOOTH",
"430 18 OFFCURVE",
"476 119 OFFCURVE",
"487 252 CURVE",
"515 254 OFFCURVE",
"547 260 OFFCURVE",
"583 268 CURVE SMOOTH",
"635 280 OFFCURVE",
"661 292 OFFCURVE",
"661 303 CURVE SMOOTH",
"661 312 OFFCURVE",
"657 316 OFFCURVE",
"650 316 CURVE SMOOTH",
"648 316 OFFCURVE",
"646 316 OFFCURVE",
"644 315 CURVE SMOOTH",
"610 301 OFFCURVE",
"573 293 OFFCURVE",
"535 293 CURVE SMOOTH",
"521 293 OFFCURVE",
"506 294 OFFCURVE",
"490 296 CURVE",
"491 363 OFFCURVE",
"485 428 OFFCURVE",
"471 493 CURVE",
"545 465 OFFCURVE",
"596 451 OFFCURVE",
"626 451 CURVE SMOOTH",
"650 451 OFFCURVE",
"671 457 OFFCURVE",
"691 468 CURVE SMOOTH",
"715 481 OFFCURVE",
"726 499 OFFCURVE",
"726 522 CURVE SMOOTH"
);
}
);
width = 634;
}
);
note = F;
unicode = 0046;
},
{
glyphname = G;
layers = (
{
hints = (
{
horizontal = 1;
place = "{-137, 45}";
type = Stem;
},
{
horizontal = 1;
place = "{-4, 14}";
type = Stem;
},
{
horizontal = 1;
place = "{93, 22}";
type = Stem;
},
{
horizontal = 1;
place = "{149, 23}";
type = Stem;
},
{
horizontal = 1;
place = "{373, 16}";
type = Stem;
},
{
horizontal = 1;
place = "{548, -20}";
target = down;
type = TopGhost;
},
{
horizontal = 1;
place = "{570, 21}";
target = up;
type = BottomGhost;
},
{
place = "{0, 20}";
type = Stem;
},
{
place = "{56, 41}";
type = Stem;
},
{
place = "{101, 23}";
type = Stem;
},
{
place = "{140, 35}";
type = Stem;
},
{
place = "{287, 19}";
type = Stem;
},
{
place = "{505, 31}";
type = Stem;
}
);
layerId = "A20F32D1-A37C-460A-962C-541C205D5E83";
paths = (
{
closed = 1;
nodes = (
"536 519 OFFCURVE",
"491 548 OFFCURVE",
"403 548 CURVE SMOOTH",
"350 548 OFFCURVE",
"298 539 OFFCURVE",
"249 520 CURVE SMOOTH",
"196 500 OFFCURVE",
"154 471 OFFCURVE",
"122 433 CURVE",
"54 460 OFFCURVE",
"20 490 OFFCURVE",
"20 523 CURVE SMOOTH",
"20 555 OFFCURVE",
"42 571 OFFCURVE",
"86 571 CURVE SMOOTH",
"122 571 OFFCURVE",
"140 549 OFFCURVE",
"140 507 CURVE SMOOTH",
"140 494 OFFCURVE",
"143 487 OFFCURVE",
"149 487 CURVE SMOOTH",
"167 487 OFFCURVE",
"176 495 OFFCURVE",
"176 511 CURVE SMOOTH",
"176 532 OFFCURVE",
"165 551 OFFCURVE",
"144 567 CURVE SMOOTH",
"123 583 OFFCURVE",
"102 591 OFFCURVE",
"80 591 CURVE SMOOTH",
"58 591 OFFCURVE",
"39 585 OFFCURVE",
"23 572 CURVE SMOOTH",
"8 560 OFFCURVE",
"0 543 OFFCURVE",
"0 521 CURVE SMOOTH",
"0 477 OFFCURVE",
"35 440 OFFCURVE",
"106 412 CURVE",
"73 365 OFFCURVE",
"56 321 OFFCURVE",
"56 280 CURVE SMOOTH",
"56 260 OFFCURVE",
"60 240 OFFCURVE",
"70 223 CURVE SMOOTH",
"99 173 OFFCURVE",
"146 149 OFFCURVE",
"210 149 CURVE SMOOTH",
"299 149 OFFCURVE",
"364 178 OFFCURVE",
"405 236 CURVE",
"399 200 OFFCURVE",
"396 158 OFFCURVE",
"396 112 CURVE SMOOTH",
"396 47 OFFCURVE",
"393 4 OFFCURVE",
"387 -18 CURVE SMOOTH",
"374 -67 OFFCURVE",
"345 -92 OFFCURVE",
"300 -92 CURVE SMOOTH",
"264 -92 OFFCURVE",
"227 -78 OFFCURVE",
"187 -50 CURVE SMOOTH",
"145 -19 OFFCURVE",
"123 11 OFFCURVE",
"123 43 CURVE SMOOTH",
"123 76 OFFCURVE",
"146 93 OFFCURVE",
"193 93 CURVE SMOOTH",
"219 93 OFFCURVE",
"238 90 OFFCURVE",
"250 85 CURVE",
"275 70 OFFCURVE",
"287 53 OFFCURVE",
"287 33 CURVE SMOOTH",
"287 18 OFFCURVE",
"280 11 OFFCURVE",
"266 11 CURVE SMOOTH",
"257 11 OFFCURVE",
"249 15 OFFCURVE",
"242 25 CURVE SMOOTH",
"235 34 OFFCURVE",
"230 39 OFFCURVE",
"228 39 CURVE SMOOTH",
"221 39 OFFCURVE",
"218 36 OFFCURVE",
"218 30 CURVE SMOOTH",
"218 20 OFFCURVE",
"225 12 OFFCURVE",
"238 5 CURVE SMOOTH",
"249 0 OFFCURVE",
"259 -4 OFFCURVE",
"269 -4 CURVE SMOOTH",
"294 -4 OFFCURVE",
"306 6 OFFCURVE",
"306 25 CURVE SMOOTH",
"306 31 OFFCURVE",
"304 39 OFFCURVE",
"299 50 CURVE SMOOTH",
"278 93 OFFCURVE",
"245 114 OFFCURVE",
"200 114 CURVE SMOOTH",
"174 114 OFFCURVE",
"152 109 OFFCURVE",
"134 99 CURVE SMOOTH",
"112 86 OFFCURVE",
"101 68 OFFCURVE",
"101 44 CURVE SMOOTH",
"101 33 OFFCURVE",
"103 22 OFFCURVE",
"108 10 CURVE SMOOTH",
"127 -38 OFFCURVE",
"157 -73 OFFCURVE",
"198 -97 CURVE SMOOTH",
"244 -124 OFFCURVE",
"281 -137 OFFCURVE",
"311 -137 CURVE SMOOTH",
"356 -137 OFFCURVE",
"387 -108 OFFCURVE",
"406 -50 CURVE SMOOTH",
"413 -27 OFFCURVE",
"420 20 OFFCURVE",
"428 92 CURVE SMOOTH",
"438 171 OFFCURVE",
"448 226 OFFCURVE",
"454 257 CURVE SMOOTH",
"461 293 OFFCURVE",
"464 317 OFFCURVE",
"464 329 CURVE SMOOTH",
"464 336 OFFCURVE",
"460 339 OFFCURVE",
"452 339 CURVE SMOOTH",
"439 339 OFFCURVE",
"429 334 OFFCURVE",
"425 323 CURVE SMOOTH",
"418 307 OFFCURVE",
"413 295 OFFCURVE",
"409 287 CURVE SMOOTH",
"389 253 OFFCURVE",
"364 226 OFFCURVE",
"333 205 CURVE SMOOTH",
"300 183 OFFCURVE",
"264 172 OFFCURVE",
"228 172 CURVE SMOOTH",
"171 172 OFFCURVE",
"130 190 OFFCURVE",
"106 228 CURVE SMOOTH",
"100 237 OFFCURVE",
"97 253 OFFCURVE",
"97 275 CURVE SMOOTH",
"97 320 OFFCURVE",
"110 362 OFFCURVE",
"137 402 CURVE",
"199 383 OFFCURVE",
"269 373 OFFCURVE",
"347 373 CURVE SMOOTH",
"473 373 OFFCURVE",
"536 402 OFFCURVE",
"536 462 CURVE SMOOTH"
);
},
{
closed = 1;
nodes = (
"505 439 OFFCURVE",
"480 417 OFFCURVE",
"429 403 CURVE SMOOTH",
"395 393 OFFCURVE",
"357 389 OFFCURVE",
"317 389 CURVE SMOOTH",
"259 389 OFFCURVE",
"201 398 OFFCURVE",
"143 417 CURVE",
"172 453 OFFCURVE",
"210 481 OFFCURVE",
"258 500 CURVE SMOOTH",
"303 519 OFFCURVE",
"350 528 OFFCURVE",
"399 528 CURVE SMOOTH",
"425 528 OFFCURVE",
"447 524 OFFCURVE",
"466 517 CURVE SMOOTH",
"492 506 OFFCURVE",
"505 490 OFFCURVE",
"505 468 CURVE SMOOTH"
);
}
);
width = 507;
}
);
note = G;
unicode = 0047;
},
{
glyphname = H;
layers = (
{
hints = (
{
horizontal = 1;
place = "{-113, 25}";
type = Stem;
},
{
horizontal = 1;
place = "{-62, 26}";
type = Stem;
},
{
horizontal = 1;
place = "{207, 41}";
type = Stem;
},
{
horizontal = 1;
place = "{293, 26}";
type = Stem;
},
{
place = "{2, 41}";
type = Stem;
},
{
place = "{92, 26}";
type = Stem;
},
{
place = "{181, 26}";
type = Stem;
},
{
place = "{271, 27}";
type = Stem;
},
{
place = "{597, 24}";
type = Stem;
},
{
place = "{725, 38}";
type = Stem;
}
);
layerId = "A20F32D1-A37C-460A-962C-541C205D5E83";
paths = (
{
closed = 1;
nodes = (
"763 264 OFFCURVE",
"759 278 OFFCURVE",
"751 297 CURVE SMOOTH",
"743 315 OFFCURVE",
"734 324 OFFCURVE",
"725 324 CURVE SMOOTH",
"717 324 OFFCURVE",
"713 320 OFFCURVE",
"713 311 CURVE SMOOTH",
"713 309 OFFCURVE",
"715 305 OFFCURVE",
"719 299 CURVE SMOOTH",
"723 292 OFFCURVE",
"725 286 OFFCURVE",
"725 280 CURVE SMOOTH",
"725 258 OFFCURVE",
"701 248 OFFCURVE",
"653 248 CURVE SMOOTH",
"642 248 LINE",
"652 291 OFFCURVE",
"668 351 OFFCURVE",
"689 428 CURVE SMOOTH",
"719 531 OFFCURVE",
"734 592 OFFCURVE",
"734 608 CURVE SMOOTH",
"734 620 OFFCURVE",
"721 626 OFFCURVE",
"697 626 CURVE SMOOTH",
"684 626 OFFCURVE",
"676 622 OFFCURVE",
"673 616 CURVE",
"671 604 OFFCURVE",
"669 595 OFFCURVE",
"669 589 CURVE",
"653 521 LINE SMOOTH",
"628 408 OFFCURVE",
"612 317 OFFCURVE",
"604 249 CURVE",
"569 253 OFFCURVE",
"517 263 OFFCURVE",
"449 279 CURVE SMOOTH",
"380 295 OFFCURVE",
"328 305 OFFCURVE",
"293 309 CURVE",
"295 432 OFFCURVE",
"311 512 OFFCURVE",
"341 549 CURVE SMOOTH",
"347 557 OFFCURVE",
"355 564 OFFCURVE",
"365 570 CURVE SMOOTH",
"373 574 OFFCURVE",
"377 578 OFFCURVE",
"377 583 CURVE SMOOTH",
"377 597 OFFCURVE",
"367 604 OFFCURVE",
"347 604 CURVE SMOOTH",
"336 604 OFFCURVE",
"325 599 OFFCURVE",
"314 590 CURVE SMOOTH",
"272 556 OFFCURVE",
"250 490 OFFCURVE",
"250 392 CURVE SMOOTH",
"250 368 OFFCURVE",
"251 341 OFFCURVE",
"254 311 CURVE",
"217 311 OFFCURVE",
"192 308 OFFCURVE",
"178 300 CURVE",
"168 312 OFFCURVE",
"156 319 OFFCURVE",
"142 319 CURVE SMOOTH",
"96 319 OFFCURVE",
"60 290 OFFCURVE",
"33 231 CURVE SMOOTH",
"12 185 OFFCURVE",
"2 136 OFFCURVE",
"2 85 CURVE SMOOTH",
"2 32 OFFCURVE",
"12 -11 OFFCURVE",
"32 -47 CURVE SMOOTH",
"57 -90 OFFCURVE",
"94 -113 OFFCURVE",
"142 -113 CURVE SMOOTH",
"204 -113 OFFCURVE",
"247 -87 OFFCURVE",
"272 -37 CURVE SMOOTH",
"289 0 OFFCURVE",
"298 52 OFFCURVE",
"298 121 CURVE SMOOTH",
"298 137 OFFCURVE",
"297 162 OFFCURVE",
"295 195 CURVE SMOOTH",
"293 228 OFFCURVE",
"293 252 OFFCURVE",
"293 268 CURVE",
"314 268 LINE SMOOTH",
"360 268 OFFCURVE",
"409 264 OFFCURVE",
"459 253 CURVE SMOOTH",
"522 239 OFFCURVE",
"569 227 OFFCURVE",
"601 220 CURVE",
"598 188 OFFCURVE",
"597 159 OFFCURVE",
"597 132 CURVE SMOOTH",
"597 3 OFFCURVE",
"633 -62 OFFCURVE",
"707 -62 CURVE SMOOTH",
"732 -62 OFFCURVE",
"745 -54 OFFCURVE",
"745 -38 CURVE SMOOTH",
"745 -28 OFFCURVE",
"741 -23 OFFCURVE",
"734 -23 CURVE SMOOTH",
"731 -23 OFFCURVE",
"728 -26 OFFCURVE",
"723 -30 CURVE SMOOTH",
"719 -34 OFFCURVE",
"713 -36 OFFCURVE",
"707 -36 CURVE SMOOTH",
"650 -36 OFFCURVE",
"621 6 OFFCURVE",
"621 89 CURVE SMOOTH",
"621 123 OFFCURVE",
"626 165 OFFCURVE",
"635 213 CURVE",
"659 209 OFFCURVE",
"681 207 OFFCURVE",
"700 207 CURVE SMOOTH",
"742 207 OFFCURVE",
"763 222 OFFCURVE",
"763 253 CURVE SMOOTH"
);
},
{
closed = 1;
nodes = (
"181 170 OFFCURVE",
"178 152 OFFCURVE",
"173 136 CURVE SMOOTH",
"165 112 OFFCURVE",
"152 101 OFFCURVE",
"137 101 CURVE",
"124 109 OFFCURVE",
"118 122 OFFCURVE",
"118 140 CURVE SMOOTH",
"118 158 OFFCURVE",
"124 177 OFFCURVE",
"135 198 CURVE SMOOTH",
"146 220 OFFCURVE",
"159 235 OFFCURVE",
"174 243 CURVE",
"179 222 OFFCURVE",
"181 204 OFFCURVE",
"181 190 CURVE SMOOTH"
);
},
{
closed = 1;
nodes = (
"271 -23 OFFCURVE",
"228 -87 OFFCURVE",
"142 -87 CURVE SMOOTH",
"106 -87 OFFCURVE",
"78 -68 OFFCURVE",
"61 -29 CURVE SMOOTH",
"48 0 OFFCURVE",
"42 36 OFFCURVE",
"42 78 CURVE SMOOTH",
"42 122 OFFCURVE",
"49 164 OFFCURVE",
"63 206 CURVE SMOOTH",
"82 264 OFFCURVE",
"109 293 OFFCURVE",
"142 293 CURVE SMOOTH",
"148 293 OFFCURVE",
"153 290 OFFCURVE",
"158 284 CURVE",
"138 271 OFFCURVE",
"123 249 OFFCURVE",
"110 219 CURVE SMOOTH",
"98 190 OFFCURVE",
"92 164 OFFCURVE",
"92 138 CURVE SMOOTH",
"92 96 OFFCURVE",
"107 75 OFFCURVE",
"137 75 CURVE SMOOTH",
"161 75 OFFCURVE",
"180 89 OFFCURVE",
"193 116 CURVE SMOOTH",
"202 137 OFFCURVE",
"207 162 OFFCURVE",
"207 190 CURVE SMOOTH",
"207 211 OFFCURVE",
"204 233 OFFCURVE",
"198 255 CURVE",
"214 260 OFFCURVE",
"234 264 OFFCURVE",
"258 266 CURVE",
"267 182 OFFCURVE",
"271 129 OFFCURVE",
"271 105 CURVE SMOOTH"
);
}
);
width = 763;
}
);
note = H;
unicode = 0048;
},
{
glyphname = I;
layers = (
{
hints = (
{
horizontal = 1;
place = "{-87, 26}";
type = Stem;
},
{
horizontal = 1;
place = "{-20, 23}";
type = Stem;
},
{
horizontal = 1;
place = "{57, 37}";
type = Stem;
},
{
horizontal = 1;
place = "{534, 58}";
type = Stem;
},
{
place = "{177, 27}";
type = Stem;
},
{
place = "{263, 32}";
type = Stem;
}
);
layerId = "A20F32D1-A37C-460A-962C-541C205D5E83";
paths = (
{
closed = 1;
nodes = (
"452 -23 OFFCURVE",
"450 -20 OFFCURVE",
"446 -19 CURVE SMOOTH",
"413 -9 OFFCURVE",
"358 -2 OFFCURVE",
"282 2 CURVE",
"290 23 OFFCURVE",
"294 41 OFFCURVE",
"294 58 CURVE SMOOTH",
"294 106 OFFCURVE",
"287 177 OFFCURVE",
"271 270 CURVE SMOOTH",
"256 364 OFFCURVE",
"248 435 OFFCURVE",
"248 483 CURVE SMOOTH",
"248 506 OFFCURVE",
"250 527 OFFCURVE",
"253 547 CURVE",
"284 557 OFFCURVE",
"308 564 OFFCURVE",
"324 569 CURVE SMOOTH",
"356 578 OFFCURVE",
"372 585 OFFCURVE",
"372 591 CURVE SMOOTH",
"372 600 OFFCURVE",
"368 605 OFFCURVE",
"359 605 CURVE SMOOTH",
"351 605 OFFCURVE",
"335 602 OFFCURVE",
"311 594 CURVE SMOOTH",
"285 585 OFFCURVE",
"268 580 OFFCURVE",
"260 579 CURVE",
"266 598 OFFCURVE",
"268 606 OFFCURVE",
"268 604 CURVE SMOOTH",
"268 612 OFFCURVE",
"260 617 OFFCURVE",
"243 617 CURVE SMOOTH",
"227 617 OFFCURVE",
"213 604 OFFCURVE",
"203 578 CURVE",
"198 578 OFFCURVE",
"190 581 OFFCURVE",
"180 586 CURVE SMOOTH",
"169 590 OFFCURVE",
"162 592 OFFCURVE",
"158 592 CURVE SMOOTH",
"150 592 OFFCURVE",
"143 587 OFFCURVE",
"135 575 CURVE SMOOTH",
"127 564 OFFCURVE",
"123 554 OFFCURVE",
"123 546 CURVE SMOOTH",
"123 543 OFFCURVE",
"124 541 OFFCURVE",
"126 540 CURVE",
"130 536 OFFCURVE",
"144 535 OFFCURVE",
"167 535 CURVE SMOOTH",
"179 535 OFFCURVE",
"191 536 OFFCURVE",
"203 538 CURVE",
"201 522 OFFCURVE",
"200 506 OFFCURVE",
"200 491 CURVE SMOOTH",
"200 458 OFFCURVE",
"208 404 OFFCURVE",
"222 331 CURVE SMOOTH",
"249 200 OFFCURVE",
"262 108 OFFCURVE",
"262 57 CURVE SMOOTH",
"262 40 OFFCURVE",
"259 22 OFFCURVE",
"252 4 CURVE",
"221 4 OFFCURVE",
"183 4 OFFCURVE",
"138 4 CURVE",
"138 11 OFFCURVE",
"142 21 OFFCURVE",
"149 36 CURVE SMOOTH",
"156 50 OFFCURVE",
"162 57 OFFCURVE",
"168 57 CURVE SMOOTH",
"173 57 OFFCURVE",
"175 50 OFFCURVE",
"177 35 CURVE SMOOTH",
"178 21 OFFCURVE",
"183 14 OFFCURVE",
"191 14 CURVE SMOOTH",
"200 14 OFFCURVE",
"204 18 OFFCURVE",
"204 27 CURVE SMOOTH",
"204 71 OFFCURVE",
"194 94 OFFCURVE",
"172 94 CURVE SMOOTH",
"155 94 OFFCURVE",
"138 83 OFFCURVE",
"123 61 CURVE SMOOTH",
"108 40 OFFCURVE",
"101 20 OFFCURVE",
"100 2 CURVE",
"66 1 OFFCURVE",
"39 1 OFFCURVE",
"18 1 CURVE SMOOTH",
"14 1 OFFCURVE",
"11 -3 OFFCURVE",
"9 -10 CURVE SMOOTH",
"6 -17 OFFCURVE",
"5 -23 OFFCURVE",
"5 -27 CURVE SMOOTH",
"5 -41 OFFCURVE",
"12 -49 OFFCURVE",
"27 -49 CURVE SMOOTH",
"37 -49 OFFCURVE",
"51 -45 OFFCURVE",
"69 -39 CURVE SMOOTH",
"87 -32 OFFCURVE",
"99 -28 OFFCURVE",
"106 -25 CURVE",
"113 -41 OFFCURVE",
"124 -56 OFFCURVE",
"139 -68 CURVE SMOOTH",
"154 -81 OFFCURVE",
"169 -87 OFFCURVE",
"185 -87 CURVE SMOOTH",
"218 -87 OFFCURVE",
"247 -66 OFFCURVE",
"271 -23 CURVE",
"275 -23 OFFCURVE",
"302 -29 OFFCURVE",
"350 -40 CURVE SMOOTH",
"394 -50 OFFCURVE",
"418 -55 OFFCURVE",
"422 -55 CURVE SMOOTH",
"424 -55 LINE SMOOTH",
"430 -55 OFFCURVE",
"436 -52 OFFCURVE",
"442 -45 CURVE SMOOTH",
"449 -38 OFFCURVE",
"452 -32 OFFCURVE",
"452 -26 CURVE SMOOTH"
);
},
{
closed = 1;
nodes = (
"227 -47 OFFCURVE",
"208 -61 OFFCURVE",
"185 -61 CURVE SMOOTH",
"175 -61 OFFCURVE",
"165 -57 OFFCURVE",
"156 -48 CURVE SMOOTH",
"147 -39 OFFCURVE",
"141 -29 OFFCURVE",
"139 -19 CURVE",
"168 -19 LINE SMOOTH",
"193 -19 OFFCURVE",
"205 -19 OFFCURVE",
"205 -19 CURVE",
"211 -19 OFFCURVE",
"219 -19 OFFCURVE",
"228 -20 CURVE SMOOTH",
"235 -20 OFFCURVE",
"240 -20 OFFCURVE",
"242 -20 CURVE"
);
}
);
width = 374;
}
);
note = I;
unicode = 0049;
},
{
glyphname = J;
layers = (
{
hints = (
{
horizontal = 1;
place = "{-311, 43}";
type = Stem;
},
{
horizontal = 1;
place = "{-151, 26}";
type = Stem;
},
{
horizontal = 1;
place = "{56, 27}";
type = Stem;
},
{
horizontal = 1;
place = "{449, 30}";
type = Stem;
},
{
place = "{-48, 54}";
type = Stem;
},
{
place = "{84, 32}";
type = Stem;
},
{
place = "{164, 50}";
type = Stem;
},
{
place = "{345, 27}";
type = Stem;
},
{
place = "{380, 64}";
type = Stem;
},
{
place = "{475, 40}";
type = Stem;
},
{
place = "{611, 32}";
type = Stem;
}
);
layerId = "A20F32D1-A37C-460A-962C-541C205D5E83";
paths = (
{
closed = 1;
nodes = (
"644 518 OFFCURVE",
"638 528 OFFCURVE",
"626 528 CURVE SMOOTH",
"616 528 OFFCURVE",
"611 524 OFFCURVE",
"611 516 CURVE SMOOTH",
"611 514 OFFCURVE",
"612 511 OFFCURVE",
"614 507 CURVE SMOOTH",
"616 503 OFFCURVE",
"617 500 OFFCURVE",
"617 498 CURVE SMOOTH",
"617 485 OFFCURVE",
"603 479 OFFCURVE",
"575 479 CURVE SMOOTH",
"551 479 OFFCURVE",
"518 483 OFFCURVE",
"477 492 CURVE",
"482 499 OFFCURVE",
"486 505 OFFCURVE",
"491 509 CURVE",
"491 514 OFFCURVE",
"482 516 OFFCURVE",
"464 516 CURVE SMOOTH",
"447 516 OFFCURVE",
"434 512 OFFCURVE",
"427 504 CURVE",
"395 510 OFFCURVE",
"361 513 OFFCURVE",
"323 513 CURVE SMOOTH",
"217 513 OFFCURVE",
"164 492 OFFCURVE",
"164 449 CURVE SMOOTH",
"164 421 OFFCURVE",
"188 388 OFFCURVE",
"236 349 CURVE SMOOTH",
"238 347 OFFCURVE",
"241 347 OFFCURVE",
"244 347 CURVE SMOOTH",
"254 347 OFFCURVE",
"258 351 OFFCURVE",
"258 360 CURVE SMOOTH",
"258 362 OFFCURVE",
"251 370 OFFCURVE",
"236 386 CURVE SMOOTH",
"221 401 OFFCURVE",
"213 414 OFFCURVE",
"213 425 CURVE SMOOTH",
"213 454 OFFCURVE",
"254 468 OFFCURVE",
"337 468 CURVE SMOOTH",
"360 468 OFFCURVE",
"382 467 OFFCURVE",
"401 465 CURVE",
"388 434 OFFCURVE",
"381 396 OFFCURVE",
"381 354 CURVE SMOOTH",
"381 308 OFFCURVE",
"397 240 OFFCURVE",
"428 153 CURVE SMOOTH",
"460 65 OFFCURVE",
"476 -2 OFFCURVE",
"476 -49 CURVE SMOOTH",
"476 -108 OFFCURVE",
"442 -161 OFFCURVE",
"373 -206 CURVE SMOOTH",
"311 -247 OFFCURVE",
"249 -267 OFFCURVE",
"186 -267 CURVE SMOOTH",
"96 -267 OFFCURVE",
"38 -225 OFFCURVE",
"13 -141 CURVE",
"8 -128 OFFCURVE",
"6 -115 OFFCURVE",
"6 -104 CURVE SMOOTH",
"6 -53 OFFCURVE",
"44 -12 OFFCURVE",
"121 19 CURVE SMOOTH",
"181 44 OFFCURVE",
"241 56 OFFCURVE",
"299 56 CURVE SMOOTH",
"330 56 OFFCURVE",
"346 44 OFFCURVE",
"346 21 CURVE SMOOTH",
"346 -2 OFFCURVE",
"332 -25 OFFCURVE",
"307 -52 CURVE SMOOTH",
"261 -100 OFFCURVE",
"208 -125 OFFCURVE",
"148 -125 CURVE SMOOTH",
"127 -125 OFFCURVE",
"116 -122 OFFCURVE",
"116 -114 CURVE SMOOTH",
"116 -99 OFFCURVE",
"150 -77 OFFCURVE",
"218 -50 CURVE SMOOTH",
"225 -47 OFFCURVE",
"232 -45 OFFCURVE",
"239 -42 CURVE SMOOTH",
"249 -38 OFFCURVE",
"254 -34 OFFCURVE",
"254 -29 CURVE SMOOTH",
"254 -19 OFFCURVE",
"250 -14 OFFCURVE",
"241 -14 CURVE SMOOTH",
"221 -14 OFFCURVE",
"190 -29 OFFCURVE",
"148 -57 CURVE SMOOTH",
"106 -86 OFFCURVE",
"85 -109 OFFCURVE",
"85 -128 CURVE SMOOTH",
"85 -143 OFFCURVE",
"104 -151 OFFCURVE",
"142 -151 CURVE SMOOTH",
"209 -151 OFFCURVE",
"271 -124 OFFCURVE",
"327 -69 CURVE SMOOTH",
"358 -39 OFFCURVE",
"373 -10 OFFCURVE",
"373 18 CURVE SMOOTH",
"373 41 OFFCURVE",
"359 60 OFFCURVE",
"330 71 CURVE SMOOTH",
"310 79 OFFCURVE",
"286 83 OFFCURVE",
"258 83 CURVE SMOOTH",
"189 83 OFFCURVE",
"123 63 OFFCURVE",
"60 24 CURVE SMOOTH",
"-12 -20 OFFCURVE",
"-48 -74 OFFCURVE",
"-48 -139 CURVE SMOOTH",
"-48 -194 OFFCURVE",
"-30 -238 OFFCURVE",
"5 -268 CURVE SMOOTH",
"38 -297 OFFCURVE",
"83 -311 OFFCURVE",
"140 -311 CURVE SMOOTH",
"242 -311 OFFCURVE",
"336 -277 OFFCURVE",
"424 -211 CURVE SMOOTH",
"481 -167 OFFCURVE",
"511 -122 OFFCURVE",
"515 -73 CURVE SMOOTH",
"516 -64 OFFCURVE",
"516 -54 OFFCURVE",
"516 -44 CURVE SMOOTH",
"516 10 OFFCURVE",
"509 65 OFFCURVE",
"495 118 CURVE SMOOTH",
"464 235 LINE SMOOTH",
"451 282 OFFCURVE",
"445 322 OFFCURVE",
"445 355 CURVE SMOOTH",
"445 390 OFFCURVE",
"449 423 OFFCURVE",
"459 454 CURVE",
"483 451 OFFCURVE",
"506 449 OFFCURVE",
"529 449 CURVE SMOOTH",
"605 449 OFFCURVE",
"644 465 OFFCURVE",
"644 497 CURVE SMOOTH"
);
}
);
width = 590;
}
);
note = J;
unicode = 004A;
},
{
glyphname = K;
layers = (
{
hints = (
{
horizontal = 1;
place = "{-18, 23}";
type = Stem;
},
{
place = "{273, 38}";
type = Stem;
}
);
layerId = "A20F32D1-A37C-460A-962C-541C205D5E83";
paths = (
{
closed = 1;
nodes = (
"491 532 OFFCURVE",
"488 536 OFFCURVE",
"480 536 CURVE SMOOTH",
"440 536 OFFCURVE",
"376 497 OFFCURVE",
"288 420 CURVE SMOOTH",
"214 355 OFFCURVE",
"160 298 OFFCURVE",
"125 250 CURVE",
"134 322 OFFCURVE",
"138 391 OFFCURVE",
"138 457 CURVE SMOOTH",
"138 490 OFFCURVE",
"137 509 OFFCURVE",
"136 514 CURVE SMOOTH",
"131 532 OFFCURVE",
"116 541 OFFCURVE",
"92 541 CURVE SMOOTH",
"65 541 OFFCURVE",
"51 532 OFFCURVE",
"51 515 CURVE SMOOTH",
"52 507 LINE SMOOTH",
"56 477 OFFCURVE",
"59 456 OFFCURVE",
"60 445 CURVE SMOOTH",
"70 359 OFFCURVE",
"76 293 OFFCURVE",
"76 247 CURVE SMOOTH",
"76 130 OFFCURVE",
"55 45 OFFCURVE",
"14 -8 CURVE SMOOTH",
"6 -18 OFFCURVE",
"2 -26 OFFCURVE",
"2 -30 CURVE SMOOTH",
"2 -39 OFFCURVE",
"7 -43 OFFCURVE",
"18 -43 CURVE SMOOTH",
"40 -43 OFFCURVE",
"61 -14 OFFCURVE",
"82 44 CURVE SMOOTH",
"93 76 OFFCURVE",
"104 115 OFFCURVE",
"113 160 CURVE",
"132 187 OFFCURVE",
"154 214 OFFCURVE",
"178 242 CURVE",
"200 250 OFFCURVE",
"218 254 OFFCURVE",
"231 254 CURVE SMOOTH",
"269 254 OFFCURVE",
"287 226 OFFCURVE",
"287 169 CURVE SMOOTH",
"287 155 OFFCURVE",
"285 134 OFFCURVE",
"280 106 CURVE SMOOTH",
"275 78 OFFCURVE",
"273 57 OFFCURVE",
"273 42 CURVE SMOOTH",
"273 2 OFFCURVE",
"296 -18 OFFCURVE",
"341 -18 CURVE SMOOTH",
"366 -18 OFFCURVE",
"389 -9 OFFCURVE",
"411 8 CURVE SMOOTH",
"434 26 OFFCURVE",
"445 46 OFFCURVE",
"445 70 CURVE SMOOTH",
"445 79 OFFCURVE",
"442 83 OFFCURVE",
"437 83 CURVE SMOOTH",
"431 83 OFFCURVE",
"424 73 OFFCURVE",
"417 54 CURVE SMOOTH",
"413 43 OFFCURVE",
"405 32 OFFCURVE",
"392 21 CURVE SMOOTH",
"378 11 OFFCURVE",
"366 5 OFFCURVE",
"355 5 CURVE SMOOTH",
"343 5 OFFCURVE",
"332 12 OFFCURVE",
"323 26 CURVE SMOOTH",
"315 38 OFFCURVE",
"311 50 OFFCURVE",
"311 63 CURVE SMOOTH",
"311 80 OFFCURVE",
"316 106 OFFCURVE",
"328 139 CURVE SMOOTH",
"340 172 OFFCURVE",
"346 197 OFFCURVE",
"346 213 CURVE SMOOTH",
"346 265 OFFCURVE",
"307 294 OFFCURVE",
"230 301 CURVE",
"318 399 OFFCURVE",
"391 466 OFFCURVE",
"451 499 CURVE SMOOTH",
"458 503 OFFCURVE",
"467 506 OFFCURVE",
"474 509 CURVE SMOOTH",
"486 515 OFFCURVE",
"491 521 OFFCURVE",
"491 526 CURVE SMOOTH"
);
}
);
width = 419;
}
);
note = K;
unicode = 004B;
},
{
glyphname = L;
layers = (
{
hints = (
{
horizontal = 1;
place = "{-30, 26}";
type = Stem;
},
{
horizontal = 1;
place = "{1, 35}";
type = Stem;
},
{
horizontal = 1;
place = "{172, 24}";
type = Stem;
},
{
horizontal = 1;
place = "{516, 24}";
type = Stem;
},
{
place = "{1, 32}";
type = Stem;
},
{
place = "{219, 13}";
type = Stem;
},
{
place = "{325, 21}";
type = Stem;
},
{
place = "{451, 26}";
type = Stem;
},
{
place = "{489, 19}";
type = Stem;
}
);
layerId = "A20F32D1-A37C-460A-962C-541C205D5E83";
paths = (
{
closed = 1;
nodes = (
"508 129 OFFCURVE",
"497 150 OFFCURVE",
"476 169 CURVE SMOOTH",
"455 187 OFFCURVE",
"432 196 OFFCURVE",
"406 196 CURVE SMOOTH",
"386 196 OFFCURVE",
"367 189 OFFCURVE",
"350 175 CURVE SMOOTH",
"333 161 OFFCURVE",
"325 144 OFFCURVE",
"325 123 CURVE SMOOTH",
"325 110 OFFCURVE",
"330 99 OFFCURVE",
"341 90 CURVE SMOOTH",
"351 82 OFFCURVE",
"364 78 OFFCURVE",
"378 78 CURVE SMOOTH",
"383 78 OFFCURVE",
"386 80 OFFCURVE",
"386 83 CURVE SMOOTH",
"386 88 OFFCURVE",
"379 92 OFFCURVE",
"366 97 CURVE SMOOTH",
"352 102 OFFCURVE",
"346 111 OFFCURVE",
"346 123 CURVE SMOOTH",
"346 156 OFFCURVE",
"364 172 OFFCURVE",
"400 172 CURVE SMOOTH",
"421 172 OFFCURVE",
"441 165 OFFCURVE",
"460 150 CURVE SMOOTH",
"479 136 OFFCURVE",
"489 119 OFFCURVE",
"489 98 CURVE SMOOTH",
"489 77 OFFCURVE",
"480 61 OFFCURVE",
"463 50 CURVE SMOOTH",
"448 41 OFFCURVE",
"430 36 OFFCURVE",
"409 36 CURVE SMOOTH",
"354 36 OFFCURVE",
"297 61 OFFCURVE",
"239 112 CURVE",
"240 137 OFFCURVE",
"240 166 OFFCURVE",
"238 199 CURVE SMOOTH",
"231 287 LINE",
"290 287 OFFCURVE",
"344 302 OFFCURVE",
"392 331 CURVE SMOOTH",
"449 365 OFFCURVE",
"477 410 OFFCURVE",
"477 466 CURVE SMOOTH",
"477 488 OFFCURVE",
"464 509 OFFCURVE",
"437 528 CURVE SMOOTH",
"410 548 OFFCURVE",
"385 557 OFFCURVE",
"362 557 CURVE SMOOTH",
"349 557 OFFCURVE",
"334 554 OFFCURVE",
"318 548 CURVE SMOOTH",
"277 534 OFFCURVE",
"249 500 OFFCURVE",
"234 446 CURVE SMOOTH",
"225 413 OFFCURVE",
"219 366 OFFCURVE",
"219 305 CURVE",
"206 305 LINE SMOOTH",
"168 305 OFFCURVE",
"132 311 OFFCURVE",
"99 323 CURVE SMOOTH",
"54 339 OFFCURVE",
"32 363 OFFCURVE",
"32 393 CURVE SMOOTH",
"32 422 OFFCURVE",
"50 450 OFFCURVE",
"87 477 CURVE SMOOTH",
"123 503 OFFCURVE",
"155 516 OFFCURVE",
"185 516 CURVE SMOOTH",
"201 516 OFFCURVE",
"210 509 OFFCURVE",
"210 497 CURVE SMOOTH",
"210 483 OFFCURVE",
"198 467 OFFCURVE",
"174 449 CURVE SMOOTH",
"154 435 OFFCURVE",
"136 424 OFFCURVE",
"119 418 CURVE SMOOTH",
"110 416 OFFCURVE",
"101 414 OFFCURVE",
"92 412 CURVE SMOOTH",
"79 409 OFFCURVE",
"73 405 OFFCURVE",
"73 401 CURVE SMOOTH",
"73 397 OFFCURVE",
"77 395 OFFCURVE",
"85 395 CURVE SMOOTH",
"111 395 OFFCURVE",
"141 405 OFFCURVE",
"173 425 CURVE SMOOTH",
"208 447 OFFCURVE",
"226 471 OFFCURVE",
"226 496 CURVE SMOOTH",
"226 525 OFFCURVE",
"205 540 OFFCURVE",
"164 540 CURVE SMOOTH",
"123 540 OFFCURVE",
"88 526 OFFCURVE",
"58 498 CURVE SMOOTH",
"28 470 OFFCURVE",
"13 436 OFFCURVE",
"13 395 CURVE SMOOTH",
"13 326 OFFCURVE",
"81 290 OFFCURVE",
"218 287 CURVE",
"218 213 OFFCURVE",
"216 162 OFFCURVE",
"212 135 CURVE",
"163 180 OFFCURVE",
"127 203 OFFCURVE",
"104 203 CURVE SMOOTH",
"74 203 OFFCURVE",
"49 191 OFFCURVE",
"30 169 CURVE SMOOTH",
"11 147 OFFCURVE",
"1 120 OFFCURVE",
"1 89 CURVE SMOOTH",
"1 59 OFFCURVE",
"10 32 OFFCURVE",
"26 9 CURVE SMOOTH",
"44 -17 OFFCURVE",
"68 -30 OFFCURVE",
"98 -30 CURVE SMOOTH",
"132 -30 OFFCURVE",
"162 -19 OFFCURVE",
"188 3 CURVE SMOOTH",
"213 24 OFFCURVE",
"229 52 OFFCURVE",
"236 86 CURVE",
"316 29 OFFCURVE",
"377 1 OFFCURVE",
"421 1 CURVE SMOOTH",
"448 1 OFFCURVE",
"469 12 OFFCURVE",
"485 33 CURVE SMOOTH",
"500 53 OFFCURVE",
"508 76 OFFCURVE",
"508 104 CURVE SMOOTH"
);
},
{
closed = 1;
nodes = (
"451 421 OFFCURVE",
"425 382 OFFCURVE",
"373 350 CURVE SMOOTH",
"330 324 OFFCURVE",
"282 310 OFFCURVE",
"231 306 CURVE",
"230 330 LINE SMOOTH",
"229 376 OFFCURVE",
"240 416 OFFCURVE",
"266 452 CURVE SMOOTH",
"291 487 OFFCURVE",
"326 505 OFFCURVE",
"371 505 CURVE SMOOTH",
"385 505 OFFCURVE",
"401 502 OFFCURVE",
"418 496 CURVE SMOOTH",
"440 488 OFFCURVE",
"451 478 OFFCURVE",
"451 466 CURVE SMOOTH"
);
},
{
closed = 1;
nodes = (
"207 105 LINE",
"191 33 OFFCURVE",
"155 -4 OFFCURVE",
"98 -4 CURVE SMOOTH",
"94 -4 LINE SMOOTH",
"74 -4 OFFCURVE",
"59 8 OFFCURVE",
"48 31 CURVE SMOOTH",
"38 50 OFFCURVE",
"32 70 OFFCURVE",
"32 91 CURVE SMOOTH",
"32 138 OFFCURVE",
"56 161 OFFCURVE",
"102 161 CURVE SMOOTH",
"117 161 OFFCURVE",
"135 155 OFFCURVE",
"158 141 CURVE"
);
}
);
width = 513;
}
);
note = L;
unicode = 004C;
},
{
glyphname = M;
layers = (
{
hints = (
{
horizontal = 1;
place = "{-17, 41}";
type = Stem;
},
{
horizontal = 1;
place = "{39, 19}";
type = Stem;
},
{
horizontal = 1;
place = "{182, 23}";
type = Stem;
},
{
horizontal = 1;
place = "{415, 36}";
type = Stem;
},
{
horizontal = 1;
place = "{515, 18}";
type = Stem;
},
{
place = "{5, 24}";
type = Stem;
},
{
place = "{119, 27}";
type = Stem;
},
{
place = "{208, 36}";
type = Stem;
},
{
place = "{369, 26}";
type = Stem;
},
{
place = "{551, 26}";
type = Stem;
},
{
place = "{611, 51}";
type = Stem;
},
{
place = "{677, 26}";
type = Stem;
}
);
layerId = "A20F32D1-A37C-460A-962C-541C205D5E83";
paths = (
{
closed = 1;
nodes = (
"704 173 OFFCURVE",
"689 187 OFFCURVE",
"658 187 CURVE SMOOTH",
"651 187 OFFCURVE",
"644 182 OFFCURVE",
"639 172 CURVE SMOOTH",
"634 162 OFFCURVE",
"631 152 OFFCURVE",
"631 144 CURVE SMOOTH",
"631 142 OFFCURVE",
"631 141 OFFCURVE",
"632 141 CURVE",
"632 141 OFFCURVE",
"638 146 OFFCURVE",
"647 156 CURVE SMOOTH",
"657 165 OFFCURVE",
"664 170 OFFCURVE",
"669 170 CURVE SMOOTH",
"675 170 OFFCURVE",
"678 161 OFFCURVE",
"678 143 CURVE SMOOTH",
"678 128 OFFCURVE",
"671 110 OFFCURVE",
"657 90 CURVE SMOOTH",
"642 68 OFFCURVE",
"627 58 OFFCURVE",
"613 58 CURVE SMOOTH",
"589 58 OFFCURVE",
"577 74 OFFCURVE",
"577 105 CURVE SMOOTH",
"577 138 OFFCURVE",
"591 186 OFFCURVE",
"620 248 CURVE SMOOTH",
"648 310 OFFCURVE",
"662 357 OFFCURVE",
"662 390 CURVE SMOOTH",
"662 444 OFFCURVE",
"636 471 OFFCURVE",
"584 471 CURVE SMOOTH",
"542 471 OFFCURVE",
"496 413 OFFCURVE",
"445 299 CURVE",
"437 334 OFFCURVE",
"427 364 OFFCURVE",
"415 391 CURVE SMOOTH",
"396 431 OFFCURVE",
"376 451 OFFCURVE",
"353 451 CURVE SMOOTH",
"321 451 OFFCURVE",
"296 429 OFFCURVE",
"277 387 CURVE SMOOTH",
"269 369 OFFCURVE",
"258 335 OFFCURVE",
"245 284 CURVE",
"248 450 OFFCURVE",
"212 533 OFFCURVE",
"136 533 CURVE SMOOTH",
"89 533 OFFCURVE",
"53 504 OFFCURVE",
"31 446 CURVE SMOOTH",
"14 404 OFFCURVE",
"5 355 OFFCURVE",
"5 299 CURVE SMOOTH",
"5 221 OFFCURVE",
"25 182 OFFCURVE",
"63 182 CURVE SMOOTH",
"85 182 OFFCURVE",
"104 190 OFFCURVE",
"121 206 CURVE SMOOTH",
"138 222 OFFCURVE",
"147 241 OFFCURVE",
"147 262 CURVE SMOOTH",
"147 307 OFFCURVE",
"137 344 OFFCURVE",
"118 372 CURVE SMOOTH",
"115 376 OFFCURVE",
"112 378 OFFCURVE",
"110 378 CURVE SMOOTH",
"107 378 OFFCURVE",
"105 375 OFFCURVE",
"105 369 CURVE SMOOTH",
"105 366 OFFCURVE",
"106 362 OFFCURVE",
"108 358 CURVE SMOOTH",
"116 342 OFFCURVE",
"120 317 OFFCURVE",
"120 284 CURVE SMOOTH",
"120 231 OFFCURVE",
"107 205 OFFCURVE",
"82 205 CURVE SMOOTH",
"47 205 OFFCURVE",
"30 243 OFFCURVE",
"30 318 CURVE SMOOTH",
"30 360 OFFCURVE",
"36 400 OFFCURVE",
"50 438 CURVE SMOOTH",
"69 489 OFFCURVE",
"97 515 OFFCURVE",
"131 515 CURVE SMOOTH",
"183 515 OFFCURVE",
"209 452 OFFCURVE",
"209 325 CURVE SMOOTH",
"209 290 OFFCURVE",
"202 238 OFFCURVE",
"189 168 CURVE SMOOTH",
"176 99 OFFCURVE",
"169 47 OFFCURVE",
"169 12 CURVE SMOOTH",
"169 -1 OFFCURVE",
"177 -7 OFFCURVE",
"194 -7 CURVE SMOOTH",
"200 -7 OFFCURVE",
"203 -5 OFFCURVE",
"205 0 CURVE SMOOTH",
"211 22 OFFCURVE",
"216 45 OFFCURVE",
"220 68 CURVE SMOOTH",
"235 159 OFFCURVE",
"245 215 OFFCURVE",
"250 237 CURVE SMOOTH",
"277 356 OFFCURVE",
"306 415 OFFCURVE",
"339 415 CURVE SMOOTH",
"357 415 OFFCURVE",
"376 391 OFFCURVE",
"395 344 CURVE SMOOTH",
"408 312 OFFCURVE",
"417 280 OFFCURVE",
"423 248 CURVE",
"387 173 OFFCURVE",
"369 108 OFFCURVE",
"369 52 CURVE SMOOTH",
"369 6 OFFCURVE",
"383 -17 OFFCURVE",
"410 -17 CURVE SMOOTH",
"452 -17 OFFCURVE",
"473 26 OFFCURVE",
"473 111 CURVE SMOOTH",
"473 156 OFFCURVE",
"466 202 OFFCURVE",
"452 248 CURVE",
"499 368 OFFCURVE",
"542 428 OFFCURVE",
"579 428 CURVE SMOOTH",
"600 428 OFFCURVE",
"611 410 OFFCURVE",
"611 374 CURVE SMOOTH",
"611 345 OFFCURVE",
"601 302 OFFCURVE",
"581 246 CURVE SMOOTH",
"561 189 OFFCURVE",
"551 146 OFFCURVE",
"551 116 CURVE SMOOTH",
"551 65 OFFCURVE",
"574 39 OFFCURVE",
"621 39 CURVE SMOOTH",
"642 39 OFFCURVE",
"662 51 OFFCURVE",
"680 76 CURVE SMOOTH",
"696 98 OFFCURVE",
"704 121 OFFCURVE",
"704 143 CURVE SMOOTH"
);
},
{
closed = 1;
nodes = (
"435 95 OFFCURVE",
"433 79 OFFCURVE",
"429 60 CURVE SMOOTH",
"425 36 OFFCURVE",
"419 23 OFFCURVE",
"411 23 CURVE SMOOTH",
"401 23 OFFCURVE",
"395 34 OFFCURVE",
"395 55 CURVE SMOOTH",
"395 86 OFFCURVE",
"407 130 OFFCURVE",
"429 188 CURVE",
"433 145 OFFCURVE",
"435 119 OFFCURVE",
"435 110 CURVE SMOOTH"
);
}
);
width = 704;
}
);
note = M;
unicode = 004D;
},
{
glyphname = N;
layers = (
{
hints = (
{
horizontal = 1;
place = "{-124, 23}";
type = Stem;
},
{
horizontal = 1;
place = "{203, 220}";
type = Stem;
},
{
horizontal = 1;
place = "{530, 22}";
type = Stem;
},
{
place = "{0, 25}";
type = Stem;
},
{
place = "{123, 32}";
type = Stem;
},
{
place = "{353, 52}";
type = Stem;
},
{
place = "{528, 44}";
type = Stem;
}
);
layerId = "A20F32D1-A37C-460A-962C-541C205D5E83";
paths = (
{
closed = 1;
nodes = (
"572 518 OFFCURVE",
"546 549 OFFCURVE",
"495 549 CURVE SMOOTH",
"472 549 OFFCURVE",
"452 544 OFFCURVE",
"434 535 CURVE SMOOTH",
"404 519 OFFCURVE",
"368 487 OFFCURVE",
"328 440 CURVE SMOOTH",
"295 403 OFFCURVE",
"266 365 OFFCURVE",
"241 325 CURVE",
"238 377 OFFCURVE",
"227 424 OFFCURVE",
"209 466 CURVE SMOOTH",
"184 523 OFFCURVE",
"149 552 OFFCURVE",
"106 552 CURVE SMOOTH",
"71 552 OFFCURVE",
"44 536 OFFCURVE",
"24 504 CURVE SMOOTH",
"8 478 OFFCURVE",
"0 446 OFFCURVE",
"0 408 CURVE SMOOTH",
"0 368 OFFCURVE",
"6 328 OFFCURVE",
"19 286 CURVE SMOOTH",
"36 231 OFFCURVE",
"59 203 OFFCURVE",
"89 203 CURVE SMOOTH",
"94 203 OFFCURVE",
"98 203 OFFCURVE",
"102 204 CURVE SMOOTH",
"138 213 OFFCURVE",
"156 242 OFFCURVE",
"156 290 CURVE SMOOTH",
"156 311 OFFCURVE",
"147 337 OFFCURVE",
"130 369 CURVE SMOOTH",
"110 405 OFFCURVE",
"91 423 OFFCURVE",
"72 423 CURVE SMOOTH",
"68 423 OFFCURVE",
"67 421 OFFCURVE",
"67 418 CURVE SMOOTH",
"67 407 OFFCURVE",
"74 398 OFFCURVE",
"87 390 CURVE SMOOTH",
"97 384 OFFCURVE",
"105 368 OFFCURVE",
"113 342 CURVE SMOOTH",
"120 315 OFFCURVE",
"123 295 OFFCURVE",
"123 282 CURVE SMOOTH",
"123 253 OFFCURVE",
"115 234 OFFCURVE",
"97 225 CURVE",
"95 225 LINE SMOOTH",
"89 225 OFFCURVE",
"78 244 OFFCURVE",
"61 281 CURVE SMOOTH",
"53 300 OFFCURVE",
"46 317 OFFCURVE",
"41 334 CURVE SMOOTH",
"30 364 OFFCURVE",
"25 388 OFFCURVE",
"25 405 CURVE SMOOTH",
"25 432 OFFCURVE",
"33 458 OFFCURVE",
"48 484 CURVE SMOOTH",
"65 515 OFFCURVE",
"85 530 OFFCURVE",
"110 530 CURVE SMOOTH",
"139 530 OFFCURVE",
"165 502 OFFCURVE",
"186 445 CURVE SMOOTH",
"206 392 OFFCURVE",
"216 345 OFFCURVE",
"216 303 CURVE SMOOTH",
"216 284 LINE",
"140 152 OFFCURVE",
"102 74 OFFCURVE",
"102 48 CURVE SMOOTH",
"102 27 OFFCURVE",
"110 17 OFFCURVE",
"125 17 CURVE SMOOTH",
"136 17 OFFCURVE",
"150 25 OFFCURVE",
"167 41 CURVE SMOOTH",
"208 82 OFFCURVE",
"233 161 OFFCURVE",
"240 278 CURVE",
"268 326 OFFCURVE",
"304 376 OFFCURVE",
"348 428 CURVE SMOOTH",
"407 496 OFFCURVE",
"453 530 OFFCURVE",
"485 530 CURVE SMOOTH",
"513 530 OFFCURVE",
"527 508 OFFCURVE",
"527 464 CURVE SMOOTH",
"527 427 OFFCURVE",
"514 375 OFFCURVE",
"487 311 CURVE SMOOTH",
"452 229 OFFCURVE",
"424 168 OFFCURVE",
"406 128 CURVE SMOOTH",
"370 46 OFFCURVE",
"353 -16 OFFCURVE",
"353 -56 CURVE SMOOTH",
"353 -101 OFFCURVE",
"376 -124 OFFCURVE",
"423 -124 CURVE SMOOTH",
"439 -124 OFFCURVE",
"454 -122 OFFCURVE",
"470 -119 CURVE SMOOTH",
"491 -114 OFFCURVE",
"510 -100 OFFCURVE",
"526 -77 CURVE SMOOTH",
"540 -55 OFFCURVE",
"547 -32 OFFCURVE",
"547 -8 CURVE SMOOTH",
"547 17 OFFCURVE",
"539 29 OFFCURVE",
"524 29 CURVE SMOOTH",
"519 29 OFFCURVE",
"517 27 OFFCURVE",
"517 23 CURVE SMOOTH",
"517 21 OFFCURVE",
"519 18 OFFCURVE",
"523 13 CURVE SMOOTH",
"526 8 OFFCURVE",
"528 3 OFFCURVE",
"528 -2 CURVE SMOOTH",
"528 -15 OFFCURVE",
"520 -35 OFFCURVE",
"505 -62 CURVE SMOOTH",
"499 -72 OFFCURVE",
"490 -81 OFFCURVE",
"477 -90 CURVE SMOOTH",
"465 -98 OFFCURVE",
"452 -102 OFFCURVE",
"441 -102 CURVE SMOOTH",
"428 -102 OFFCURVE",
"418 -96 OFFCURVE",
"410 -86 CURVE",
"407 -70 OFFCURVE",
"405 -54 OFFCURVE",
"405 -37 CURVE SMOOTH",
"405 0 OFFCURVE",
"419 56 OFFCURVE",
"445 131 CURVE SMOOTH",
"450 147 OFFCURVE",
"475 201 OFFCURVE",
"520 293 CURVE SMOOTH",
"555 364 OFFCURVE",
"572 419 OFFCURVE",
"572 457 CURVE SMOOTH"
);
},
{
closed = 1;
nodes = (
"202 192 OFFCURVE",
"199 173 OFFCURVE",
"197 158 CURVE SMOOTH",
"195 143 OFFCURVE",
"189 124 OFFCURVE",
"179 101 CURVE SMOOTH",
"167 72 OFFCURVE",
"155 58 OFFCURVE",
"144 58 CURVE SMOOTH",
"140 58 OFFCURVE",
"138 62 OFFCURVE",
"138 69 CURVE SMOOTH",
"138 84 OFFCURVE",
"147 108 OFFCURVE",
"166 141 CURVE SMOOTH",
"183 173 OFFCURVE",
"196 197 OFFCURVE",
"205 213 CURVE"
);
}
);
width = 563;
}
);
note = N;
unicode = 004E;
},
{
glyphname = Eng;
lastChange = "2021-09-23 21:54:10 +0000";
layers = (
{
hints = (
{
horizontal = 1;
place = "{-124, 23}";
type = Stem;
},
{
horizontal = 1;
place = "{203, 220}";
type = Stem;
},
{
horizontal = 1;
place = "{530, 22}";
type = Stem;
},
{
place = "{0, 25}";
type = Stem;
},
{
place = "{123, 32}";
type = Stem;
},
{
place = "{353, 52}";
type = Stem;
},
{
place = "{528, 44}";
type = Stem;
},
{
horizontal = 1;
place = "{-276.567, 34.385}";
type = Stem;
},
{
horizontal = 1;
place = "{-201.925, 19.289}";
type = Stem;
},
{
horizontal = 1;
place = "{-27.482, 25.16}";
type = Stem;
},
{
horizontal = 1;
place = "{357.468, 12.58}";
type = Stem;
},
{
horizontal = 1;
place = "{383.467, 30.192}";
type = Stem;
},
{
horizontal = 1;
place = "{427.078, 18.451}";
type = Stem;
},
{
place = "{87.618, 13.419}";
type = Stem;
},
{
place = "{175.679, 17.612}";
type = Stem;
},
{
place = "{235.224, 16.773}";
type = Stem;
},
{
place = "{303.995, 16.773}";
type = Stem;
},
{
place = "{366.057, 35.224}";
type = Stem;
}
);
layerId = "A20F32D1-A37C-460A-962C-541C205D5E83";
paths = (
{
closed = 1;
nodes = (
"236 -335 OFFCURVE",
"272 -307 OFFCURVE",
"302 -261 CURVE SMOOTH",
"319 -235 OFFCURVE",
"333 -204 OFFCURVE",
"345 -165 CURVE SMOOTH",
"363 -105 OFFCURVE",
"411 28 OFFCURVE",
"452 131 CURVE SMOOTH",
"470 177 OFFCURVE",
"491 235 OFFCURVE",
"520 293 CURVE SMOOTH",
"555 364 OFFCURVE",
"572 419 OFFCURVE",
"572 457 CURVE SMOOTH",
"572 518 OFFCURVE",
"546 549 OFFCURVE",
"495 549 CURVE SMOOTH",
"472 549 OFFCURVE",
"452 544 OFFCURVE",
"434 535 CURVE SMOOTH",
"404 519 OFFCURVE",
"368 487 OFFCURVE",
"328 440 CURVE SMOOTH",
"295 403 OFFCURVE",
"266 365 OFFCURVE",
"241 325 CURVE",
"238 377 OFFCURVE",
"227 424 OFFCURVE",
"209 466 CURVE SMOOTH",
"184 523 OFFCURVE",
"149 552 OFFCURVE",
"106 552 CURVE SMOOTH",
"71 552 OFFCURVE",
"44 536 OFFCURVE",
"24 504 CURVE SMOOTH",
"8 478 OFFCURVE",
"0 446 OFFCURVE",
"0 408 CURVE SMOOTH",
"0 368 OFFCURVE",
"6 328 OFFCURVE",
"19 286 CURVE SMOOTH",
"36 231 OFFCURVE",
"59 203 OFFCURVE",
"89 203 CURVE SMOOTH",
"94 203 OFFCURVE",
"98 203 OFFCURVE",
"102 204 CURVE SMOOTH",
"138 213 OFFCURVE",
"156 242 OFFCURVE",
"156 290 CURVE SMOOTH",
"156 311 OFFCURVE",
"147 337 OFFCURVE",
"130 369 CURVE SMOOTH",
"110 405 OFFCURVE",
"91 423 OFFCURVE",
"72 423 CURVE SMOOTH",
"68 423 OFFCURVE",
"67 421 OFFCURVE",
"67 418 CURVE SMOOTH",
"67 407 OFFCURVE",
"74 398 OFFCURVE",
"87 390 CURVE SMOOTH",
"97 384 OFFCURVE",
"105 368 OFFCURVE",
"113 342 CURVE SMOOTH",
"120 315 OFFCURVE",
"123 295 OFFCURVE",
"123 282 CURVE SMOOTH",
"123 253 OFFCURVE",
"115 234 OFFCURVE",
"97 225 CURVE",
"95 225 LINE SMOOTH",
"89 225 OFFCURVE",
"78 244 OFFCURVE",
"61 281 CURVE SMOOTH",
"53 300 OFFCURVE",
"46 317 OFFCURVE",
"41 334 CURVE SMOOTH",
"30 364 OFFCURVE",
"25 388 OFFCURVE",
"25 405 CURVE SMOOTH",
"25 432 OFFCURVE",
"33 458 OFFCURVE",
"48 484 CURVE SMOOTH",
"65 515 OFFCURVE",
"85 530 OFFCURVE",
"110 530 CURVE SMOOTH",
"139 530 OFFCURVE",
"165 502 OFFCURVE",
"186 445 CURVE SMOOTH",
"206 392 OFFCURVE",
"216 345 OFFCURVE",
"216 303 CURVE SMOOTH",
"216 284 LINE",
"140 152 OFFCURVE",
"102 74 OFFCURVE",
"102 48 CURVE SMOOTH",
"102 27 OFFCURVE",
"110 17 OFFCURVE",
"125 17 CURVE SMOOTH",
"136 17 OFFCURVE",
"150 25 OFFCURVE",
"167 41 CURVE SMOOTH",
"208 82 OFFCURVE",
"233 161 OFFCURVE",
"240 278 CURVE",
"268 326 OFFCURVE",
"304 376 OFFCURVE",
"348 428 CURVE SMOOTH",
"407 496 OFFCURVE",
"453 530 OFFCURVE",
"485 530 CURVE SMOOTH",
"513 530 OFFCURVE",
"527 508 OFFCURVE",
"527 464 CURVE SMOOTH",
"527 427 OFFCURVE",
"514 375 OFFCURVE",
"487 311 CURVE SMOOTH",
"455 237 OFFCURVE",
"375 12 OFFCURVE",
"336 -96 CURVE SMOOTH",
"318 -146 OFFCURVE",
"299 -190 OFFCURVE",
"275 -226 CURVE SMOOTH",
"246 -271 OFFCURVE",
"212 -295 OFFCURVE",
"178 -295 CURVE SMOOTH",
"134 -295 OFFCURVE",
"91 -282 OFFCURVE",
"48 -254 CURVE SMOOTH",
"17 -234 OFFCURVE",
"-4 -210 OFFCURVE",
"-18 -186 CURVE SMOOTH",
"-35 -153 OFFCURVE",
"-35 -123 OFFCURVE",
"-17 -95 CURVE SMOOTH",
"-6 -78 OFFCURVE",
"15 -65 OFFCURVE",
"45 -54 CURVE SMOOTH",
"73 -42 OFFCURVE",
"102 -37 OFFCURVE",
"133 -37 CURVE SMOOTH",
"167 -38 OFFCURVE",
"196 -45 OFFCURVE",
"218 -60 CURVE SMOOTH",
"254 -84 OFFCURVE",
"263 -109 OFFCURVE",
"244 -138 CURVE SMOOTH",
"236 -150 OFFCURVE",
"226 -160 OFFCURVE",
"213 -167 CURVE SMOOTH",
"197 -177 OFFCURVE",
"173 -186 OFFCURVE",
"141 -190 CURVE SMOOTH",
"106 -195 OFFCURVE",
"82 -192 OFFCURVE",
"68 -183 CURVE SMOOTH",
"63 -180 OFFCURVE",
"61 -177 OFFCURVE",
"64 -172 CURVE SMOOTH",
"68 -167 OFFCURVE",
"78 -160 OFFCURVE",
"95 -154 CURVE SMOOTH",
"112 -149 OFFCURVE",
"120 -145 OFFCURVE",
"123 -141 CURVE SMOOTH",
"127 -134 OFFCURVE",
"127 -130 OFFCURVE",
"122 -127 CURVE SMOOTH",
"118 -124 OFFCURVE",
"110 -124 OFFCURVE",
"95 -127 CURVE SMOOTH",
"75 -130 OFFCURVE",
"60 -140 OFFCURVE",
"50 -156 CURVE SMOOTH",
"37 -176 OFFCURVE",
"40 -193 OFFCURVE",
"59 -205 CURVE SMOOTH",
"71 -213 OFFCURVE",
"91 -219 OFFCURVE",
"119 -221 CURVE SMOOTH",
"178 -226 OFFCURVE",
"224 -206 OFFCURVE",
"254 -159 CURVE SMOOTH",
"288 -107 OFFCURVE",
"281 -65 OFFCURVE",
"232 -33 CURVE SMOOTH",
"210 -19 OFFCURVE",
"177 -11 OFFCURVE",
"134 -9 CURVE SMOOTH",
"103 -8 OFFCURVE",
"71 -15 OFFCURVE",
"40 -29 CURVE SMOOTH",
"9 -42 OFFCURVE",
"-15 -63 OFFCURVE",
"-31 -88 CURVE SMOOTH",
"-56 -126 OFFCURVE",
"-57 -168 OFFCURVE",
"-33 -213 CURVE SMOOTH",
"-12 -252 OFFCURVE",
"18 -284 OFFCURVE",
"59 -311 CURVE SMOOTH",
"105 -341 OFFCURVE",
"151 -351 OFFCURVE",
"193 -343 CURVE SMOOTH"
);
},
{
closed = 1;
nodes = (
"140 58 OFFCURVE",
"138 62 OFFCURVE",
"138 69 CURVE SMOOTH",
"138 84 OFFCURVE",
"147 108 OFFCURVE",
"166 141 CURVE SMOOTH",
"183 173 OFFCURVE",
"196 197 OFFCURVE",
"205 213 CURVE",
"202 192 OFFCURVE",
"199 173 OFFCURVE",
"197 158 CURVE SMOOTH",
"195 143 OFFCURVE",
"189 124 OFFCURVE",
"179 101 CURVE SMOOTH",
"167 72 OFFCURVE",
"155 58 OFFCURVE",
"144 58 CURVE SMOOTH"
);
}
);
width = 562;
}
);
unicode = 014A;
},
{
glyphname = O;
layers = (
{
hints = (
{
horizontal = 1;
place = "{-1, 23}";
type = Stem;
},
{
horizontal = 1;
place = "{234, 24}";
type = Stem;
},
{
horizontal = 1;
place = "{352, 24}";
type = Stem;
},
{
horizontal = 1;
place = "{460, 25}";
type = Stem;
},
{
place = "{32, 14}";
type = Stem;
},
{
place = "{288, 23}";
type = Stem;
},
{
place = "{491, 36}";
type = Stem;
}
);
layerId = "A20F32D1-A37C-460A-962C-541C205D5E83";
paths = (
{
closed = 1;
nodes = (
"527 326 OFFCURVE",
"499 385 OFFCURVE",
"441 428 CURVE SMOOTH",
"389 466 OFFCURVE",
"325 485 OFFCURVE",
"247 485 CURVE SMOOTH",
"188 485 OFFCURVE",
"138 470 OFFCURVE",
"98 438 CURVE SMOOTH",
"54 404 OFFCURVE",
"32 357 OFFCURVE",
"32 299 CURVE SMOOTH",
"32 294 OFFCURVE",
"33 292 OFFCURVE",
"36 292 CURVE SMOOTH",
"43 292 OFFCURVE",
"46 298 OFFCURVE",
"46 310 CURVE SMOOTH",
"46 355 OFFCURVE",
"64 391 OFFCURVE",
"100 419 CURVE SMOOTH",
"133 446 OFFCURVE",
"172 460 OFFCURVE",
"218 460 CURVE SMOOTH",
"291 460 OFFCURVE",
"353 443 OFFCURVE",
"403 410 CURVE SMOOTH",
"462 372 OFFCURVE",
"491 318 OFFCURVE",
"491 248 CURVE SMOOTH",
"491 188 OFFCURVE",
"471 136 OFFCURVE",
"429 90 CURVE SMOOTH",
"388 45 OFFCURVE",
"338 23 OFFCURVE",
"278 23 CURVE SMOOTH",
"212 23 OFFCURVE",
"164 33 OFFCURVE",
"135 56 CURVE SMOOTH",
"101 81 OFFCURVE",
"85 127 OFFCURVE",
"85 191 CURVE SMOOTH",
"85 232 OFFCURVE",
"95 268 OFFCURVE",
"116 299 CURVE SMOOTH",
"140 334 OFFCURVE",
"173 352 OFFCURVE",
"212 352 CURVE SMOOTH",
"262 352 OFFCURVE",
"287 339 OFFCURVE",
"287 314 CURVE SMOOTH",
"287 303 OFFCURVE",
"283 291 OFFCURVE",
"275 278 CURVE SMOOTH",
"267 265 OFFCURVE",
"258 258 OFFCURVE",
"248 258 CURVE SMOOTH",
"241 258 OFFCURVE",
"233 261 OFFCURVE",
"224 267 CURVE SMOOTH",
"215 273 OFFCURVE",
"209 275 OFFCURVE",
"207 275 CURVE SMOOTH",
"200 275 OFFCURVE",
"196 271 OFFCURVE",
"196 263 CURVE SMOOTH",
"196 257 OFFCURVE",
"203 250 OFFCURVE",
"218 243 CURVE SMOOTH",
"230 237 OFFCURVE",
"241 234 OFFCURVE",
"248 234 CURVE SMOOTH",
"265 234 OFFCURVE",
"280 243 OFFCURVE",
"292 261 CURVE SMOOTH",
"304 279 OFFCURVE",
"311 297 OFFCURVE",
"311 314 CURVE SMOOTH",
"311 356 OFFCURVE",
"278 376 OFFCURVE",
"212 376 CURVE SMOOTH",
"165 376 OFFCURVE",
"122 355 OFFCURVE",
"84 313 CURVE SMOOTH",
"46 271 OFFCURVE",
"27 227 OFFCURVE",
"27 180 CURVE SMOOTH",
"27 110 OFFCURVE",
"53 60 OFFCURVE",
"104 32 CURVE SMOOTH",
"143 10 OFFCURVE",
"201 -1 OFFCURVE",
"278 -1 CURVE SMOOTH",
"344 -1 OFFCURVE",
"402 24 OFFCURVE",
"452 75 CURVE SMOOTH",
"502 125 OFFCURVE",
"527 183 OFFCURVE",
"527 249 CURVE SMOOTH"
);
}
);
width = 554;
}
);
note = O;
unicode = 004F;
},
{
glyphname = Oslash;
layers = (
{
hints = (
{
horizontal = 1;
place = "{-61, 23}";
type = Stem;
},
{
horizontal = 1;
place = "{167, 24}";
type = Stem;
},
{
horizontal = 1;
place = "{489, 47}";
type = Stem;
},
{
place = "{50, 26}";
type = Stem;
},
{
place = "{557, 32}";
type = Stem;
}
);
layerId = "A20F32D1-A37C-460A-962C-541C205D5E83";
paths = (
{
closed = 1;
nodes = (
"590 283 OFFCURVE",
"534 372 OFFCURVE",
"424 449 CURVE",
"449 458 OFFCURVE",
"469 463 OFFCURVE",
"486 464 CURVE SMOOTH",
"499 466 OFFCURVE",
"507 466 OFFCURVE",
"511 466 CURVE",
"530 469 OFFCURVE",
"539 474 OFFCURVE",
"539 481 CURVE SMOOTH",
"539 494 OFFCURVE",
"523 501 OFFCURVE",
"491 501 CURVE SMOOTH",
"462 501 OFFCURVE",
"425 493 OFFCURVE",
"381 477 CURVE",
"313 516 OFFCURVE",
"249 536 OFFCURVE",
"190 536 CURVE SMOOTH",
"97 536 OFFCURVE",
"50 489 OFFCURVE",
"50 397 CURVE SMOOTH",
"50 347 OFFCURVE",
"60 307 OFFCURVE",
"78 278 CURVE",
"31 221 OFFCURVE",
"7 169 OFFCURVE",
"7 124 CURVE SMOOTH",
"7 61 OFFCURVE",
"41 12 OFFCURVE",
"108 -22 CURVE SMOOTH",
"161 -48 OFFCURVE",
"223 -61 OFFCURVE",
"293 -61 CURVE SMOOTH",
"376 -61 OFFCURVE",
"445 -42 OFFCURVE",
"499 -4 CURVE SMOOTH",
"559 40 OFFCURVE",
"590 101 OFFCURVE",
"590 182 CURVE SMOOTH"
);
},
{
closed = 1;
nodes = (
"227 409 OFFCURVE",
"153 359 OFFCURVE",
"100 303 CURVE",
"84 330 OFFCURVE",
"77 361 OFFCURVE",
"77 397 CURVE SMOOTH",
"77 458 OFFCURVE",
"111 489 OFFCURVE",
"179 489 CURVE SMOOTH",
"222 489 OFFCURVE",
"269 477 OFFCURVE",
"321 453 CURVE"
);
},
{
closed = 1;
nodes = (
"557 96 OFFCURVE",
"532 45 OFFCURVE",
"483 9 CURVE SMOOTH",
"441 -22 OFFCURVE",
"384 -38 OFFCURVE",
"312 -38 CURVE SMOOTH",
"255 -38 OFFCURVE",
"202 -27 OFFCURVE",
"155 -5 CURVE SMOOTH",
"94 22 OFFCURVE",
"64 62 OFFCURVE",
"64 113 CURVE SMOOTH",
"64 150 OFFCURVE",
"80 191 OFFCURVE",
"113 236 CURVE",
"166 190 OFFCURVE",
"228 167 OFFCURVE",
"300 167 CURVE SMOOTH",
"367 167 OFFCURVE",
"414 190 OFFCURVE",
"442 235 CURVE SMOOTH",
"451 249 OFFCURVE",
"455 263 OFFCURVE",
"455 277 CURVE SMOOTH",
"455 290 OFFCURVE",
"452 296 OFFCURVE",
"445 296 CURVE SMOOTH",
"434 296 OFFCURVE",
"424 283 OFFCURVE",
"413 257 CURVE SMOOTH",
"402 230 OFFCURVE",
"386 212 OFFCURVE",
"365 203 CURVE SMOOTH",
"349 195 OFFCURVE",
"325 192 OFFCURVE",
"293 192 CURVE SMOOTH",
"230 192 OFFCURVE",
"176 214 OFFCURVE",
"132 259 CURVE",
"194 331 OFFCURVE",
"272 387 OFFCURVE",
"367 428 CURVE",
"419 396 OFFCURVE",
"462 360 OFFCURVE",
"496 318 CURVE SMOOTH",
"537 267 OFFCURVE",
"557 216 OFFCURVE",
"557 164 CURVE SMOOTH"
);
}
);
width = 616;
}
);
note = Oslash;
unicode = 00D8;
},
{
glyphname = OE;
layers = (
{
hints = (
{
horizontal = 1;
place = "{-52, 25}";
type = Stem;
},
{
horizontal = 1;
place = "{-1, 23}";
type = Stem;
},
{
horizontal = 1;
place = "{234, 24}";
type = Stem;
},
{
horizontal = 1;
place = "{352, 24}";
type = Stem;
},
{
horizontal = 1;
place = "{460, 25}";
type = Stem;
},
{
horizontal = 1;
place = "{566, 24}";
type = Stem;
},
{
place = "{32, 14}";
type = Stem;
},
{
place = "{287, 23}";
type = Stem;
},
{
place = "{491, 36}";
type = Stem;
},
{
place = "{596, 38}";
type = Stem;
},
{
place = "{679, 20}";
type = Stem;
},
{
place = "{768, 31}";
type = Stem;
}
);
layerId = "A20F32D1-A37C-460A-962C-541C205D5E83";
paths = (
{
closed = 1;
nodes = (
"824 134 OFFCURVE",
"817 157 OFFCURVE",
"801 174 CURVE SMOOTH",
"785 191 OFFCURVE",
"763 199 OFFCURVE",
"734 199 CURVE SMOOTH",
"699 199 OFFCURVE",
"668 190 OFFCURVE",
"642 173 CURVE SMOOTH",
"611 152 OFFCURVE",
"596 125 OFFCURVE",
"596 92 CURVE SMOOTH",
"596 55 OFFCURVE",
"614 36 OFFCURVE",
"652 36 CURVE SMOOTH",
"664 36 OFFCURVE",
"675 40 OFFCURVE",
"685 47 CURVE SMOOTH",
"694 54 OFFCURVE",
"699 63 OFFCURVE",
"699 75 CURVE SMOOTH",
"699 80 OFFCURVE",
"698 86 OFFCURVE",
"694 93 CURVE SMOOTH",
"690 100 OFFCURVE",
"686 104 OFFCURVE",
"682 104 CURVE SMOOTH",
"678 104 OFFCURVE",
"676 101 OFFCURVE",
"676 97 CURVE SMOOTH",
"676 95 OFFCURVE",
"677 93 OFFCURVE",
"678 90 CURVE SMOOTH",
"679 87 OFFCURVE",
"680 85 OFFCURVE",
"680 83 CURVE SMOOTH",
"680 68 OFFCURVE",
"670 60 OFFCURVE",
"652 60 CURVE SMOOTH",
"640 60 OFFCURVE",
"634 69 OFFCURVE",
"634 86 CURVE SMOOTH",
"634 112 OFFCURVE",
"645 133 OFFCURVE",
"666 150 CURVE SMOOTH",
"686 166 OFFCURVE",
"709 175 OFFCURVE",
"734 175 CURVE SMOOTH",
"745 175 OFFCURVE",
"757 166 OFFCURVE",
"769 150 CURVE SMOOTH",
"781 133 OFFCURVE",
"787 119 OFFCURVE",
"787 108 CURVE SMOOTH",
"787 66 OFFCURVE",
"767 32 OFFCURVE",
"727 6 CURVE SMOOTH",
"693 -16 OFFCURVE",
"653 -27 OFFCURVE",
"608 -27 CURVE SMOOTH",
"516 -27 OFFCURVE",
"466 9 OFFCURVE",
"459 81 CURVE",
"505 131 OFFCURVE",
"527 187 OFFCURVE",
"527 249 CURVE SMOOTH",
"527 260 OFFCURVE",
"527 270 OFFCURVE",
"526 280 CURVE",
"544 262 OFFCURVE",
"569 253 OFFCURVE",
"599 253 CURVE SMOOTH",
"689 253 OFFCURVE",
"734 271 OFFCURVE",
"734 306 CURVE SMOOTH",
"734 323 OFFCURVE",
"726 336 OFFCURVE",
"708 347 CURVE SMOOTH",
"693 355 OFFCURVE",
"677 360 OFFCURVE",
"659 360 CURVE SMOOTH",
"614 360 OFFCURVE",
"572 348 OFFCURVE",
"533 325 CURVE",
"526 345 OFFCURVE",
"522 368 OFFCURVE",
"522 395 CURVE SMOOTH",
"522 436 OFFCURVE",
"540 475 OFFCURVE",
"575 511 CURVE SMOOTH",
"611 548 OFFCURVE",
"649 566 OFFCURVE",
"689 566 CURVE SMOOTH",
"709 566 OFFCURVE",
"727 560 OFFCURVE",
"743 548 CURVE SMOOTH",
"760 536 OFFCURVE",
"769 521 OFFCURVE",
"769 502 CURVE SMOOTH",
"769 488 OFFCURVE",
"762 476 OFFCURVE",
"748 464 CURVE SMOOTH",
"733 453 OFFCURVE",
"726 446 OFFCURVE",
"726 442 CURVE SMOOTH",
"726 437 OFFCURVE",
"729 434 OFFCURVE",
"734 434 CURVE SMOOTH",
"749 434 OFFCURVE",
"763 441 OFFCURVE",
"778 457 CURVE SMOOTH",
"792 472 OFFCURVE",
"799 487 OFFCURVE",
"799 501 CURVE SMOOTH",
"799 527 OFFCURVE",
"787 548 OFFCURVE",
"761 566 CURVE SMOOTH",
"739 582 OFFCURVE",
"714 590 OFFCURVE",
"688 590 CURVE SMOOTH",
"632 590 OFFCURVE",
"583 572 OFFCURVE",
"540 536 CURVE SMOOTH",
"497 499 OFFCURVE",
"475 453 OFFCURVE",
"473 399 CURVE",
"420 456 OFFCURVE",
"344 485 OFFCURVE",
"247 485 CURVE SMOOTH",
"186 485 OFFCURVE",
"136 470 OFFCURVE",
"96 438 CURVE SMOOTH",
"53 404 OFFCURVE",
"32 358 OFFCURVE",
"32 299 CURVE SMOOTH",
"32 294 OFFCURVE",
"33 292 OFFCURVE",
"36 292 CURVE SMOOTH",
"43 292 OFFCURVE",
"46 298 OFFCURVE",
"46 310 CURVE SMOOTH",
"46 355 OFFCURVE",
"64 391 OFFCURVE",
"100 419 CURVE SMOOTH",
"133 446 OFFCURVE",
"172 460 OFFCURVE",
"218 460 CURVE SMOOTH",
"291 460 OFFCURVE",
"353 443 OFFCURVE",
"403 410 CURVE SMOOTH",
"462 372 OFFCURVE",
"491 318 OFFCURVE",
"491 248 CURVE SMOOTH",
"491 188 OFFCURVE",
"471 136 OFFCURVE",
"429 90 CURVE SMOOTH",
"388 45 OFFCURVE",
"338 23 OFFCURVE",
"278 23 CURVE SMOOTH",
"212 23 OFFCURVE",
"164 33 OFFCURVE",
"135 56 CURVE SMOOTH",
"101 81 OFFCURVE",
"85 127 OFFCURVE",
"85 191 CURVE SMOOTH",
"85 232 OFFCURVE",
"95 268 OFFCURVE",
"116 299 CURVE SMOOTH",
"140 334 OFFCURVE",
"173 352 OFFCURVE",
"212 352 CURVE SMOOTH",
"262 352 OFFCURVE",
"287 339 OFFCURVE",
"287 314 CURVE SMOOTH",
"287 304 OFFCURVE",
"283 292 OFFCURVE",
"275 279 CURVE SMOOTH",
"266 265 OFFCURVE",
"257 258 OFFCURVE",
"248 258 CURVE SMOOTH",
"242 258 OFFCURVE",
"234 261 OFFCURVE",
"225 267 CURVE SMOOTH",
"215 273 OFFCURVE",
"209 275 OFFCURVE",
"207 275 CURVE SMOOTH",
"200 275 OFFCURVE",
"196 271 OFFCURVE",
"196 263 CURVE SMOOTH",
"196 256 OFFCURVE",
"203 250 OFFCURVE",
"216 243 CURVE SMOOTH",
"229 237 OFFCURVE",
"240 234 OFFCURVE",
"248 234 CURVE SMOOTH",
"265 234 OFFCURVE",
"280 243 OFFCURVE",
"292 261 CURVE SMOOTH",
"304 279 OFFCURVE",
"311 297 OFFCURVE",
"311 314 CURVE SMOOTH",
"311 356 OFFCURVE",
"278 376 OFFCURVE",
"212 376 CURVE SMOOTH",
"165 376 OFFCURVE",
"122 355 OFFCURVE",
"84 313 CURVE SMOOTH",
"46 271 OFFCURVE",
"27 227 OFFCURVE",
"27 180 CURVE SMOOTH",
"27 110 OFFCURVE",
"53 60 OFFCURVE",
"104 32 CURVE SMOOTH",
"143 10 OFFCURVE",
"201 -1 OFFCURVE",
"278 -1 CURVE SMOOTH",
"328 -1 OFFCURVE",
"374 15 OFFCURVE",
"418 46 CURVE",
"439 -20 OFFCURVE",
"502 -52 OFFCURVE",
"608 -52 CURVE SMOOTH",
"659 -52 OFFCURVE",
"707 -39 OFFCURVE",
"750 -13 CURVE SMOOTH",
"800 18 OFFCURVE",
"824 57 OFFCURVE",
"824 105 CURVE SMOOTH"
);
},
{
closed = 1;
nodes = (
"672 303 OFFCURVE",
"666 292 OFFCURVE",
"653 284 CURVE SMOOTH",
"639 276 OFFCURVE",
"625 272 OFFCURVE",
"609 272 CURVE SMOOTH",
"582 272 OFFCURVE",
"561 282 OFFCURVE",
"546 302 CURVE",
"577 328 OFFCURVE",
"612 341 OFFCURVE",
"651 341 CURVE SMOOTH",
"665 341 OFFCURVE",
"672 333 OFFCURVE",
"672 318 CURVE SMOOTH"
);
}
);
width = 824;
}
);
note = OE;
unicode = 0152;
},
{
glyphname = P;
layers = (
{
hints = (
{
horizontal = 1;
place = "{95, 28}";
type = Stem;
},
{
horizontal = 1;
place = "{229, 20}";
type = Stem;
},
{
horizontal = 1;
place = "{617, -20}";
target = down;
type = TopGhost;
},
{
place = "{11, 27}";
type = Stem;
},
{
place = "{156, 44}";
type = Stem;
},
{
place = "{346, 20}";
type = Stem;
},
{
place = "{546, 49}";
type = Stem;
}
);
layerId = "A20F32D1-A37C-460A-962C-541C205D5E83";
paths = (
{
closed = 1;
nodes = (
"595 509 OFFCURVE",
"572 548 OFFCURVE",
"526 578 CURVE SMOOTH",
"485 604 OFFCURVE",
"440 617 OFFCURVE",
"391 617 CURVE SMOOTH",
"311 617 OFFCURVE",
"235 592 OFFCURVE",
"164 540 CURVE SMOOTH",
"93 488 OFFCURVE",
"44 424 OFFCURVE",
"18 348 CURVE SMOOTH",
"13 334 OFFCURVE",
"11 320 OFFCURVE",
"11 305 CURVE SMOOTH",
"11 254 OFFCURVE",
"38 229 OFFCURVE",
"91 229 CURVE SMOOTH",
"96 229 OFFCURVE",
"123 233 OFFCURVE",
"170 243 CURVE",
"161 164 OFFCURVE",
"156 94 OFFCURVE",
"156 31 CURVE SMOOTH",
"156 -20 OFFCURVE",
"158 -54 OFFCURVE",
"163 -73 CURVE SMOOTH",
"165 -82 OFFCURVE",
"172 -90 OFFCURVE",
"183 -99 CURVE SMOOTH",
"194 -107 OFFCURVE",
"204 -111 OFFCURVE",
"213 -111 CURVE SMOOTH",
"227 -111 OFFCURVE",
"240 -99 OFFCURVE",
"254 -75 CURVE SMOOTH",
"266 -53 OFFCURVE",
"273 -35 OFFCURVE",
"273 -20 CURVE SMOOTH",
"273 -13 OFFCURVE",
"271 -10 OFFCURVE",
"268 -10 CURVE",
"268 -10 OFFCURVE",
"260 -23 OFFCURVE",
"244 -48 CURVE SMOOTH",
"229 -73 OFFCURVE",
"218 -86 OFFCURVE",
"210 -86 CURVE",
"203 -65 OFFCURVE",
"200 -32 OFFCURVE",
"200 13 CURVE SMOOTH",
"200 92 OFFCURVE",
"208 176 OFFCURVE",
"223 265 CURVE",
"256 281 OFFCURVE",
"286 304 OFFCURVE",
"315 334 CURVE SMOOTH",
"349 369 OFFCURVE",
"365 402 OFFCURVE",
"365 431 CURVE SMOOTH",
"365 437 OFFCURVE",
"364 445 OFFCURVE",
"361 454 CURVE SMOOTH",
"357 465 OFFCURVE",
"353 471 OFFCURVE",
"349 471 CURVE SMOOTH",
"347 471 OFFCURVE",
"346 467 OFFCURVE",
"346 461 CURVE SMOOTH",
"346 449 LINE SMOOTH",
"346 396 OFFCURVE",
"308 348 OFFCURVE",
"231 305 CURVE",
"249 401 OFFCURVE",
"280 469 OFFCURVE",
"324 509 CURVE SMOOTH",
"336 520 OFFCURVE",
"342 528 OFFCURVE",
"342 532 CURVE SMOOTH",
"342 534 OFFCURVE",
"340 536 OFFCURVE",
"335 536 CURVE SMOOTH",
"326 536 OFFCURVE",
"316 531 OFFCURVE",
"302 524 CURVE SMOOTH",
"232 484 OFFCURVE",
"190 401 OFFCURVE",
"176 275 CURVE",
"168 269 OFFCURVE",
"152 263 OFFCURVE",
"129 257 CURVE SMOOTH",
"105 251 OFFCURVE",
"87 248 OFFCURVE",
"75 248 CURVE SMOOTH",
"50 248 OFFCURVE",
"38 262 OFFCURVE",
"38 290 CURVE SMOOTH",
"38 313 OFFCURVE",
"46 341 OFFCURVE",
"62 373 CURVE SMOOTH",
"98 442 OFFCURVE",
"145 497 OFFCURVE",
"204 536 CURVE SMOOTH",
"266 577 OFFCURVE",
"335 598 OFFCURVE",
"411 598 CURVE SMOOTH",
"501 598 OFFCURVE",
"546 560 OFFCURVE",
"546 485 CURVE SMOOTH",
"546 470 OFFCURVE",
"544 453 OFFCURVE",
"540 435 CURVE SMOOTH",
"518 339 OFFCURVE",
"466 257 OFFCURVE",
"384 191 CURVE SMOOTH",
"329 146 OFFCURVE",
"286 123 OFFCURVE",
"255 123 CURVE SMOOTH",
"247 123 OFFCURVE",
"239 124 OFFCURVE",
"231 126 CURVE",
"231 131 LINE SMOOTH",
"231 140 OFFCURVE",
"237 148 OFFCURVE",
"248 157 CURVE SMOOTH",
"260 165 OFFCURVE",
"266 171 OFFCURVE",
"266 175 CURVE SMOOTH",
"266 178 OFFCURVE",
"264 179 OFFCURVE",
"260 179 CURVE SMOOTH",
"249 179 OFFCURVE",
"239 174 OFFCURVE",
"228 163 CURVE SMOOTH",
"218 153 OFFCURVE",
"212 142 OFFCURVE",
"212 131 CURVE SMOOTH",
"212 121 OFFCURVE",
"218 112 OFFCURVE",
"229 105 CURVE SMOOTH",
"238 99 OFFCURVE",
"248 95 OFFCURVE",
"259 95 CURVE SMOOTH",
"309 95 OFFCURVE",
"378 136 OFFCURVE",
"466 215 CURVE SMOOTH",
"498 244 OFFCURVE",
"527 281 OFFCURVE",
"553 328 CURVE SMOOTH",
"581 379 OFFCURVE",
"595 424 OFFCURVE",
"595 462 CURVE SMOOTH"
);
}
);
width = 589;
}
);
note = P;
unicode = 0050;
},
{
glyphname = Thorn;
lastChange = "2021-10-01 06:05:15 +0000";
layers = (
{
hints = (
{
horizontal = 1;
place = "{122, 22}";
type = Stem;
},
{
horizontal = 1;
place = "{229, 16}";
type = Stem;
},
{
horizontal = 1;
place = "{528, 15}";
type = Stem;
},
{
place = "{32, 35}";
type = Stem;
},
{
place = "{157, 41}";
type = Stem;
},
{
place = "{316, 15}";
type = Stem;
},
{
place = "{477, 39}";
type = Stem;
}
);
layerId = "A20F32D1-A37C-460A-962C-541C205D5E83";
paths = (
{
closed = 1;
nodes = (
"508 412 OFFCURVE",
"489 443 OFFCURVE",
"452 467 CURVE SMOOTH",
"420 488 OFFCURVE",
"383 498 OFFCURVE",
"343 498 CURVE SMOOTH",
"323 498 OFFCURVE",
"302 495 OFFCURVE",
"281 491 CURVE",
"284 500 OFFCURVE",
"329 589 OFFCURVE",
"349 623 CURVE SMOOTH",
"367 651 OFFCURVE",
"363 671 OFFCURVE",
"353 672 CURVE SMOOTH",
"339 674 OFFCURVE",
"331 669 OFFCURVE",
"320 658 CURVE SMOOTH",
"296 632 OFFCURVE",
"263 570 OFFCURVE",
"231 475 CURVE",
"138 436 OFFCURVE",
"75 371 OFFCURVE",
"42 280 CURVE SMOOTH",
"30 245 OFFCURVE",
"23 224 OFFCURVE",
"23 218 CURVE SMOOTH",
"23 195 OFFCURVE",
"44 184 OFFCURVE",
"84 184 CURVE SMOOTH",
"98 184 OFFCURVE",
"125 188 OFFCURVE",
"166 196 CURVE",
"154 109 OFFCURVE",
"153 29 OFFCURVE",
"153 -48 CURVE SMOOTH",
"153 -131 OFFCURVE",
"159 -158 OFFCURVE",
"163 -172 CURVE SMOOTH",
"165 -181 OFFCURVE",
"172 -189 OFFCURVE",
"183 -198 CURVE SMOOTH",
"194 -206 OFFCURVE",
"204 -210 OFFCURVE",
"213 -210 CURVE SMOOTH",
"227 -210 OFFCURVE",
"240 -198 OFFCURVE",
"254 -174 CURVE SMOOTH",
"266 -152 OFFCURVE",
"273 -134 OFFCURVE",
"273 -119 CURVE SMOOTH",
"273 -112 OFFCURVE",
"271 -109 OFFCURVE",
"268 -109 CURVE",
"268 -109 OFFCURVE",
"260 -122 OFFCURVE",
"244 -147 CURVE SMOOTH",
"229 -172 OFFCURVE",
"218 -185 OFFCURVE",
"210 -185 CURVE",
"203 -162 OFFCURVE",
"199 -124 OFFCURVE",
"199 -69 CURVE SMOOTH",
"199 67 OFFCURVE",
"196 145 OFFCURVE",
"208 213 CURVE",
"234 227 OFFCURVE",
"259 245 OFFCURVE",
"282 269 CURVE SMOOTH",
"309 297 OFFCURVE",
"322 323 OFFCURVE",
"322 347 CURVE SMOOTH",
"322 368 OFFCURVE",
"318 379 OFFCURVE",
"310 379 CURVE SMOOTH",
"307 379 OFFCURVE",
"306 376 OFFCURVE",
"306 370 CURVE SMOOTH",
"306 369 OFFCURVE",
"306 368 OFFCURVE",
"307 366 CURVE",
"307 363 LINE SMOOTH",
"307 320 OFFCURVE",
"276 281 OFFCURVE",
"215 247 CURVE",
"228 316 OFFCURVE",
"247 389 OFFCURVE",
"272 468 CURVE",
"303 478 OFFCURVE",
"332 482 OFFCURVE",
"359 482 CURVE SMOOTH",
"432 482 OFFCURVE",
"469 452 OFFCURVE",
"469 392 CURVE SMOOTH",
"469 350 OFFCURVE",
"456 305 OFFCURVE",
"428 259 CURVE SMOOTH",
"404 218 OFFCURVE",
"374 183 OFFCURVE",
"338 153 CURVE SMOOTH",
"294 117 OFFCURVE",
"259 99 OFFCURVE",
"233 99 CURVE SMOOTH",
"227 99 OFFCURVE",
"221 100 OFFCURVE",
"215 103 CURVE",
"215 105 LINE SMOOTH",
"215 112 OFFCURVE",
"219 119 OFFCURVE",
"229 126 CURVE SMOOTH",
"238 132 OFFCURVE",
"243 137 OFFCURVE",
"243 140 CURVE SMOOTH",
"243 143 OFFCURVE",
"241 145 OFFCURVE",
"238 145 CURVE SMOOTH",
"229 145 OFFCURVE",
"221 141 OFFCURVE",
"212 132 CURVE SMOOTH",
"204 123 OFFCURVE",
"200 115 OFFCURVE",
"200 106 CURVE SMOOTH",
"200 87 OFFCURVE",
"212 77 OFFCURVE",
"238 77 CURVE SMOOTH",
"277 77 OFFCURVE",
"332 109 OFFCURVE",
"403 173 CURVE SMOOTH",
"429 196 OFFCURVE",
"453 226 OFFCURVE",
"474 265 CURVE SMOOTH",
"496 307 OFFCURVE",
"508 343 OFFCURVE",
"508 373 CURVE SMOOTH"
);
},
{
closed = 1;
nodes = (
"196 371 OFFCURVE",
"179 296 OFFCURVE",
"171 222 CURVE",
"164 218 OFFCURVE",
"151 213 OFFCURVE",
"132 207 CURVE SMOOTH",
"113 202 OFFCURVE",
"99 200 OFFCURVE",
"89 200 CURVE SMOOTH",
"69 200 OFFCURVE",
"59 211 OFFCURVE",
"59 233 CURVE SMOOTH",
"59 252 OFFCURVE",
"65 274 OFFCURVE",
"79 301 CURVE SMOOTH",
"113 369 OFFCURVE",
"161 418 OFFCURVE",
"221 448 CURVE"
);
}
);
width = 589;
}
);
note = Thorn;
unicode = 00DE;
},
{
glyphname = Q;
layers = (
{
hints = (
{
horizontal = 1;
place = "{-182, 19}";
type = Stem;
},
{
horizontal = 1;
place = "{-46, 23}";
type = Stem;
},
{
horizontal = 1;
place = "{12, 49}";
type = Stem;
},
{
horizontal = 1;
place = "{285, 18}";
type = Stem;
},
{
horizontal = 1;
place = "{424, 18}";
type = Stem;
},
{
horizontal = 1;
place = "{483, 18}";
type = Stem;
},
{
place = "{29, 56}";
type = Stem;
},
{
place = "{173, 36}";
type = Stem;
},
{
place = "{453, 36}";
type = Stem;
},
{
place = "{570, 38}";
type = Stem;
}
);
layerId = "A20F32D1-A37C-460A-962C-541C205D5E83";
paths = (
{
closed = 1;
nodes = (
"608 -83 OFFCURVE",
"598 -65 OFFCURVE",
"578 -48 CURVE SMOOTH",
"559 -31 OFFCURVE",
"539 -23 OFFCURVE",
"519 -23 CURVE SMOOTH",
"498 -23 OFFCURVE",
"487 -33 OFFCURVE",
"487 -55 CURVE SMOOTH",
"487 -62 OFFCURVE",
"490 -71 OFFCURVE",
"495 -83 CURVE SMOOTH",
"501 -96 OFFCURVE",
"506 -104 OFFCURVE",
"511 -104 CURVE SMOOTH",
"515 -104 OFFCURVE",
"518 -101 OFFCURVE",
"518 -95 CURVE SMOOTH",
"518 -90 OFFCURVE",
"516 -84 OFFCURVE",
"512 -76 CURVE SMOOTH",
"509 -67 OFFCURVE",
"507 -61 OFFCURVE",
"507 -56 CURVE SMOOTH",
"507 -49 OFFCURVE",
"509 -46 OFFCURVE",
"515 -46 CURVE SMOOTH",
"525 -46 OFFCURVE",
"537 -52 OFFCURVE",
"550 -65 CURVE SMOOTH",
"563 -78 OFFCURVE",
"570 -90 OFFCURVE",
"570 -100 CURVE SMOOTH",
"570 -119 OFFCURVE",
"564 -134 OFFCURVE",
"552 -145 CURVE SMOOTH",
"540 -157 OFFCURVE",
"525 -163 OFFCURVE",
"507 -163 CURVE SMOOTH",
"464 -163 OFFCURVE",
"427 -140 OFFCURVE",
"398 -95 CURVE SMOOTH",
"391 -85 OFFCURVE",
"371 -44 OFFCURVE",
"340 27 CURVE",
"386 43 OFFCURVE",
"423 70 OFFCURVE",
"449 108 CURVE SMOOTH",
"476 147 OFFCURVE",
"489 191 OFFCURVE",
"489 240 CURVE SMOOTH",
"489 300 OFFCURVE",
"468 348 OFFCURVE",
"427 386 CURVE SMOOTH",
"386 423 OFFCURVE",
"335 442 OFFCURVE",
"275 442 CURVE SMOOTH",
"207 442 OFFCURVE",
"173 414 OFFCURVE",
"173 359 CURVE SMOOTH",
"173 310 OFFCURVE",
"196 285 OFFCURVE",
"242 285 CURVE SMOOTH",
"257 285 OFFCURVE",
"273 288 OFFCURVE",
"290 295 CURVE SMOOTH",
"311 304 OFFCURVE",
"321 315 OFFCURVE",
"321 327 CURVE SMOOTH",
"321 332 OFFCURVE",
"318 335 OFFCURVE",
"312 335 CURVE",
"312 335 OFFCURVE",
"306 330 OFFCURVE",
"293 319 CURVE SMOOTH",
"279 309 OFFCURVE",
"266 303 OFFCURVE",
"253 303 CURVE SMOOTH",
"224 303 OFFCURVE",
"209 325 OFFCURVE",
"209 367 CURVE SMOOTH",
"209 405 OFFCURVE",
"233 424 OFFCURVE",
"280 424 CURVE SMOOTH",
"326 424 OFFCURVE",
"366 408 OFFCURVE",
"401 377 CURVE SMOOTH",
"435 346 OFFCURVE",
"453 308 OFFCURVE",
"453 262 CURVE SMOOTH",
"453 220 OFFCURVE",
"440 182 OFFCURVE",
"414 148 CURVE SMOOTH",
"389 113 OFFCURVE",
"356 89 OFFCURVE",
"316 73 CURVE",
"305 91 OFFCURVE",
"289 109 OFFCURVE",
"269 129 CURVE SMOOTH",
"244 153 OFFCURVE",
"224 166 OFFCURVE",
"210 166 CURVE SMOOTH",
"204 166 OFFCURVE",
"197 162 OFFCURVE",
"190 155 CURVE SMOOTH",
"183 148 OFFCURVE",
"180 141 OFFCURVE",
"180 136 CURVE SMOOTH",
"180 132 OFFCURVE",
"182 130 OFFCURVE",
"185 129 CURVE",
"224 108 OFFCURVE",
"254 86 OFFCURVE",
"275 62 CURVE",
"266 61 OFFCURVE",
"257 60 OFFCURVE",
"248 60 CURVE SMOOTH",
"197 60 OFFCURVE",
"156 82 OFFCURVE",
"125 124 CURVE SMOOTH",
"98 162 OFFCURVE",
"85 208 OFFCURVE",
"85 262 CURVE SMOOTH",
"85 329 OFFCURVE",
"107 382 OFFCURVE",
"152 423 CURVE SMOOTH",
"196 463 OFFCURVE",
"252 483 OFFCURVE",
"319 483 CURVE SMOOTH",
"323 483 OFFCURVE",
"329 483 OFFCURVE",
"337 482 CURVE SMOOTH",
"344 481 OFFCURVE",
"350 481 OFFCURVE",
"355 481 CURVE SMOOTH",
"362 481 OFFCURVE",
"365 484 OFFCURVE",
"365 490 CURVE SMOOTH",
"365 494 OFFCURVE",
"362 498 OFFCURVE",
"356 501 CURVE",
"333 503 OFFCURVE",
"313 503 OFFCURVE",
"297 503 CURVE SMOOTH",
"210 503 OFFCURVE",
"144 481 OFFCURVE",
"98 437 CURVE SMOOTH",
"52 392 OFFCURVE",
"29 327 OFFCURVE",
"29 241 CURVE SMOOTH",
"29 173 OFFCURVE",
"49 118 OFFCURVE",
"90 76 CURVE SMOOTH",
"130 33 OFFCURVE",
"184 12 OFFCURVE",
"252 12 CURVE SMOOTH",
"271 12 OFFCURVE",
"289 14 OFFCURVE",
"307 18 CURVE",
"333 -26 OFFCURVE",
"358 -69 OFFCURVE",
"383 -113 CURVE",
"416 -159 OFFCURVE",
"458 -182 OFFCURVE",
"508 -182 CURVE SMOOTH",
"533 -182 OFFCURVE",
"556 -175 OFFCURVE",
"575 -162 CURVE SMOOTH",
"597 -147 OFFCURVE",
"608 -127 OFFCURVE",
"608 -102 CURVE SMOOTH"
);
}
);
width = 513;
}
);
note = Q;
unicode = 0051;
},
{
glyphname = R;
layers = (
{
hints = (
{
horizontal = 1;
place = "{-74, 19}";
type = Stem;
},
{
horizontal = 1;
place = "{83, 27}";
type = Stem;
},
{
horizontal = 1;
place = "{209, 16}";
type = Stem;
},
{
horizontal = 1;
place = "{304, 23}";
type = Stem;
},
{
horizontal = 1;
place = "{609, 23}";
type = Stem;
},
{
place = "{37, 20}";
type = Stem;
},
{
place = "{126, 18}";
type = Stem;
},
{
place = "{211, 40}";
type = Stem;
},
{
place = "{269, 21}";
type = Stem;
},
{
place = "{576, 19}";
type = Stem;
}
);
layerId = "A20F32D1-A37C-460A-962C-541C205D5E83";
paths = (
{
closed = 1;
nodes = (
"595 45 OFFCURVE",
"585 75 OFFCURVE",
"565 102 CURVE SMOOTH",
"544 130 OFFCURVE",
"516 144 OFFCURVE",
"482 144 CURVE SMOOTH",
"472 144 OFFCURVE",
"466 142 OFFCURVE",
"466 137 CURVE SMOOTH",
"466 133 OFFCURVE",
"474 130 OFFCURVE",
"489 126 CURVE SMOOTH",
"498 124 OFFCURVE",
"508 121 OFFCURVE",
"518 119 CURVE",
"557 100 OFFCURVE",
"576 65 OFFCURVE",
"576 13 CURVE SMOOTH",
"576 -42 OFFCURVE",
"552 -69 OFFCURVE",
"505 -69 CURVE SMOOTH",
"453 -69 OFFCURVE",
"406 24 OFFCURVE",
"365 210 CURVE",
"371 209 OFFCURVE",
"380 209 OFFCURVE",
"390 209 CURVE SMOOTH",
"446 209 OFFCURVE",
"491 222 OFFCURVE",
"525 248 CURVE SMOOTH",
"562 276 OFFCURVE",
"580 318 OFFCURVE",
"580 374 CURVE SMOOTH",
"580 401 OFFCURVE",
"576 429 OFFCURVE",
"569 458 CURVE SMOOTH",
"554 514 OFFCURVE",
"520 557 OFFCURVE",
"468 589 CURVE SMOOTH",
"421 617 OFFCURVE",
"366 632 OFFCURVE",
"305 632 CURVE SMOOTH",
"234 632 OFFCURVE",
"166 606 OFFCURVE",
"102 554 CURVE SMOOTH",
"34 500 OFFCURVE",
"0 438 OFFCURVE",
"0 368 CURVE SMOOTH",
"0 362 OFFCURVE",
"2 358 OFFCURVE",
"7 358 CURVE SMOOTH",
"13 358 OFFCURVE",
"17 363 OFFCURVE",
"20 373 CURVE SMOOTH",
"33 412 OFFCURVE",
"44 440 OFFCURVE",
"52 455 CURVE SMOOTH",
"79 502 OFFCURVE",
"115 539 OFFCURVE",
"161 567 CURVE SMOOTH",
"206 595 OFFCURVE",
"256 608 OFFCURVE",
"310 608 CURVE SMOOTH",
"398 608 OFFCURVE",
"459 574 OFFCURVE",
"493 504 CURVE SMOOTH",
"513 464 OFFCURVE",
"523 423 OFFCURVE",
"523 380 CURVE SMOOTH",
"523 337 OFFCURVE",
"513 301 OFFCURVE",
"493 273 CURVE SMOOTH",
"471 241 OFFCURVE",
"438 225 OFFCURVE",
"396 225 CURVE SMOOTH",
"385 225 OFFCURVE",
"373 226 OFFCURVE",
"360 229 CURVE",
"343 294 OFFCURVE",
"323 327 OFFCURVE",
"300 327 CURVE SMOOTH",
"291 327 OFFCURVE",
"283 322 OFFCURVE",
"278 313 CURVE SMOOTH",
"272 303 OFFCURVE",
"269 294 OFFCURVE",
"269 284 CURVE SMOOTH",
"269 268 OFFCURVE",
"276 253 OFFCURVE",
"289 239 CURVE SMOOTH",
"303 226 OFFCURVE",
"318 217 OFFCURVE",
"334 213 CURVE",
"353 82 LINE SMOOTH",
"361 28 OFFCURVE",
"373 -11 OFFCURVE",
"389 -36 CURVE SMOOTH",
"411 -70 OFFCURVE",
"446 -87 OFFCURVE",
"493 -87 CURVE SMOOTH",
"524 -87 OFFCURVE",
"549 -79 OFFCURVE",
"568 -62 CURVE SMOOTH",
"586 -45 OFFCURVE",
"595 -21 OFFCURVE",
"595 10 CURVE SMOOTH"
);
},
{
closed = 1;
nodes = (
"250 196 OFFCURVE",
"238 277 OFFCURVE",
"216 383 CURVE SMOOTH",
"211 405 OFFCURVE",
"208 428 OFFCURVE",
"204 452 CURVE",
"198 473 OFFCURVE",
"182 483 OFFCURVE",
"158 483 CURVE SMOOTH",
"153 483 OFFCURVE",
"150 480 OFFCURVE",
"149 473 CURVE",
"165 407 OFFCURVE",
"177 361 OFFCURVE",
"182 335 CURVE SMOOTH",
"193 278 OFFCURVE",
"200 238 OFFCURVE",
"203 216 CURVE SMOOTH",
"208 185 OFFCURVE",
"211 157 OFFCURVE",
"211 131 CURVE SMOOTH",
"211 79 OFFCURVE",
"201 32 OFFCURVE",
"181 -11 CURVE SMOOTH",
"175 -23 OFFCURVE",
"173 -29 OFFCURVE",
"172 -31 CURVE",
"158 -47 OFFCURVE",
"141 -55 OFFCURVE",
"121 -55 CURVE SMOOTH",
"104 -55 OFFCURVE",
"90 -48 OFFCURVE",
"77 -34 CURVE SMOOTH",
"63 -20 OFFCURVE",
"57 -5 OFFCURVE",
"57 12 CURVE SMOOTH",
"57 27 OFFCURVE",
"61 42 OFFCURVE",
"69 57 CURVE SMOOTH",
"79 74 OFFCURVE",
"90 83 OFFCURVE",
"104 83 CURVE SMOOTH",
"117 83 OFFCURVE",
"124 74 OFFCURVE",
"126 55 CURVE SMOOTH",
"127 36 OFFCURVE",
"130 27 OFFCURVE",
"135 27 CURVE SMOOTH",
"141 27 OFFCURVE",
"144 35 OFFCURVE",
"144 50 CURVE SMOOTH",
"144 66 OFFCURVE",
"141 79 OFFCURVE",
"136 89 CURVE SMOOTH",
"129 103 OFFCURVE",
"118 110 OFFCURVE",
"104 110 CURVE SMOOTH",
"101 110 LINE",
"58 90 OFFCURVE",
"37 55 OFFCURVE",
"37 5 CURVE SMOOTH",
"37 -20 OFFCURVE",
"44 -39 OFFCURVE",
"59 -53 CURVE SMOOTH",
"73 -67 OFFCURVE",
"92 -74 OFFCURVE",
"116 -74 CURVE SMOOTH",
"162 -74 OFFCURVE",
"198 -49 OFFCURVE",
"222 2 CURVE SMOOTH",
"241 41 OFFCURVE",
"250 87 OFFCURVE",
"250 139 CURVE SMOOTH"
);
},
{
closed = 1;
nodes = (
"319 239 OFFCURVE",
"312 244 OFFCURVE",
"307 248 CURVE SMOOTH",
"296 255 OFFCURVE",
"290 266 OFFCURVE",
"290 278 CURVE SMOOTH",
"290 295 OFFCURVE",
"295 303 OFFCURVE",
"304 303 CURVE SMOOTH",
"313 303 OFFCURVE",
"319 294 OFFCURVE",
"322 275 CURVE SMOOTH",
"325 256 OFFCURVE",
"327 242 OFFCURVE",
"329 234 CURVE"
);
}
);
width = 611;
}
);
note = R;
unicode = 0052;
},
{
glyphname = S;
layers = (
{
hints = (
{
horizontal = 1;
place = "{-40, 11}";
type = Stem;
},
{
horizontal = 1;
place = "{83, 21}";
type = Stem;
},
{
horizontal = 1;
place = "{200, 20}";
type = Stem;
},
{
horizontal = 1;
place = "{448, 36}";
type = Stem;
},
{
place = "{19, 30}";
type = Stem;
},
{
place = "{235, 23}";
type = Stem;
},
{
place = "{327, 13}";
type = Stem;
}
);
layerId = "A20F32D1-A37C-460A-962C-541C205D5E83";
paths = (
{
closed = 1;
nodes = (
"451 145 OFFCURVE",
"447 156 OFFCURVE",
"441 167 CURVE SMOOTH",
"416 210 OFFCURVE",
"368 242 OFFCURVE",
"296 258 CURVE SMOOTH",
"214 277 OFFCURVE",
"152 288 OFFCURVE",
"111 296 CURVE SMOOTH",
"49 308 OFFCURVE",
"19 326 OFFCURVE",
"19 347 CURVE SMOOTH",
"19 370 OFFCURVE",
"43 391 OFFCURVE",
"92 410 CURVE SMOOTH",
"155 436 OFFCURVE",
"218 448 OFFCURVE",
"282 448 CURVE SMOOTH",
"305 448 OFFCURVE",
"323 446 OFFCURVE",
"338 441 CURVE",
"358 390 OFFCURVE",
"382 365 OFFCURVE",
"409 365 CURVE SMOOTH",
"426 365 OFFCURVE",
"435 373 OFFCURVE",
"435 389 CURVE SMOOTH",
"435 415 OFFCURVE",
"406 443 OFFCURVE",
"348 472 CURVE",
"343 481 OFFCURVE",
"340 494 OFFCURVE",
"340 510 CURVE SMOOTH",
"340 513 OFFCURVE",
"341 518 OFFCURVE",
"342 523 CURVE SMOOTH",
"342 528 OFFCURVE",
"343 532 OFFCURVE",
"343 535 CURVE SMOOTH",
"343 537 OFFCURVE",
"342 538 OFFCURVE",
"340 538 CURVE SMOOTH",
"332 538 OFFCURVE",
"328 527 OFFCURVE",
"328 504 CURVE SMOOTH",
"328 494 OFFCURVE",
"329 485 OFFCURVE",
"330 476 CURVE",
"306 482 OFFCURVE",
"281 484 OFFCURVE",
"254 484 CURVE SMOOTH",
"191 484 OFFCURVE",
"135 472 OFFCURVE",
"86 449 CURVE SMOOTH",
"29 422 OFFCURVE",
"0 394 OFFCURVE",
"0 365 CURVE SMOOTH",
"0 361 LINE SMOOTH",
"0 322 OFFCURVE",
"35 291 OFFCURVE",
"105 268 CURVE",
"186 251 OFFCURVE",
"246 239 OFFCURVE",
"286 230 CURVE SMOOTH",
"379 210 OFFCURVE",
"425 184 OFFCURVE",
"425 153 CURVE SMOOTH",
"425 148 OFFCURVE",
"424 142 OFFCURVE",
"420 136 CURVE",
"399 95 OFFCURVE",
"356 57 OFFCURVE",
"294 23 CURVE SMOOTH",
"232 -12 OFFCURVE",
"177 -29 OFFCURVE",
"129 -29 CURVE SMOOTH",
"102 -29 OFFCURVE",
"82 -24 OFFCURVE",
"70 -16 CURVE SMOOTH",
"56 -6 OFFCURVE",
"49 11 OFFCURVE",
"49 37 CURVE SMOOTH",
"49 75 OFFCURVE",
"64 112 OFFCURVE",
"94 147 CURVE SMOOTH",
"124 182 OFFCURVE",
"157 200 OFFCURVE",
"194 200 CURVE SMOOTH",
"222 200 OFFCURVE",
"236 191 OFFCURVE",
"236 173 CURVE SMOOTH",
"236 159 OFFCURVE",
"225 144 OFFCURVE",
"203 128 CURVE SMOOTH",
"182 112 OFFCURVE",
"164 104 OFFCURVE",
"149 104 CURVE SMOOTH",
"144 104 OFFCURVE",
"140 106 OFFCURVE",
"136 110 CURVE SMOOTH",
"129 117 OFFCURVE",
"127 121 OFFCURVE",
"130 121 CURVE SMOOTH",
"125 121 OFFCURVE",
"123 116 OFFCURVE",
"123 107 CURVE SMOOTH",
"123 91 OFFCURVE",
"134 83 OFFCURVE",
"154 83 CURVE SMOOTH",
"175 83 OFFCURVE",
"197 90 OFFCURVE",
"220 104 CURVE SMOOTH",
"245 120 OFFCURVE",
"258 137 OFFCURVE",
"258 157 CURVE SMOOTH",
"258 175 OFFCURVE",
"247 190 OFFCURVE",
"225 203 CURVE SMOOTH",
"206 214 OFFCURVE",
"187 220 OFFCURVE",
"167 220 CURVE SMOOTH",
"148 220 OFFCURVE",
"130 216 OFFCURVE",
"113 209 CURVE SMOOTH",
"90 198 OFFCURVE",
"68 177 OFFCURVE",
"49 146 CURVE SMOOTH",
"29 116 OFFCURVE",
"19 88 OFFCURVE",
"19 62 CURVE SMOOTH",
"19 -6 OFFCURVE",
"59 -40 OFFCURVE",
"140 -40 CURVE SMOOTH",
"211 -40 OFFCURVE",
"274 -25 OFFCURVE",
"329 5 CURVE SMOOTH",
"410 49 OFFCURVE",
"451 91 OFFCURVE",
"451 131 CURVE SMOOTH"
);
}
);
width = 492;
}
);
note = S;
unicode = 0053;
},
{
glyphname = Germandbls;
lastChange = "2021-09-23 21:52:11 +0000";
layers = (
{
hints = (
{
horizontal = 1;
place = "{-95, 33}";
type = Stem;
},
{
horizontal = 1;
place = "{241, 34}";
type = Stem;
},
{
horizontal = 1;
place = "{580, 35}";
type = Stem;
},
{
place = "{43, 38}";
type = Stem;
},
{
place = "{423, 25}";
type = Stem;
}
);
layerId = "A20F32D1-A37C-460A-962C-541C205D5E83";
paths = (
{
closed = 1;
nodes = (
"472 180 OFFCURVE",
"458 213 OFFCURVE",
"432 238 CURVE SMOOTH",
"405 262 OFFCURVE",
"370 275 OFFCURVE",
"328 275 CURVE SMOOTH",
"309 275 LINE",
"402 347 OFFCURVE",
"448 419 OFFCURVE",
"448 492 CURVE SMOOTH",
"448 528 OFFCURVE",
"437 558 OFFCURVE",
"414 581 CURVE SMOOTH",
"390 603 OFFCURVE",
"361 615 OFFCURVE",
"325 615 CURVE SMOOTH",
"241 615 OFFCURVE",
"166 559 OFFCURVE",
"101 446 CURVE SMOOTH",
"62 380 OFFCURVE",
"43 289 OFFCURVE",
"43 175 CURVE SMOOTH",
"43 118 OFFCURVE",
"50 41 OFFCURVE",
"62 -57 CURVE SMOOTH",
"63 -62 OFFCURVE",
"63 -68 OFFCURVE",
"63 -75 CURVE SMOOTH",
"63 -98 OFFCURVE",
"54 -119 OFFCURVE",
"36 -137 CURVE SMOOTH",
"19 -155 OFFCURVE",
"10 -164 OFFCURVE",
"10 -163 CURVE SMOOTH",
"10 -175 OFFCURVE",
"14 -181 OFFCURVE",
"23 -181 CURVE SMOOTH",
"45 -181 OFFCURVE",
"64 -168 OFFCURVE",
"79 -141 CURVE SMOOTH",
"93 -119 OFFCURVE",
"99 -95 OFFCURVE",
"99 -72 CURVE SMOOTH",
"99 -44 OFFCURVE",
"96 -2 OFFCURVE",
"90 54 CURVE SMOOTH",
"84 111 OFFCURVE",
"81 153 OFFCURVE",
"81 181 CURVE SMOOTH",
"81 291 OFFCURVE",
"99 376 OFFCURVE",
"136 435 CURVE SMOOTH",
"196 531 OFFCURVE",
"262 580 OFFCURVE",
"334 580 CURVE SMOOTH",
"360 580 OFFCURVE",
"381 572 OFFCURVE",
"398 558 CURVE SMOOTH",
"415 543 OFFCURVE",
"423 523 OFFCURVE",
"423 497 CURVE SMOOTH",
"423 435 OFFCURVE",
"380 374 OFFCURVE",
"293 314 CURVE SMOOTH",
"264 295 OFFCURVE",
"244 282 OFFCURVE",
"232 275 CURVE SMOOTH",
"217 267 OFFCURVE",
"210 253 OFFCURVE",
"210 236 CURVE SMOOTH",
"210 227 OFFCURVE",
"214 222 OFFCURVE",
"221 222 CURVE SMOOTH",
"230 222 OFFCURVE",
"249 225 OFFCURVE",
"276 231 CURVE SMOOTH",
"304 237 OFFCURVE",
"326 240 OFFCURVE",
"341 240 CURVE SMOOTH",
"370 240 OFFCURVE",
"391 229 OFFCURVE",
"406 208 CURVE SMOOTH",
"418 189 OFFCURVE",
"425 165 OFFCURVE",
"425 135 CURVE SMOOTH",
"425 79 OFFCURVE",
"406 32 OFFCURVE",
"369 -6 CURVE SMOOTH",
"331 -45 OFFCURVE",
"284 -64 OFFCURVE",
"229 -64 CURVE SMOOTH",
"224 -64 OFFCURVE",
"217 -63 OFFCURVE",
"207 -63 CURVE SMOOTH",
"197 -62 OFFCURVE",
"190 -61 OFFCURVE",
"185 -61 CURVE SMOOTH",
"174 -61 OFFCURVE",
"168 -66 OFFCURVE",
"168 -76 CURVE SMOOTH",
"168 -89 OFFCURVE",
"177 -95 OFFCURVE",
"194 -95 CURVE SMOOTH",
"264 -95 OFFCURVE",
"326 -74 OFFCURVE",
"382 -32 CURVE SMOOTH",
"441 14 OFFCURVE",
"472 71 OFFCURVE",
"472 138 CURVE SMOOTH"
);
}
);
width = 498;
}
);
unicode = 1E9E;
},
{
glyphname = Schwa;
lastChange = "2021-10-01 05:58:45 +0000";
layers = (
{
hints = (
{
horizontal = 1;
place = "{525, -33}";
type = Stem;
},
{
horizontal = 1;
place = "{206, -30}";
type = Stem;
},
{
horizontal = 1;
place = "{-20, -15}";
type = Stem;
},
{
place = "{499, -64}";
type = Stem;
},
{
place = "{318, -37}";
type = Stem;
},
{
place = "{117, -48}";
type = Stem;
}
);
layerId = "A20F32D1-A37C-460A-962C-541C205D5E83";
paths = (
{
closed = 1;
nodes = (
"381 503 OFFCURVE",
"325 525 OFFCURVE",
"259 525 CURVE SMOOTH",
"236 525 OFFCURVE",
"211 522 OFFCURVE",
"186 516 CURVE SMOOTH",
"142 506 OFFCURVE",
"109 493 OFFCURVE",
"88 478 CURVE SMOOTH",
"66 464 OFFCURVE",
"43 439 OFFCURVE",
"19 403 CURVE SMOOTH",
"11 390 OFFCURVE",
"7 380 OFFCURVE",
"7 374 CURVE SMOOTH",
"7 370 OFFCURVE",
"7 368 OFFCURVE",
"9 368 CURVE SMOOTH",
"15 368 OFFCURVE",
"23 375 OFFCURVE",
"33 389 CURVE SMOOTH",
"46 408 OFFCURVE",
"54 420 OFFCURVE",
"59 424 CURVE",
"102 469 OFFCURVE",
"160 492 OFFCURVE",
"232 492 CURVE SMOOTH",
"295 492 OFFCURVE",
"344 474 OFFCURVE",
"381 438 CURVE SMOOTH",
"417 402 OFFCURVE",
"443 352 OFFCURVE",
"443 289 CURVE SMOOTH",
"443 275 LINE",
"435 278 OFFCURVE",
"425 281 OFFCURVE",
"413 282 CURVE SMOOTH",
"265 299 OFFCURVE",
"69 187 OFFCURVE",
"69 56 CURVE SMOOTH",
"69 50 OFFCURVE",
"69 43 OFFCURVE",
"71 37 CURVE SMOOTH",
"87 -11 OFFCURVE",
"131 -35 OFFCURVE",
"201 -35 CURVE SMOOTH",
"241 -35 OFFCURVE",
"279 -24 OFFCURVE",
"313 -4 CURVE SMOOTH",
"437 68 OFFCURVE",
"499 168 OFFCURVE",
"499 297 CURVE SMOOTH",
"499 362 OFFCURVE",
"475 416 OFFCURVE",
"428 460 CURVE SMOOTH"
);
},
{
closed = 1;
nodes = (
"369 70 OFFCURVE",
"329 29 OFFCURVE",
"277 2 CURVE SMOOTH",
"249 -13 OFFCURVE",
"223 -19 OFFCURVE",
"198 -19 CURVE SMOOTH",
"175 -19 OFFCURVE",
"156 -13 OFFCURVE",
"140 -1 CURVE SMOOTH",
"124 12 OFFCURVE",
"116 29 OFFCURVE",
"116 52 CURVE SMOOTH",
"116 165 OFFCURVE",
"277 272 OFFCURVE",
"389 252 CURVE SMOOTH",
"406 249 OFFCURVE",
"428 250 OFFCURVE",
"439 243 CURVE",
"432 200 OFFCURVE",
"415 160 OFFCURVE",
"396 124 CURVE SMOOTH"
);
}
);
width = 514;
}
);
unicode = 018F;
},
{
glyphname = T;
layers = (
{
hints = (
{
horizontal = 1;
place = "{-111, 34}";
type = Stem;
},
{
horizontal = 1;
place = "{14, 27}";
type = Stem;
},
{
horizontal = 1;
place = "{194, 27}";
type = Stem;
},
{
horizontal = 1;
place = "{321, 46}";
type = Stem;
},
{
horizontal = 1;
place = "{454, 39}";
type = Stem;
},
{
horizontal = 1;
place = "{560, 45}";
type = Stem;
},
{
place = "{-32, 26}";
type = Stem;
},
{
place = "{415, 39}";
type = Stem;
},
{
place = "{596, 26}";
type = Stem;
},
{
place = "{762, 18}";
type = Stem;
}
);
layerId = "A20F32D1-A37C-460A-962C-541C205D5E83";
paths = (
{
closed = 1;
nodes = (
"780 538 OFFCURVE",
"771 554 OFFCURVE",
"751 568 CURVE SMOOTH",
"733 580 OFFCURVE",
"715 586 OFFCURVE",
"696 586 CURVE SMOOTH",
"686 586 OFFCURVE",
"681 581 OFFCURVE",
"681 572 CURVE SMOOTH",
"681 566 OFFCURVE",
"685 562 OFFCURVE",
"693 560 CURVE SMOOTH",
"739 547 OFFCURVE",
"762 535 OFFCURVE",
"762 522 CURVE SMOOTH",
"762 503 OFFCURVE",
"733 493 OFFCURVE",
"673 493 CURVE SMOOTH",
"613 493 OFFCURVE",
"540 505 OFFCURVE",
"455 528 CURVE",
"457 544 OFFCURVE",
"446 552 OFFCURVE",
"422 552 CURVE SMOOTH",
"413 552 OFFCURVE",
"403 550 OFFCURVE",
"393 545 CURVE",
"314 568 OFFCURVE",
"265 582 OFFCURVE",
"245 586 CURVE SMOOTH",
"190 598 OFFCURVE",
"139 605 OFFCURVE",
"93 605 CURVE SMOOTH",
"56 605 OFFCURVE",
"26 594 OFFCURVE",
"3 572 CURVE SMOOTH",
"-20 549 OFFCURVE",
"-32 520 OFFCURVE",
"-32 483 CURVE SMOOTH",
"-32 454 OFFCURVE",
"-16 424 OFFCURVE",
"16 393 CURVE SMOOTH",
"66 345 OFFCURVE",
"121 321 OFFCURVE",
"180 321 CURVE SMOOTH",
"233 321 OFFCURVE",
"272 345 OFFCURVE",
"294 393 CURVE",
"297 397 OFFCURVE",
"298 401 OFFCURVE",
"298 405 CURVE SMOOTH",
"298 412 OFFCURVE",
"296 415 OFFCURVE",
"292 415 CURVE SMOOTH",
"290 415 OFFCURVE",
"287 413 OFFCURVE",
"284 409 CURVE SMOOTH",
"265 381 OFFCURVE",
"234 367 OFFCURVE",
"193 367 CURVE SMOOTH",
"141 367 OFFCURVE",
"91 384 OFFCURVE",
"43 416 CURVE SMOOTH",
"11 438 OFFCURVE",
"-5 460 OFFCURVE",
"-5 483 CURVE SMOOTH",
"-5 534 OFFCURVE",
"34 560 OFFCURVE",
"112 560 CURVE SMOOTH",
"185 560 OFFCURVE",
"272 547 OFFCURVE",
"374 522 CURVE",
"365 472 OFFCURVE",
"359 426 OFFCURVE",
"353 385 CURVE SMOOTH",
"334 253 OFFCURVE",
"322 174 OFFCURVE",
"322 147 CURVE SMOOTH",
"322 84 OFFCURVE",
"331 31 OFFCURVE",
"348 -14 CURVE SMOOTH",
"373 -79 OFFCURVE",
"411 -111 OFFCURVE",
"464 -111 CURVE SMOOTH",
"496 -111 OFFCURVE",
"526 -98 OFFCURVE",
"554 -72 CURVE SMOOTH",
"600 -28 OFFCURVE",
"623 29 OFFCURVE",
"623 101 CURVE SMOOTH",
"623 132 OFFCURVE",
"616 159 OFFCURVE",
"602 181 CURVE SMOOTH",
"585 208 OFFCURVE",
"563 221 OFFCURVE",
"534 221 CURVE SMOOTH",
"499 221 OFFCURVE",
"471 210 OFFCURVE",
"449 189 CURVE SMOOTH",
"427 167 OFFCURVE",
"416 139 OFFCURVE",
"416 104 CURVE SMOOTH",
"416 80 OFFCURVE",
"421 60 OFFCURVE",
"433 43 CURVE SMOOTH",
"446 24 OFFCURVE",
"464 14 OFFCURVE",
"486 14 CURVE SMOOTH",
"500 14 OFFCURVE",
"511 20 OFFCURVE",
"518 32 CURVE SMOOTH",
"526 43 OFFCURVE",
"529 56 OFFCURVE",
"529 69 CURVE SMOOTH",
"529 86 OFFCURVE",
"525 94 OFFCURVE",
"516 94 CURVE SMOOTH",
"507 94 OFFCURVE",
"502 89 OFFCURVE",
"502 81 CURVE SMOOTH",
"502 80 OFFCURVE",
"503 78 OFFCURVE",
"503 75 CURVE",
"504 72 OFFCURVE",
"504 69 OFFCURVE",
"504 68 CURVE SMOOTH",
"504 62 OFFCURVE",
"502 56 OFFCURVE",
"499 50 CURVE SMOOTH",
"495 44 OFFCURVE",
"491 41 OFFCURVE",
"486 41 CURVE SMOOTH",
"476 41 OFFCURVE",
"468 52 OFFCURVE",
"462 73 CURVE SMOOTH",
"457 89 OFFCURVE",
"455 103 OFFCURVE",
"455 114 CURVE SMOOTH",
"455 168 OFFCURVE",
"481 194 OFFCURVE",
"534 194 CURVE SMOOTH",
"555 194 OFFCURVE",
"572 184 OFFCURVE",
"583 162 CURVE SMOOTH",
"592 145 OFFCURVE",
"597 125 OFFCURVE",
"597 101 CURVE SMOOTH",
"597 64 OFFCURVE",
"589 30 OFFCURVE",
"573 -2 CURVE SMOOTH",
"549 -52 OFFCURVE",
"516 -77 OFFCURVE",
"474 -77 CURVE SMOOTH",
"435 -77 OFFCURVE",
"407 -52 OFFCURVE",
"390 -2 CURVE SMOOTH",
"378 31 OFFCURVE",
"372 72 OFFCURVE",
"372 120 CURVE SMOOTH",
"372 202 OFFCURVE",
"388 296 OFFCURVE",
"420 403 CURVE SMOOTH",
"440 469 OFFCURVE",
"450 502 OFFCURVE",
"451 503 CURVE",
"572 471 OFFCURVE",
"648 455 OFFCURVE",
"679 455 CURVE SMOOTH",
"703 455 OFFCURVE",
"725 459 OFFCURVE",
"744 469 CURVE SMOOTH",
"768 481 OFFCURVE",
"780 498 OFFCURVE",
"780 520 CURVE SMOOTH"
);
}
);
width = 658;
}
);
note = T;
unicode = 0054;
},
{
glyphname = U;
layers = (
{
hints = (
{
horizontal = 1;
place = "{17, 26}";
type = Stem;
},
{
horizontal = 1;
place = "{290, 32}";
type = Stem;
},
{
horizontal = 1;
place = "{463, 30}";
type = Stem;
},
{
place = "{5, 39}";
type = Stem;
},
{
place = "{51, 25}";
type = Stem;
},
{
place = "{193, 45}";
type = Stem;
},
{
place = "{352, 34}";
type = Stem;
},
{
place = "{424, 27}";
type = Stem;
}
);
layerId = "A20F32D1-A37C-460A-962C-541C205D5E83";
paths = (
{
closed = 1;
nodes = (
"516 32 OFFCURVE",
"513 35 OFFCURVE",
"509 35 CURVE SMOOTH",
"506 35 OFFCURVE",
"501 32 OFFCURVE",
"494 27 CURVE SMOOTH",
"486 21 OFFCURVE",
"479 18 OFFCURVE",
"473 18 CURVE SMOOTH",
"452 18 OFFCURVE",
"432 43 OFFCURVE",
"415 94 CURVE SMOOTH",
"400 136 OFFCURVE",
"392 171 OFFCURVE",
"392 198 CURVE",
"432 263 OFFCURVE",
"452 326 OFFCURVE",
"452 386 CURVE SMOOTH",
"452 401 OFFCURVE",
"450 415 OFFCURVE",
"446 428 CURVE SMOOTH",
"439 448 OFFCURVE",
"430 458 OFFCURVE",
"419 458 CURVE SMOOTH",
"389 458 OFFCURVE",
"370 444 OFFCURVE",
"360 416 CURVE SMOOTH",
"355 400 OFFCURVE",
"352 373 OFFCURVE",
"352 336 CURVE SMOOTH",
"352 321 OFFCURVE",
"353 300 OFFCURVE",
"354 270 CURVE SMOOTH",
"355 241 OFFCURVE",
"356 220 OFFCURVE",
"356 205 CURVE SMOOTH",
"356 176 OFFCURVE",
"331 141 OFFCURVE",
"282 102 CURVE SMOOTH",
"233 63 OFFCURVE",
"194 43 OFFCURVE",
"163 43 CURVE SMOOTH",
"105 43 OFFCURVE",
"77 57 OFFCURVE",
"77 86 CURVE SMOOTH",
"77 116 OFFCURVE",
"104 175 OFFCURVE",
"158 261 CURVE SMOOTH",
"212 347 OFFCURVE",
"239 404 OFFCURVE",
"239 430 CURVE SMOOTH",
"239 472 OFFCURVE",
"200 493 OFFCURVE",
"122 493 CURVE SMOOTH",
"89 493 OFFCURVE",
"62 481 OFFCURVE",
"39 455 CURVE SMOOTH",
"17 430 OFFCURVE",
"5 401 OFFCURVE",
"5 367 CURVE SMOOTH",
"5 350 OFFCURVE",
"9 334 OFFCURVE",
"15 319 CURVE SMOOTH",
"24 299 OFFCURVE",
"36 290 OFFCURVE",
"51 290 CURVE SMOOTH",
"65 290 OFFCURVE",
"76 299 OFFCURVE",
"86 318 CURVE SMOOTH",
"94 333 OFFCURVE",
"98 348 OFFCURVE",
"98 363 CURVE SMOOTH",
"98 378 OFFCURVE",
"92 385 OFFCURVE",
"79 385 CURVE SMOOTH",
"70 385 OFFCURVE",
"66 383 OFFCURVE",
"66 378 CURVE SMOOTH",
"66 373 OFFCURVE",
"70 367 OFFCURVE",
"79 359 CURVE",
"80 357 OFFCURVE",
"81 355 OFFCURVE",
"81 353 CURVE SMOOTH",
"81 346 OFFCURVE",
"78 339 OFFCURVE",
"73 333 CURVE SMOOTH",
"68 326 OFFCURVE",
"62 322 OFFCURVE",
"56 322 CURVE SMOOTH",
"48 322 OFFCURVE",
"44 329 OFFCURVE",
"44 344 CURVE SMOOTH",
"44 424 OFFCURVE",
"73 464 OFFCURVE",
"131 464 CURVE SMOOTH",
"173 464 OFFCURVE",
"194 450 OFFCURVE",
"194 424 CURVE SMOOTH",
"194 406 OFFCURVE",
"170 355 OFFCURVE",
"122 271 CURVE SMOOTH",
"75 187 OFFCURVE",
"51 125 OFFCURVE",
"51 86 CURVE SMOOTH",
"51 61 OFFCURVE",
"65 43 OFFCURVE",
"92 31 CURVE SMOOTH",
"112 22 OFFCURVE",
"135 17 OFFCURVE",
"163 17 CURVE SMOOTH",
"228 17 OFFCURVE",
"293 63 OFFCURVE",
"358 155 CURVE",
"362 125 OFFCURVE",
"376 93 OFFCURVE",
"398 57 CURVE SMOOTH",
"424 15 OFFCURVE",
"449 -5 OFFCURVE",
"473 -5 CURVE SMOOTH",
"482 -5 OFFCURVE",
"491 -2 OFFCURVE",
"501 5 CURVE SMOOTH",
"511 12 OFFCURVE",
"516 19 OFFCURVE",
"516 27 CURVE SMOOTH"
);
},
{
closed = 1;
nodes = (
"425 344 OFFCURVE",
"414 299 OFFCURVE",
"392 253 CURVE",
"392 264 OFFCURVE",
"391 280 OFFCURVE",
"389 302 CURVE SMOOTH",
"387 323 OFFCURVE",
"386 339 OFFCURVE",
"386 350 CURVE SMOOTH",
"386 398 OFFCURVE",
"397 422 OFFCURVE",
"419 422 CURVE",
"423 414 OFFCURVE",
"425 402 OFFCURVE",
"425 386 CURVE SMOOTH"
);
}
);
width = 467;
}
);
note = U;
unicode = 0055;
},
{
glyphname = V;
layers = (
{
hints = (
{
horizontal = 1;
place = "{1, 127}";
type = Stem;
},
{
horizontal = 1;
place = "{201, 31}";
type = Stem;
},
{
horizontal = 1;
place = "{491, 36}";
type = Stem;
},
{
place = "{1, 30}";
type = Stem;
},
{
place = "{223, 19}";
type = Stem;
},
{
place = "{307, 46}";
type = Stem;
}
);
layerId = "A20F32D1-A37C-460A-962C-541C205D5E83";
paths = (
{
closed = 1;
nodes = (
"595 496 OFFCURVE",
"591 500 OFFCURVE",
"582 500 CURVE SMOOTH",
"550 500 OFFCURVE",
"503 447 OFFCURVE",
"443 339 CURVE SMOOTH",
"396 257 OFFCURVE",
"363 186 OFFCURVE",
"341 128 CURVE",
"330 189 OFFCURVE",
"320 248 OFFCURVE",
"309 303 CURVE SMOOTH",
"279 452 OFFCURVE",
"212 527 OFFCURVE",
"107 527 CURVE SMOOTH",
"73 527 OFFCURVE",
"46 510 OFFCURVE",
"26 477 CURVE SMOOTH",
"9 449 OFFCURVE",
"1 416 OFFCURVE",
"1 380 CURVE SMOOTH",
"1 328 OFFCURVE",
"20 285 OFFCURVE",
"59 250 CURVE SMOOTH",
"95 217 OFFCURVE",
"140 201 OFFCURVE",
"193 201 CURVE SMOOTH",
"226 201 OFFCURVE",
"242 211 OFFCURVE",
"242 231 CURVE SMOOTH",
"242 254 OFFCURVE",
"227 279 OFFCURVE",
"198 306 CURVE SMOOTH",
"169 334 OFFCURVE",
"143 347 OFFCURVE",
"120 347 CURVE SMOOTH",
"114 347 OFFCURVE",
"112 345 OFFCURVE",
"112 341 CURVE SMOOTH",
"112 338 OFFCURVE",
"116 334 OFFCURVE",
"124 330 CURVE SMOOTH",
"139 324 OFFCURVE",
"158 312 OFFCURVE",
"182 293 CURVE SMOOTH",
"209 270 OFFCURVE",
"223 254 OFFCURVE",
"223 242 CURVE SMOOTH",
"223 235 OFFCURVE",
"217 231 OFFCURVE",
"203 231 CURVE SMOOTH",
"157 231 OFFCURVE",
"117 244 OFFCURVE",
"85 270 CURVE SMOOTH",
"49 298 OFFCURVE",
"31 335 OFFCURVE",
"31 380 CURVE SMOOTH",
"31 409 OFFCURVE",
"36 433 OFFCURVE",
"47 454 CURVE SMOOTH",
"60 478 OFFCURVE",
"81 491 OFFCURVE",
"107 491 CURVE SMOOTH",
"176 491 OFFCURVE",
"229 425 OFFCURVE",
"266 294 CURVE SMOOTH",
"294 200 OFFCURVE",
"307 106 OFFCURVE",
"307 13 CURVE SMOOTH",
"307 5 OFFCURVE",
"313 1 OFFCURVE",
"324 1 CURVE SMOOTH",
"343 1 OFFCURVE",
"353 15 OFFCURVE",
"353 42 CURVE",
"356 60 OFFCURVE",
"361 80 OFFCURVE",
"367 104 CURVE SMOOTH",
"385 166 OFFCURVE",
"409 229 OFFCURVE",
"440 292 CURVE SMOOTH",
"478 369 OFFCURVE",
"516 423 OFFCURVE",
"554 455 CURVE",
"561 459 OFFCURVE",
"569 464 OFFCURVE",
"577 469 CURVE SMOOTH",
"589 476 OFFCURVE",
"595 482 OFFCURVE",
"595 486 CURVE SMOOTH"
);
}
);
width = 520;
}
);
note = V;
unicode = 0056;
},
{
glyphname = W;
layers = (
{
hints = (
{
horizontal = 1;
place = "{14, 26}";
type = Stem;
},
{
horizontal = 1;
place = "{254, 19}";
type = Stem;
},
{
horizontal = 1;
place = "{465, 18}";
type = Stem;
},
{
horizontal = 1;
place = "{509, 17}";
type = Stem;
},
{
place = "{1, 39}";
type = Stem;
},
{
place = "{181, 13}";
type = Stem;
},
{
place = "{201, 29}";
type = Stem;
},
{
place = "{248, 52}";
type = Stem;
},
{
place = "{717, 51}";
type = Stem;
}
);
layerId = "A20F32D1-A37C-460A-962C-541C205D5E83";
paths = (
{
closed = 1;
nodes = (
"768 353 OFFCURVE",
"760 392 OFFCURVE",
"743 423 CURVE SMOOTH",
"723 463 OFFCURVE",
"690 483 OFFCURVE",
"647 483 CURVE SMOOTH",
"627 483 OFFCURVE",
"617 479 OFFCURVE",
"617 472 CURVE SMOOTH",
"617 468 OFFCURVE",
"621 466 OFFCURVE",
"628 465 CURVE SMOOTH",
"640 464 OFFCURVE",
"650 462 OFFCURVE",
"657 458 CURVE SMOOTH",
"697 437 OFFCURVE",
"716 381 OFFCURVE",
"716 290 CURVE SMOOTH",
"716 238 OFFCURVE",
"697 185 OFFCURVE",
"659 130 CURVE SMOOTH",
"617 70 OFFCURVE",
"572 40 OFFCURVE",
"523 40 CURVE SMOOTH",
"472 40 OFFCURVE",
"446 80 OFFCURVE",
"446 162 CURVE SMOOTH",
"446 177 OFFCURVE",
"449 200 OFFCURVE",
"455 230 CURVE SMOOTH",
"461 260 OFFCURVE",
"464 282 OFFCURVE",
"464 297 CURVE SMOOTH",
"464 305 OFFCURVE",
"461 313 OFFCURVE",
"455 321 CURVE SMOOTH",
"450 330 OFFCURVE",
"443 334 OFFCURVE",
"436 334 CURVE SMOOTH",
"428 334 OFFCURVE",
"422 328 OFFCURVE",
"419 315 CURVE SMOOTH",
"408 277 OFFCURVE",
"403 258 OFFCURVE",
"402 257 CURVE",
"390 213 OFFCURVE",
"371 176 OFFCURVE",
"352 142 CURVE SMOOTH",
"322 88 OFFCURVE",
"294 61 OFFCURVE",
"269 61 CURVE SMOOTH",
"243 61 OFFCURVE",
"230 75 OFFCURVE",
"230 102 CURVE SMOOTH",
"230 128 OFFCURVE",
"241 171 OFFCURVE",
"265 230 CURVE SMOOTH",
"288 289 OFFCURVE",
"300 333 OFFCURVE",
"300 361 CURVE SMOOTH",
"300 471 OFFCURVE",
"248 526 OFFCURVE",
"144 526 CURVE SMOOTH",
"103 526 OFFCURVE",
"69 512 OFFCURVE",
"42 485 CURVE SMOOTH",
"15 458 OFFCURVE",
"1 425 OFFCURVE",
"1 384 CURVE SMOOTH",
"1 349 OFFCURVE",
"18 318 OFFCURVE",
"51 292 CURVE SMOOTH",
"83 267 OFFCURVE",
"116 254 OFFCURVE",
"153 254 CURVE SMOOTH",
"163 254 OFFCURVE",
"172 257 OFFCURVE",
"180 262 CURVE SMOOTH",
"189 267 OFFCURVE",
"194 275 OFFCURVE",
"194 284 CURVE SMOOTH",
"194 299 OFFCURVE",
"182 315 OFFCURVE",
"158 333 CURVE SMOOTH",
"134 351 OFFCURVE",
"115 360 OFFCURVE",
"100 360 CURVE SMOOTH",
"96 360 OFFCURVE",
"94 358 OFFCURVE",
"94 355 CURVE SMOOTH",
"94 349 OFFCURVE",
"98 345 OFFCURVE",
"105 341 CURVE SMOOTH",
"156 316 OFFCURVE",
"181 298 OFFCURVE",
"181 286 CURVE SMOOTH",
"181 277 OFFCURVE",
"172 273 OFFCURVE",
"154 273 CURVE SMOOTH",
"120 273 OFFCURVE",
"93 285 OFFCURVE",
"72 308 CURVE SMOOTH",
"50 332 OFFCURVE",
"40 361 OFFCURVE",
"40 395 CURVE SMOOTH",
"40 471 OFFCURVE",
"77 509 OFFCURVE",
"151 509 CURVE SMOOTH",
"185 509 OFFCURVE",
"211 486 OFFCURVE",
"229 442 CURVE SMOOTH",
"241 410 OFFCURVE",
"248 373 OFFCURVE",
"248 333 CURVE SMOOTH",
"248 310 OFFCURVE",
"240 272 OFFCURVE",
"224 220 CURVE SMOOTH",
"209 168 OFFCURVE",
"201 130 OFFCURVE",
"201 104 CURVE SMOOTH",
"201 61 OFFCURVE",
"220 40 OFFCURVE",
"259 40 CURVE SMOOTH",
"288 40 OFFCURVE",
"318 60 OFFCURVE",
"350 101 CURVE SMOOTH",
"364 119 OFFCURVE",
"386 152 OFFCURVE",
"414 200 CURVE",
"410 151 OFFCURVE",
"415 110 OFFCURVE",
"428 77 CURVE SMOOTH",
"446 35 OFFCURVE",
"478 14 OFFCURVE",
"523 14 CURVE SMOOTH",
"581 14 OFFCURVE",
"636 49 OFFCURVE",
"690 118 CURVE SMOOTH",
"742 184 OFFCURVE",
"768 246 OFFCURVE",
"768 305 CURVE SMOOTH"
);
}
);
width = 772;
}
);
note = W;
unicode = 0057;
},
{
glyphname = X;
layers = (
{
hints = (
{
horizontal = 1;
place = "{5, 26}";
type = Stem;
},
{
horizontal = 1;
place = "{162, 25}";
type = Stem;
},
{
horizontal = 1;
place = "{254, 26}";
type = Stem;
},
{
horizontal = 1;
place = "{462, 25}";
type = Stem;
},
{
horizontal = 1;
place = "{539, -20}";
target = down;
type = TopGhost;
},
{
place = "{4, 48}";
type = Stem;
},
{
place = "{74, 23}";
type = Stem;
},
{
place = "{262, 26}";
type = Stem;
},
{
place = "{571, 18}";
type = Stem;
},
{
place = "{660, 26}";
type = Stem;
}
);
layerId = "A20F32D1-A37C-460A-962C-541C205D5E83";
paths = (
{
closed = 1;
nodes = (
"686 148 OFFCURVE",
"682 161 OFFCURVE",
"673 171 CURVE SMOOTH",
"664 182 OFFCURVE",
"652 187 OFFCURVE",
"637 187 CURVE SMOOTH",
"619 187 OFFCURVE",
"603 183 OFFCURVE",
"591 174 CURVE SMOOTH",
"578 163 OFFCURVE",
"571 150 OFFCURVE",
"571 132 CURVE SMOOTH",
"571 123 OFFCURVE",
"574 112 OFFCURVE",
"581 99 CURVE SMOOTH",
"588 84 OFFCURVE",
"595 76 OFFCURVE",
"603 76 CURVE SMOOTH",
"606 76 OFFCURVE",
"608 77 OFFCURVE",
"608 81 CURVE SMOOTH",
"608 82 OFFCURVE",
"604 90 OFFCURVE",
"598 105 CURVE SMOOTH",
"592 120 OFFCURVE",
"589 133 OFFCURVE",
"589 143 CURVE SMOOTH",
"589 156 OFFCURVE",
"605 162 OFFCURVE",
"637 162 CURVE SMOOTH",
"652 162 OFFCURVE",
"660 152 OFFCURVE",
"660 132 CURVE SMOOTH",
"660 99 OFFCURVE",
"648 72 OFFCURVE",
"625 51 CURVE SMOOTH",
"602 31 OFFCURVE",
"573 21 OFFCURVE",
"539 21 CURVE SMOOTH",
"492 21 OFFCURVE",
"454 65 OFFCURVE",
"425 155 CURVE SMOOTH",
"413 190 OFFCURVE",
"405 217 OFFCURVE",
"400 237 CURVE",
"469 333 OFFCURVE",
"506 384 OFFCURVE",
"511 391 CURVE SMOOTH",
"558 453 OFFCURVE",
"589 491 OFFCURVE",
"605 503 CURVE SMOOTH",
"623 514 OFFCURVE",
"632 524 OFFCURVE",
"632 532 CURVE SMOOTH",
"632 537 OFFCURVE",
"630 539 OFFCURVE",
"626 539 CURVE SMOOTH",
"625 539 OFFCURVE",
"623 538 OFFCURVE",
"621 536 CURVE",
"592 522 OFFCURVE",
"556 486 OFFCURVE",
"514 430 CURVE SMOOTH",
"454 351 OFFCURVE",
"413 296 OFFCURVE",
"391 266 CURVE",
"370 333 OFFCURVE",
"347 384 OFFCURVE",
"322 416 CURVE SMOOTH",
"286 463 OFFCURVE",
"239 487 OFFCURVE",
"181 487 CURVE SMOOTH",
"147 487 OFFCURVE",
"123 483 OFFCURVE",
"107 475 CURVE SMOOTH",
"85 464 OFFCURVE",
"74 443 OFFCURVE",
"74 412 CURVE SMOOTH",
"74 365 OFFCURVE",
"87 327 OFFCURVE",
"113 297 CURVE SMOOTH",
"139 268 OFFCURVE",
"176 254 OFFCURVE",
"223 254 CURVE SMOOTH",
"239 254 OFFCURVE",
"254 258 OFFCURVE",
"267 267 CURVE SMOOTH",
"281 276 OFFCURVE",
"288 287 OFFCURVE",
"288 302 CURVE SMOOTH",
"288 326 OFFCURVE",
"256 351 OFFCURVE",
"193 378 CURVE SMOOTH",
"190 379 OFFCURVE",
"188 379 OFFCURVE",
"186 379 CURVE SMOOTH",
"183 379 OFFCURVE",
"181 377 OFFCURVE",
"181 374 CURVE SMOOTH",
"181 369 OFFCURVE",
"185 364 OFFCURVE",
"193 360 CURVE SMOOTH",
"239 334 OFFCURVE",
"262 314 OFFCURVE",
"262 302 CURVE SMOOTH",
"262 287 OFFCURVE",
"249 280 OFFCURVE",
"223 280 CURVE SMOOTH",
"194 280 OFFCURVE",
"165 293 OFFCURVE",
"138 320 CURVE SMOOTH",
"111 347 OFFCURVE",
"97 375 OFFCURVE",
"97 404 CURVE SMOOTH",
"97 443 OFFCURVE",
"125 462 OFFCURVE",
"181 462 CURVE SMOOTH",
"233 462 OFFCURVE",
"275 434 OFFCURVE",
"305 379 CURVE SMOOTH",
"319 354 OFFCURVE",
"338 303 OFFCURVE",
"361 228 CURVE",
"256 96 OFFCURVE",
"178 31 OFFCURVE",
"126 31 CURVE SMOOTH",
"107 31 OFFCURVE",
"90 40 OFFCURVE",
"74 59 CURVE SMOOTH",
"59 79 OFFCURVE",
"51 98 OFFCURVE",
"51 118 CURVE SMOOTH",
"51 149 OFFCURVE",
"72 164 OFFCURVE",
"113 164 CURVE SMOOTH",
"115 164 OFFCURVE",
"121 161 OFFCURVE",
"131 156 CURVE SMOOTH",
"140 151 OFFCURVE",
"146 149 OFFCURVE",
"149 149 CURVE SMOOTH",
"152 149 OFFCURVE",
"153 149 OFFCURVE",
"153 150 CURVE SMOOTH",
"153 155 OFFCURVE",
"150 160 OFFCURVE",
"145 167 CURVE SMOOTH",
"134 180 OFFCURVE",
"119 187 OFFCURVE",
"99 187 CURVE SMOOTH",
"71 187 OFFCURVE",
"49 180 OFFCURVE",
"31 166 CURVE SMOOTH",
"13 151 OFFCURVE",
"4 131 OFFCURVE",
"4 104 CURVE SMOOTH",
"4 75 OFFCURVE",
"14 51 OFFCURVE",
"35 32 CURVE SMOOTH",
"56 14 OFFCURVE",
"82 5 OFFCURVE",
"112 5 CURVE SMOOTH",
"182 5 OFFCURVE",
"268 69 OFFCURVE",
"369 199 CURVE",
"388 140 OFFCURVE",
"408 96 OFFCURVE",
"428 68 CURVE SMOOTH",
"458 26 OFFCURVE",
"498 5 OFFCURVE",
"546 5 CURVE SMOOTH",
"587 5 OFFCURVE",
"621 17 OFFCURVE",
"647 39 CURVE SMOOTH",
"673 61 OFFCURVE",
"686 92 OFFCURVE",
"686 132 CURVE SMOOTH"
);
}
);
width = 702;
}
);
note = X;
unicode = 0058;
},
{
glyphname = Y;
layers = (
{
hints = (
{
horizontal = 1;
place = "{-312, 39}";
type = Stem;
},
{
horizontal = 1;
place = "{-230, 21}";
type = Stem;
},
{
horizontal = 1;
place = "{-58, 25}";
type = Stem;
},
{
horizontal = 1;
place = "{-10, 33}";
type = Stem;
},
{
horizontal = 1;
place = "{237, 35}";
type = Stem;
},
{
horizontal = 1;
place = "{453, 46}";
type = Stem;
},
{
horizontal = 1;
place = "{577, 23}";
type = Stem;
},
{
place = "{126, 27}";
type = Stem;
},
{
place = "{162, 23}";
type = Stem;
},
{
place = "{302, 27}";
type = Stem;
},
{
place = "{541, 32}";
type = Stem;
},
{
place = "{627, 43}";
type = Stem;
}
);
layerId = "A20F32D1-A37C-460A-962C-541C205D5E83";
paths = (
{
closed = 1;
nodes = (
"671 -120 OFFCURVE",
"669 -103 OFFCURVE",
"665 -86 CURVE SMOOTH",
"648 -6 OFFCURVE",
"635 50 OFFCURVE",
"628 81 CURVE SMOOTH",
"613 151 OFFCURVE",
"607 200 OFFCURVE",
"607 229 CURVE",
"608 233 OFFCURVE",
"609 238 OFFCURVE",
"610 243 CURVE SMOOTH",
"633 319 OFFCURVE",
"644 387 OFFCURVE",
"644 446 CURVE SMOOTH",
"644 481 OFFCURVE",
"633 499 OFFCURVE",
"611 499 CURVE SMOOTH",
"564 499 OFFCURVE",
"541 467 OFFCURVE",
"541 404 CURVE SMOOTH",
"541 380 OFFCURVE",
"545 350 OFFCURVE",
"554 315 CURVE SMOOTH",
"575 226 LINE",
"560 170 OFFCURVE",
"531 123 OFFCURVE",
"490 85 CURVE SMOOTH",
"445 44 OFFCURVE",
"395 23 OFFCURVE",
"339 23 CURVE SMOOTH",
"298 23 OFFCURVE",
"263 38 OFFCURVE",
"235 67 CURVE SMOOTH",
"223 79 OFFCURVE",
"217 95 OFFCURVE",
"217 117 CURVE SMOOTH",
"217 151 OFFCURVE",
"231 201 OFFCURVE",
"261 268 CURVE SMOOTH",
"290 335 OFFCURVE",
"311 386 OFFCURVE",
"326 419 CURVE SMOOTH",
"340 452 OFFCURVE",
"347 480 OFFCURVE",
"347 502 CURVE SMOOTH",
"347 532 OFFCURVE",
"339 556 OFFCURVE",
"322 574 CURVE SMOOTH",
"305 592 OFFCURVE",
"282 600 OFFCURVE",
"253 600 CURVE SMOOTH",
"206 600 OFFCURVE",
"161 583 OFFCURVE",
"119 547 CURVE SMOOTH",
"80 515 OFFCURVE",
"51 476 OFFCURVE",
"32 429 CURVE SMOOTH",
"15 390 OFFCURVE",
"7 354 OFFCURVE",
"7 321 CURVE SMOOTH",
"7 317 LINE SMOOTH",
"7 296 OFFCURVE",
"15 277 OFFCURVE",
"30 261 CURVE SMOOTH",
"45 245 OFFCURVE",
"63 237 OFFCURVE",
"85 237 CURVE SMOOTH",
"130 237 OFFCURVE",
"153 270 OFFCURVE",
"153 338 CURVE SMOOTH",
"153 374 OFFCURVE",
"141 401 OFFCURVE",
"116 420 CURVE SMOOTH",
"113 422 OFFCURVE",
"110 423 OFFCURVE",
"108 423 CURVE SMOOTH",
"106 423 OFFCURVE",
"104 421 OFFCURVE",
"104 416 CURVE SMOOTH",
"104 411 OFFCURVE",
"106 405 OFFCURVE",
"111 398 CURVE SMOOTH",
"121 380 OFFCURVE",
"126 360 OFFCURVE",
"126 338 CURVE SMOOTH",
"126 320 OFFCURVE",
"121 305 OFFCURVE",
"112 292 CURVE SMOOTH",
"102 278 OFFCURVE",
"89 272 OFFCURVE",
"72 272 CURVE SMOOTH",
"46 272 OFFCURVE",
"33 287 OFFCURVE",
"33 319 CURVE SMOOTH",
"33 321 LINE SMOOTH",
"33 391 OFFCURVE",
"65 457 OFFCURVE",
"128 519 CURVE SMOOTH",
"167 558 OFFCURVE",
"206 578 OFFCURVE",
"242 578 CURVE SMOOTH",
"281 578 OFFCURVE",
"301 551 OFFCURVE",
"301 499 CURVE SMOOTH",
"301 457 OFFCURVE",
"277 388 OFFCURVE",
"231 293 CURVE SMOOTH",
"184 198 OFFCURVE",
"161 134 OFFCURVE",
"161 100 CURVE SMOOTH",
"161 68 OFFCURVE",
"179 41 OFFCURVE",
"213 19 CURVE SMOOTH",
"244 0 OFFCURVE",
"277 -10 OFFCURVE",
"311 -10 CURVE SMOOTH",
"357 -10 OFFCURVE",
"409 4 OFFCURVE",
"466 32 CURVE SMOOTH",
"486 41 OFFCURVE",
"508 59 OFFCURVE",
"532 86 CURVE SMOOTH",
"551 109 OFFCURVE",
"570 132 OFFCURVE",
"589 155 CURVE",
"599 96 OFFCURVE",
"608 52 OFFCURVE",
"614 23 CURVE SMOOTH",
"623 -27 OFFCURVE",
"627 -71 OFFCURVE",
"627 -110 CURVE SMOOTH",
"627 -190 OFFCURVE",
"598 -239 OFFCURVE",
"538 -257 CURVE SMOOTH",
"500 -268 OFFCURVE",
"458 -274 OFFCURVE",
"410 -274 CURVE SMOOTH",
"362 -274 OFFCURVE",
"318 -268 OFFCURVE",
"277 -257 CURVE SMOOTH",
"216 -240 OFFCURVE",
"185 -215 OFFCURVE",
"185 -181 CURVE SMOOTH",
"185 -160 OFFCURVE",
"203 -137 OFFCURVE",
"239 -114 CURVE SMOOTH",
"297 -76 OFFCURVE",
"362 -58 OFFCURVE",
"434 -58 CURVE SMOOTH",
"455 -58 OFFCURVE",
"476 -61 OFFCURVE",
"495 -67 CURVE SMOOTH",
"521 -75 OFFCURVE",
"535 -86 OFFCURVE",
"535 -102 CURVE SMOOTH",
"535 -129 OFFCURVE",
"510 -154 OFFCURVE",
"459 -178 CURVE SMOOTH",
"414 -199 OFFCURVE",
"376 -210 OFFCURVE",
"346 -210 CURVE SMOOTH",
"335 -210 OFFCURVE",
"329 -208 OFFCURVE",
"329 -203 CURVE SMOOTH",
"329 -197 OFFCURVE",
"339 -189 OFFCURVE",
"357 -177 CURVE SMOOTH",
"376 -166 OFFCURVE",
"385 -159 OFFCURVE",
"385 -157 CURVE SMOOTH",
"385 -149 OFFCURVE",
"381 -145 OFFCURVE",
"374 -145 CURVE SMOOTH",
"359 -145 OFFCURVE",
"344 -151 OFFCURVE",
"329 -162 CURVE SMOOTH",
"311 -175 OFFCURVE",
"302 -188 OFFCURVE",
"302 -201 CURVE SMOOTH",
"302 -221 OFFCURVE",
"320 -230 OFFCURVE",
"355 -230 CURVE SMOOTH",
"400 -230 OFFCURVE",
"443 -220 OFFCURVE",
"484 -201 CURVE SMOOTH",
"535 -177 OFFCURVE",
"560 -145 OFFCURVE",
"560 -104 CURVE SMOOTH",
"560 -78 OFFCURVE",
"545 -58 OFFCURVE",
"516 -46 CURVE SMOOTH",
"494 -37 OFFCURVE",
"468 -32 OFFCURVE",
"437 -32 CURVE SMOOTH",
"408 -32 OFFCURVE",
"371 -38 OFFCURVE",
"327 -50 CURVE SMOOTH",
"287 -59 OFFCURVE",
"252 -74 OFFCURVE",
"222 -95 CURVE SMOOTH",
"182 -124 OFFCURVE",
"162 -154 OFFCURVE",
"162 -185 CURVE SMOOTH",
"162 -227 OFFCURVE",
"199 -261 OFFCURVE",
"273 -285 CURVE SMOOTH",
"328 -304 OFFCURVE",
"383 -312 OFFCURVE",
"438 -312 CURVE SMOOTH",
"503 -312 OFFCURVE",
"556 -300 OFFCURVE",
"597 -275 CURVE SMOOTH",
"646 -244 OFFCURVE",
"671 -197 OFFCURVE",
"671 -137 CURVE SMOOTH"
);
},
{
closed = 1;
nodes = (
"617 403 OFFCURVE",
"614 377 OFFCURVE",
"609 343 CURVE SMOOTH",
"603 301 OFFCURVE",
"597 278 OFFCURVE",
"590 275 CURVE",
"579 315 OFFCURVE",
"573 352 OFFCURVE",
"573 383 CURVE SMOOTH",
"573 394 OFFCURVE",
"577 407 OFFCURVE",
"582 423 CURVE SMOOTH",
"589 443 OFFCURVE",
"596 453 OFFCURVE",
"605 453 CURVE SMOOTH",
"613 453 OFFCURVE",
"617 443 OFFCURVE",
"617 422 CURVE SMOOTH"
);
}
);
width = 707;
}
);
note = Y;
unicode = 0059;
},
{
glyphname = Z;
layers = (
{
hints = (
{
horizontal = 1;
place = "{-19, 26}";
type = Stem;
},
{
horizontal = 1;
place = "{219, 26}";
type = Stem;
},
{
horizontal = 1;
place = "{316, 26}";
type = Stem;
},
{
horizontal = 1;
place = "{517, 26}";
type = Stem;
},
{
place = "{4, 23}";
type = Stem;
},
{
place = "{541, 26}";
type = Stem;
},
{
place = "{706, 42}";
type = Stem;
}
);
layerId = "A20F32D1-A37C-460A-962C-541C205D5E83";
paths = (
{
closed = 1;
nodes = (
"801 532 OFFCURVE",
"796 536 OFFCURVE",
"787 536 CURVE SMOOTH",
"771 536 OFFCURVE",
"756 530 OFFCURVE",
"742 518 CURVE",
"731 505 OFFCURVE",
"720 493 OFFCURVE",
"708 481 CURVE",
"661 481 OFFCURVE",
"603 490 OFFCURVE",
"536 508 CURVE SMOOTH",
"444 531 OFFCURVE",
"381 543 OFFCURVE",
"347 543 CURVE SMOOTH",
"310 543 OFFCURVE",
"278 534 OFFCURVE",
"253 516 CURVE SMOOTH",
"225 495 OFFCURVE",
"211 467 OFFCURVE",
"211 430 CURVE SMOOTH",
"211 425 OFFCURVE",
"213 423 OFFCURVE",
"218 423 CURVE SMOOTH",
"224 423 OFFCURVE",
"228 428 OFFCURVE",
"231 438 CURVE SMOOTH",
"236 454 OFFCURVE",
"240 465 OFFCURVE",
"242 471 CURVE SMOOTH",
"256 501 OFFCURVE",
"291 517 OFFCURVE",
"347 517 CURVE SMOOTH",
"385 517 OFFCURVE",
"438 508 OFFCURVE",
"504 490 CURVE SMOOTH",
"576 470 OFFCURVE",
"627 459 OFFCURVE",
"660 457 CURVE",
"605 427 OFFCURVE",
"553 391 OFFCURVE",
"504 349 CURVE",
"487 352 OFFCURVE",
"472 354 OFFCURVE",
"459 354 CURVE SMOOTH",
"438 354 OFFCURVE",
"415 350 OFFCURVE",
"390 343 CURVE SMOOTH",
"357 334 OFFCURVE",
"340 321 OFFCURVE",
"340 305 CURVE SMOOTH",
"340 291 OFFCURVE",
"344 284 OFFCURVE",
"352 284 CURVE",
"404 306 OFFCURVE",
"443 319 OFFCURVE",
"472 321 CURVE",
"430 282 OFFCURVE",
"378 227 OFFCURVE",
"317 157 CURVE",
"272 215 OFFCURVE",
"220 244 OFFCURVE",
"162 244 CURVE SMOOTH",
"118 244 OFFCURVE",
"80 232 OFFCURVE",
"50 208 CURVE SMOOTH",
"19 182 OFFCURVE",
"4 147 OFFCURVE",
"4 104 CURVE SMOOTH",
"4 70 OFFCURVE",
"13 42 OFFCURVE",
"31 19 CURVE SMOOTH",
"50 -6 OFFCURVE",
"77 -19 OFFCURVE",
"110 -19 CURVE SMOOTH",
"139 -19 OFFCURVE",
"173 -6 OFFCURVE",
"212 20 CURVE SMOOTH",
"277 62 OFFCURVE",
"315 91 OFFCURVE",
"329 105 CURVE",
"363 63 OFFCURVE",
"400 33 OFFCURVE",
"438 15 CURVE SMOOTH",
"477 -2 OFFCURVE",
"524 -11 OFFCURVE",
"580 -11 CURVE SMOOTH",
"626 -11 OFFCURVE",
"664 1 OFFCURVE",
"696 24 CURVE SMOOTH",
"731 50 OFFCURVE",
"748 85 OFFCURVE",
"748 130 CURVE SMOOTH",
"748 163 OFFCURVE",
"737 191 OFFCURVE",
"716 212 CURVE SMOOTH",
"694 234 OFFCURVE",
"666 245 OFFCURVE",
"633 245 CURVE SMOOTH",
"571 245 OFFCURVE",
"540 222 OFFCURVE",
"540 176 CURVE SMOOTH",
"540 149 OFFCURVE",
"555 129 OFFCURVE",
"586 114 CURVE",
"590 113 OFFCURVE",
"593 112 OFFCURVE",
"595 112 CURVE SMOOTH",
"600 112 OFFCURVE",
"603 114 OFFCURVE",
"603 119 CURVE SMOOTH",
"603 123 OFFCURVE",
"597 131 OFFCURVE",
"585 144 CURVE SMOOTH",
"572 156 OFFCURVE",
"566 167 OFFCURVE",
"566 176 CURVE SMOOTH",
"566 204 OFFCURVE",
"588 219 OFFCURVE",
"633 219 CURVE SMOOTH",
"656 219 OFFCURVE",
"673 209 OFFCURVE",
"687 191 CURVE SMOOTH",
"699 174 OFFCURVE",
"706 155 OFFCURVE",
"706 131 CURVE SMOOTH",
"706 95 OFFCURVE",
"694 67 OFFCURVE",
"670 46 CURVE SMOOTH",
"646 25 OFFCURVE",
"616 14 OFFCURVE",
"580 14 CURVE SMOOTH",
"526 14 OFFCURVE",
"481 23 OFFCURVE",
"447 39 CURVE SMOOTH",
"412 55 OFFCURVE",
"379 84 OFFCURVE",
"346 125 CURVE",
"416 209 OFFCURVE",
"479 274 OFFCURVE",
"534 321 CURVE",
"605 318 OFFCURVE",
"643 316 OFFCURVE",
"648 316 CURVE SMOOTH",
"656 316 OFFCURVE",
"660 320 OFFCURVE",
"660 329 CURVE SMOOTH",
"660 338 OFFCURVE",
"656 342 OFFCURVE",
"647 342 CURVE SMOOTH",
"642 342 OFFCURVE",
"634 342 OFFCURVE",
"623 341 CURVE SMOOTH",
"612 340 OFFCURVE",
"604 339 OFFCURVE",
"599 339 CURVE SMOOTH",
"585 339 OFFCURVE",
"572 340 OFFCURVE",
"559 341 CURVE",
"600 374 OFFCURVE",
"649 407 OFFCURVE",
"706 439 CURVE SMOOTH",
"734 456 OFFCURVE",
"754 466 OFFCURVE",
"765 473 CURVE SMOOTH",
"789 486 OFFCURVE",
"801 503 OFFCURVE",
"801 523 CURVE SMOOTH"
);
},
{
closed = 1;
nodes = (
"224 50 OFFCURVE",
"157 7 OFFCURVE",
"101 7 CURVE SMOOTH",
"79 7 OFFCURVE",
"61 15 OFFCURVE",
"47 30 CURVE SMOOTH",
"34 45 OFFCURVE",
"27 64 OFFCURVE",
"27 86 CURVE SMOOTH",
"27 122 OFFCURVE",
"41 150 OFFCURVE",
"68 172 CURVE SMOOTH",
"93 191 OFFCURVE",
"125 201 OFFCURVE",
"161 201 CURVE SMOOTH",
"224 201 OFFCURVE",
"270 179 OFFCURVE",
"300 137 CURVE"
);
}
);
width = 772;
}
);
note = Z;
unicode = 005A;
},
{
glyphname = a;
layers = (
{
hints = (
{
horizontal = 1;
place = "{55, 19}";
type = Stem;
},
{
horizontal = 1;
place = "{78, 19}";
type = Stem;
},
{
horizontal = 1;
place = "{289, 31}";
type = Stem;
},
{
place = "{12, 18}";
type = Stem;
}
);
layerId = "A20F32D1-A37C-460A-962C-541C205D5E83";
paths = (
{
closed = 1;
nodes = (
"299 249 OFFCURVE",
"297 252 OFFCURVE",
"293 252 CURVE SMOOTH",
"291 252 OFFCURVE",
"289 251 OFFCURVE",
"288 248 CURVE SMOOTH",
"284 234 OFFCURVE",
"281 224 OFFCURVE",
"279 219 CURVE SMOOTH",
"253 138 OFFCURVE",
"229 97 OFFCURVE",
"209 97 CURVE SMOOTH",
"199 97 OFFCURVE",
"194 110 OFFCURVE",
"194 137 CURVE SMOOTH",
"194 155 OFFCURVE",
"198 184 OFFCURVE",
"203 222 CURVE SMOOTH",
"206 249 OFFCURVE",
"207 262 OFFCURVE",
"207 261 CURVE SMOOTH",
"207 265 OFFCURVE",
"205 266 OFFCURVE",
"200 266 CURVE SMOOTH",
"188 266 OFFCURVE",
"181 263 OFFCURVE",
"178 257 CURVE SMOOTH",
"169 238 OFFCURVE",
"162 225 OFFCURVE",
"159 218 CURVE SMOOTH",
"107 122 OFFCURVE",
"68 74 OFFCURVE",
"44 74 CURVE SMOOTH",
"35 74 OFFCURVE",
"30 83 OFFCURVE",
"30 101 CURVE SMOOTH",
"30 127 OFFCURVE",
"46 164 OFFCURVE",
"78 212 CURVE SMOOTH",
"112 264 OFFCURVE",
"141 290 OFFCURVE",
"166 290 CURVE SMOOTH",
"167 290 OFFCURVE",
"170 289 OFFCURVE",
"173 288 CURVE",
"177 288 OFFCURVE",
"179 287 OFFCURVE",
"181 287 CURVE SMOOTH",
"190 287 OFFCURVE",
"194 290 OFFCURVE",
"194 297 CURVE SMOOTH",
"194 313 OFFCURVE",
"183 320 OFFCURVE",
"160 320 CURVE SMOOTH",
"127 320 OFFCURVE",
"93 293 OFFCURVE",
"59 238 CURVE SMOOTH",
"27 187 OFFCURVE",
"12 144 OFFCURVE",
"12 107 CURVE SMOOTH",
"12 94 OFFCURVE",
"15 82 OFFCURVE",
"22 71 CURVE SMOOTH",
"29 60 OFFCURVE",
"39 55 OFFCURVE",
"51 55 CURVE SMOOTH",
"85 55 OFFCURVE",
"124 106 OFFCURVE",
"167 209 CURVE",
"166 195 OFFCURVE",
"166 183 OFFCURVE",
"166 172 CURVE SMOOTH",
"166 110 OFFCURVE",
"181 78 OFFCURVE",
"212 78 CURVE SMOOTH",
"220 78 OFFCURVE",
"228 81 OFFCURVE",
"234 86 CURVE SMOOTH",
"245 96 OFFCURVE",
"258 121 OFFCURVE",
"275 161 CURVE SMOOTH",
"291 201 OFFCURVE",
"299 229 OFFCURVE",
"299 244 CURVE SMOOTH"
);
}
);
width = 274;
}
);
note = a;
unicode = 0061;
},
{
glyphname = ae;
layers = (
{
hints = (
{
horizontal = 1;
place = "{-18, 23}";
type = Stem;
},
{
horizontal = 1;
place = "{231, 31}";
type = Stem;
},
{
place = "{18, 19}";
type = Stem;
},
{
place = "{346, 26}";
type = Stem;
}
);
layerId = "A20F32D1-A37C-460A-962C-541C205D5E83";
paths = (
{
closed = 1;
nodes = (
"474 195 OFFCURVE",
"473 196 OFFCURVE",
"472 196 CURVE SMOOTH",
"466 196 OFFCURVE",
"458 190 OFFCURVE",
"448 176 CURVE SMOOTH",
"364 62 OFFCURVE",
"299 5 OFFCURVE",
"255 5 CURVE SMOOTH",
"246 5 OFFCURVE",
"237 8 OFFCURVE",
"228 14 CURVE SMOOTH",
"219 20 OFFCURVE",
"215 27 OFFCURVE",
"216 35 CURVE",
"249 57 OFFCURVE",
"269 71 OFFCURVE",
"275 77 CURVE SMOOTH",
"340 140 OFFCURVE",
"372 192 OFFCURVE",
"372 231 CURVE SMOOTH",
"372 252 OFFCURVE",
"354 263 OFFCURVE",
"319 263 CURVE SMOOTH",
"285 263 OFFCURVE",
"255 246 OFFCURVE",
"229 213 CURVE",
"224 215 OFFCURVE",
"217 216 OFFCURVE",
"209 217 CURVE SMOOTH",
"198 218 OFFCURVE",
"192 218 OFFCURVE",
"191 215 CURVE SMOOTH",
"179 189 OFFCURVE",
"171 171 OFFCURVE",
"166 160 CURVE SMOOTH",
"115 64 OFFCURVE",
"76 16 OFFCURVE",
"50 16 CURVE SMOOTH",
"41 16 OFFCURVE",
"37 26 OFFCURVE",
"37 44 CURVE SMOOTH",
"37 70 OFFCURVE",
"53 107 OFFCURVE",
"85 155 CURVE SMOOTH",
"118 206 OFFCURVE",
"147 231 OFFCURVE",
"172 231 CURVE SMOOTH",
"174 231 OFFCURVE",
"176 231 OFFCURVE",
"180 230 CURVE SMOOTH",
"183 230 OFFCURVE",
"185 230 OFFCURVE",
"187 230 CURVE SMOOTH",
"196 230 OFFCURVE",
"201 233 OFFCURVE",
"201 239 CURVE SMOOTH",
"201 254 OFFCURVE",
"189 262 OFFCURVE",
"167 262 CURVE SMOOTH",
"133 262 OFFCURVE",
"100 234 OFFCURVE",
"66 180 CURVE SMOOTH",
"34 129 OFFCURVE",
"18 86 OFFCURVE",
"18 50 CURVE SMOOTH",
"18 36 OFFCURVE",
"22 25 OFFCURVE",
"29 14 CURVE SMOOTH",
"35 2 OFFCURVE",
"45 -4 OFFCURVE",
"59 -4 CURVE SMOOTH",
"92 -4 OFFCURVE",
"130 48 OFFCURVE",
"174 151 CURVE",
"173 137 OFFCURVE",
"173 125 OFFCURVE",
"173 113 CURVE SMOOTH",
"173 26 OFFCURVE",
"203 -18 OFFCURVE",
"265 -18 CURVE SMOOTH",
"305 -18 OFFCURVE",
"346 8 OFFCURVE",
"389 59 CURVE SMOOTH",
"410 84 OFFCURVE",
"438 127 OFFCURVE",
"473 185 CURVE",
"474 188 OFFCURVE",
"474 190 OFFCURVE",
"474 193 CURVE SMOOTH"
);
},
{
closed = 1;
nodes = (
"346 204 OFFCURVE",
"330 171 OFFCURVE",
"299 130 CURVE SMOOTH",
"268 90 OFFCURVE",
"241 67 OFFCURVE",
"216 63 CURVE",
"213 65 OFFCURVE",
"212 69 OFFCURVE",
"212 77 CURVE SMOOTH",
"212 87 OFFCURVE",
"214 100 OFFCURVE",
"219 115 CURVE SMOOTH",
"228 145 OFFCURVE",
"250 177 OFFCURVE",
"284 210 CURVE SMOOTH",
"307 231 OFFCURVE",
"325 242 OFFCURVE",
"337 242 CURVE SMOOTH",
"343 242 OFFCURVE",
"346 238 OFFCURVE",
"346 230 CURVE SMOOTH"
);
}
);
width = 446;
}
);
note = ae;
unicode = 00E6;
},
{
glyphname = b;
layers = (
{
hints = (
{
horizontal = 1;
place = "{12, 20}";
type = Stem;
},
{
horizontal = 1;
place = "{91, 17}";
type = Stem;
},
{
horizontal = 1;
place = "{287, 19}";
type = Stem;
},
{
place = "{64, 27}";
type = Stem;
},
{
place = "{107, 29}";
type = Stem;
},
{
place = "{264, 46}";
type = Stem;
}
);
layerId = "A20F32D1-A37C-460A-962C-541C205D5E83";
paths = (
{
closed = 1;
nodes = (
"311 275 OFFCURVE",
"278 306 OFFCURVE",
"212 306 CURVE SMOOTH",
"161 306 OFFCURVE",
"121 274 OFFCURVE",
"91 209 CURVE",
"91 231 LINE SMOOTH",
"91 290 OFFCURVE",
"86 353 OFFCURVE",
"78 423 CURVE SMOOTH",
"76 441 OFFCURVE",
"75 459 OFFCURVE",
"73 476 CURVE SMOOTH",
"69 502 OFFCURVE",
"60 515 OFFCURVE",
"48 515 CURVE SMOOTH",
"26 515 OFFCURVE",
"14 506 OFFCURVE",
"14 489 CURVE SMOOTH",
"14 486 OFFCURVE",
"15 483 OFFCURVE",
"16 481 CURVE SMOOTH",
"48 377 OFFCURVE",
"64 267 OFFCURVE",
"64 150 CURVE SMOOTH",
"64 136 OFFCURVE",
"62 115 OFFCURVE",
"58 86 CURVE SMOOTH",
"53 58 OFFCURVE",
"51 37 OFFCURVE",
"51 23 CURVE SMOOTH",
"51 16 OFFCURVE",
"56 12 OFFCURVE",
"66 12 CURVE SMOOTH",
"75 12 OFFCURVE",
"79 22 OFFCURVE",
"79 41 CURVE SMOOTH",
"80 55 OFFCURVE",
"83 72 OFFCURVE",
"87 93 CURVE SMOOTH",
"97 137 OFFCURVE",
"111 176 OFFCURVE",
"128 211 CURVE SMOOTH",
"153 262 OFFCURVE",
"181 287 OFFCURVE",
"212 287 CURVE SMOOTH",
"247 287 OFFCURVE",
"265 257 OFFCURVE",
"265 196 CURVE SMOOTH",
"265 165 OFFCURVE",
"255 133 OFFCURVE",
"234 99 CURVE SMOOTH",
"211 61 OFFCURVE",
"185 42 OFFCURVE",
"156 42 CURVE SMOOTH",
"143 42 OFFCURVE",
"136 47 OFFCURVE",
"136 58 CURVE SMOOTH",
"136 73 OFFCURVE",
"143 84 OFFCURVE",
"157 91 CURVE",
"178 84 OFFCURVE",
"186 80 OFFCURVE",
"182 80 CURVE SMOOTH",
"188 80 OFFCURVE",
"191 83 OFFCURVE",
"191 87 CURVE SMOOTH",
"191 93 OFFCURVE",
"187 98 OFFCURVE",
"179 102 CURVE SMOOTH",
"171 106 OFFCURVE",
"165 108 OFFCURVE",
"159 108 CURVE SMOOTH",
"147 108 OFFCURVE",
"135 103 OFFCURVE",
"124 93 CURVE SMOOTH",
"113 83 OFFCURVE",
"107 72 OFFCURVE",
"107 60 CURVE SMOOTH",
"107 38 OFFCURVE",
"126 26 OFFCURVE",
"163 26 CURVE SMOOTH",
"201 26 OFFCURVE",
"236 48 OFFCURVE",
"267 92 CURVE SMOOTH",
"296 132 OFFCURVE",
"311 172 OFFCURVE",
"311 212 CURVE SMOOTH"
);
}
);
width = 324;
}
);
note = b;
unicode = 0062;
},
{
glyphname = c;
layers = (
{
hints = (
{
horizontal = 1;
place = "{29, 25}";
type = Stem;
},
{
horizontal = 1;
place = "{201, 17}";
type = Stem;
},
{
horizontal = 1;
place = "{308, 21}";
target = up;
type = BottomGhost;
},
{
place = "{23, 39}";
type = Stem;
},
{
place = "{120, 21}";
type = Stem;
},
{
place = "{219, 35}";
type = Stem;
}
);
layerId = "A20F32D1-A37C-460A-962C-541C205D5E83";
paths = (
{
closed = 1;
nodes = (
"287 116 OFFCURVE",
"286 118 OFFCURVE",
"284 118 CURVE SMOOTH",
"279 118 OFFCURVE",
"275 115 OFFCURVE",
"271 108 CURVE SMOOTH",
"264 99 OFFCURVE",
"260 93 OFFCURVE",
"258 89 CURVE",
"235 66 OFFCURVE",
"205 54 OFFCURVE",
"167 54 CURVE SMOOTH",
"135 54 OFFCURVE",
"109 64 OFFCURVE",
"90 83 CURVE SMOOTH",
"72 103 OFFCURVE",
"62 129 OFFCURVE",
"62 162 CURVE SMOOTH",
"62 199 OFFCURVE",
"74 231 OFFCURVE",
"96 261 CURVE SMOOTH",
"121 293 OFFCURVE",
"150 309 OFFCURVE",
"185 309 CURVE SMOOTH",
"196 309 OFFCURVE",
"206 307 OFFCURVE",
"215 304 CURVE",
"218 300 OFFCURVE",
"220 295 OFFCURVE",
"220 290 CURVE SMOOTH",
"220 275 OFFCURVE",
"211 260 OFFCURVE",
"195 243 CURVE SMOOTH",
"178 226 OFFCURVE",
"163 218 OFFCURVE",
"149 218 CURVE SMOOTH",
"144 218 OFFCURVE",
"141 221 OFFCURVE",
"141 226 CURVE SMOOTH",
"141 233 OFFCURVE",
"148 243 OFFCURVE",
"162 254 CURVE SMOOTH",
"175 266 OFFCURVE",
"182 273 OFFCURVE",
"182 275 CURVE SMOOTH",
"182 278 OFFCURVE",
"180 280 OFFCURVE",
"176 280 CURVE SMOOTH",
"166 280 OFFCURVE",
"154 273 OFFCURVE",
"140 260 CURVE SMOOTH",
"127 246 OFFCURVE",
"121 234 OFFCURVE",
"121 223 CURVE SMOOTH",
"121 208 OFFCURVE",
"130 201 OFFCURVE",
"149 201 CURVE SMOOTH",
"168 201 OFFCURVE",
"190 209 OFFCURVE",
"216 227 CURVE SMOOTH",
"242 244 OFFCURVE",
"255 262 OFFCURVE",
"255 281 CURVE SMOOTH",
"255 296 OFFCURVE",
"247 309 OFFCURVE",
"231 318 CURVE SMOOTH",
"219 325 OFFCURVE",
"204 329 OFFCURVE",
"187 329 CURVE SMOOTH",
"143 329 OFFCURVE",
"104 311 OFFCURVE",
"72 275 CURVE SMOOTH",
"40 238 OFFCURVE",
"23 197 OFFCURVE",
"23 151 CURVE SMOOTH",
"23 116 OFFCURVE",
"36 87 OFFCURVE",
"61 63 CURVE SMOOTH",
"86 40 OFFCURVE",
"117 29 OFFCURVE",
"153 29 CURVE SMOOTH",
"209 29 OFFCURVE",
"252 51 OFFCURVE",
"281 95 CURVE SMOOTH",
"285 101 OFFCURVE",
"287 107 OFFCURVE",
"287 112 CURVE SMOOTH"
);
}
);
width = 274;
}
);
note = c;
unicode = 0063;
},
{
glyphname = d;
layers = (
{
hints = (
{
horizontal = 1;
place = "{-110, 28}";
type = Stem;
},
{
horizontal = 1;
place = "{12, 22}";
type = Stem;
},
{
horizontal = 1;
place = "{457, 36}";
type = Stem;
},
{
place = "{12, 32}";
type = Stem;
},
{
place = "{116, 25}";
type = Stem;
},
{
place = "{209, 36}";
type = Stem;
}
);
layerId = "A20F32D1-A37C-460A-962C-541C205D5E83";
paths = (
{
closed = 1;
nodes = (
"301 -51 OFFCURVE",
"298 -42 OFFCURVE",
"292 -42 CURVE",
"290 -43 OFFCURVE",
"290 -44 OFFCURVE",
"290 -44 CURVE",
"286 -51 OFFCURVE",
"281 -58 OFFCURVE",
"276 -66 CURVE SMOOTH",
"270 -76 OFFCURVE",
"259 -82 OFFCURVE",
"243 -82 CURVE SMOOTH",
"204 -82 OFFCURVE",
"175 -32 OFFCURVE",
"156 67 CURVE",
"182 103 OFFCURVE",
"204 152 OFFCURVE",
"221 213 CURVE SMOOTH",
"237 271 OFFCURVE",
"245 324 OFFCURVE",
"245 374 CURVE SMOOTH",
"245 399 OFFCURVE",
"240 423 OFFCURVE",
"231 447 CURVE SMOOTH",
"220 478 OFFCURVE",
"203 493 OFFCURVE",
"182 493 CURVE SMOOTH",
"172 493 OFFCURVE",
"161 488 OFFCURVE",
"151 478 CURVE SMOOTH",
"133 459 OFFCURVE",
"122 432 OFFCURVE",
"118 397 CURVE SMOOTH",
"117 386 OFFCURVE",
"116 356 OFFCURVE",
"116 307 CURVE SMOOTH",
"116 284 LINE",
"100 273 OFFCURVE",
"81 250 OFFCURVE",
"59 217 CURVE SMOOTH",
"28 168 OFFCURVE",
"12 127 OFFCURVE",
"12 95 CURVE SMOOTH",
"12 73 OFFCURVE",
"17 54 OFFCURVE",
"28 39 CURVE SMOOTH",
"40 21 OFFCURVE",
"57 12 OFFCURVE",
"78 12 CURVE SMOOTH",
"98 12 OFFCURVE",
"117 22 OFFCURVE",
"136 41 CURVE",
"143 11 OFFCURVE",
"153 -19 OFFCURVE",
"167 -49 CURVE SMOOTH",
"185 -89 OFFCURVE",
"212 -110 OFFCURVE",
"248 -110 CURVE SMOOTH",
"261 -110 OFFCURVE",
"274 -106 OFFCURVE",
"284 -99 CURVE SMOOTH",
"295 -91 OFFCURVE",
"301 -81 OFFCURVE",
"301 -68 CURVE SMOOTH"
);
},
{
closed = 1;
nodes = (
"209 247 OFFCURVE",
"189 168 OFFCURVE",
"150 100 CURVE",
"146 141 OFFCURVE",
"143 194 OFFCURVE",
"141 258 CURVE",
"152 268 OFFCURVE",
"157 273 OFFCURVE",
"157 275 CURVE SMOOTH",
"157 284 OFFCURVE",
"152 289 OFFCURVE",
"141 291 CURVE",
"141 305 LINE SMOOTH",
"141 342 OFFCURVE",
"141 361 OFFCURVE",
"141 361 CURVE",
"141 378 OFFCURVE",
"145 396 OFFCURVE",
"150 416 CURVE SMOOTH",
"158 443 OFFCURVE",
"167 457 OFFCURVE",
"178 457 CURVE SMOOTH",
"199 457 OFFCURVE",
"209 417 OFFCURVE",
"209 337 CURVE SMOOTH"
);
},
{
closed = 1;
nodes = (
"113 45 OFFCURVE",
"94 33 OFFCURVE",
"76 33 CURVE SMOOTH",
"71 33 OFFCURVE",
"66 35 OFFCURVE",
"61 37 CURVE",
"50 47 OFFCURVE",
"44 62 OFFCURVE",
"44 83 CURVE SMOOTH",
"44 134 OFFCURVE",
"68 185 OFFCURVE",
"117 235 CURVE",
"119 165 OFFCURVE",
"123 110 OFFCURVE",
"131 68 CURVE"
);
}
);
width = 266;
}
);
note = d;
unicode = 0064;
},
{
glyphname = eth;
layers = (
{
hints = (
{
horizontal = 1;
place = "{11, 47}";
type = Stem;
},
{
horizontal = 1;
place = "{252, 28}";
type = Stem;
},
{
place = "{5, 27}";
type = Stem;
},
{
place = "{255, 42}";
type = Stem;
}
);
layerId = "A20F32D1-A37C-460A-962C-541C205D5E83";
paths = (
{
closed = 1;
nodes = (
"331 475 OFFCURVE",
"326 479 OFFCURVE",
"315 479 CURVE SMOOTH",
"289 479 OFFCURVE",
"259 470 OFFCURVE",
"225 453 CURVE",
"203 470 OFFCURVE",
"176 485 OFFCURVE",
"144 498 CURVE SMOOTH",
"109 512 OFFCURVE",
"79 519 OFFCURVE",
"54 519 CURVE SMOOTH",
"43 519 OFFCURVE",
"37 515 OFFCURVE",
"37 508 CURVE SMOOTH",
"37 499 OFFCURVE",
"45 493 OFFCURVE",
"60 491 CURVE SMOOTH",
"109 483 OFFCURVE",
"153 464 OFFCURVE",
"194 434 CURVE",
"143 402 OFFCURVE",
"118 382 OFFCURVE",
"118 374 CURVE SMOOTH",
"118 361 OFFCURVE",
"124 355 OFFCURVE",
"137 355 CURVE SMOOTH",
"141 355 OFFCURVE",
"168 374 OFFCURVE",
"219 411 CURVE",
"243 383 OFFCURVE",
"255 323 OFFCURVE",
"255 230 CURVE SMOOTH",
"255 191 OFFCURVE",
"247 154 OFFCURVE",
"230 121 CURVE SMOOTH",
"210 79 OFFCURVE",
"182 58 OFFCURVE",
"148 58 CURVE SMOOTH",
"116 58 OFFCURVE",
"89 70 OFFCURVE",
"66 96 CURVE SMOOTH",
"44 121 OFFCURVE",
"32 150 OFFCURVE",
"32 182 CURVE SMOOTH",
"32 210 OFFCURVE",
"42 229 OFFCURVE",
"62 239 CURVE SMOOTH",
"77 248 OFFCURVE",
"101 252 OFFCURVE",
"132 252 CURVE SMOOTH",
"146 252 OFFCURVE",
"156 250 OFFCURVE",
"164 248 CURVE SMOOTH",
"187 240 OFFCURVE",
"200 236 OFFCURVE",
"203 236 CURVE SMOOTH",
"208 236 OFFCURVE",
"211 239 OFFCURVE",
"211 244 CURVE SMOOTH",
"211 268 OFFCURVE",
"182 280 OFFCURVE",
"126 280 CURVE SMOOTH",
"46 280 OFFCURVE",
"5 244 OFFCURVE",
"5 173 CURVE SMOOTH",
"5 137 OFFCURVE",
"18 102 OFFCURVE",
"44 67 CURVE SMOOTH",
"72 29 OFFCURVE",
"103 11 OFFCURVE",
"137 11 CURVE SMOOTH",
"169 11 OFFCURVE",
"200 26 OFFCURVE",
"229 57 CURVE SMOOTH",
"274 105 OFFCURVE",
"297 163 OFFCURVE",
"297 230 CURVE SMOOTH",
"297 264 OFFCURVE",
"293 299 OFFCURVE",
"285 335 CURVE SMOOTH",
"276 379 OFFCURVE",
"263 411 OFFCURVE",
"248 430 CURVE",
"267 442 OFFCURVE",
"290 450 OFFCURVE",
"315 455 CURVE SMOOTH",
"326 458 OFFCURVE",
"331 462 OFFCURVE",
"331 468 CURVE SMOOTH"
);
}
);
width = 330;
}
);
note = eth;
unicode = 00F0;
},
{
glyphname = e;
layers = (
{
hints = (
{
horizontal = 1;
place = "{-18, 23}";
type = Stem;
},
{
horizontal = 1;
place = "{242, 21}";
target = up;
type = BottomGhost;
},
{
place = "{24, 32}";
type = Stem;
},
{
place = "{190, 26}";
type = Stem;
}
);
layerId = "A20F32D1-A37C-460A-962C-541C205D5E83";
paths = (
{
closed = 1;
nodes = (
"319 195 OFFCURVE",
"318 196 OFFCURVE",
"316 196 CURVE SMOOTH",
"309 196 OFFCURVE",
"302 189 OFFCURVE",
"293 176 CURVE SMOOTH",
"209 62 OFFCURVE",
"144 5 OFFCURVE",
"99 5 CURVE SMOOTH",
"90 5 OFFCURVE",
"81 8 OFFCURVE",
"72 14 CURVE SMOOTH",
"63 20 OFFCURVE",
"59 27 OFFCURVE",
"60 35 CURVE",
"93 57 OFFCURVE",
"113 71 OFFCURVE",
"119 77 CURVE SMOOTH",
"184 140 OFFCURVE",
"216 192 OFFCURVE",
"216 231 CURVE SMOOTH",
"216 252 OFFCURVE",
"198 263 OFFCURVE",
"163 263 CURVE SMOOTH",
"124 263 OFFCURVE",
"90 242 OFFCURVE",
"62 201 CURVE SMOOTH",
"37 163 OFFCURVE",
"24 123 OFFCURVE",
"24 82 CURVE SMOOTH",
"24 54 OFFCURVE",
"31 31 OFFCURVE",
"44 13 CURVE SMOOTH",
"59 -8 OFFCURVE",
"80 -18 OFFCURVE",
"108 -18 CURVE SMOOTH",
"149 -18 OFFCURVE",
"191 8 OFFCURVE",
"233 59 CURVE SMOOTH",
"255 84 OFFCURVE",
"283 127 OFFCURVE",
"317 185 CURVE",
"318 188 OFFCURVE",
"319 190 OFFCURVE",
"319 193 CURVE SMOOTH"
);
},
{
closed = 1;
nodes = (
"190 204 OFFCURVE",
"174 171 OFFCURVE",
"144 130 CURVE SMOOTH",
"113 90 OFFCURVE",
"85 67 OFFCURVE",
"60 63 CURVE",
"57 65 OFFCURVE",
"56 69 OFFCURVE",
"56 77 CURVE SMOOTH",
"56 87 OFFCURVE",
"58 100 OFFCURVE",
"63 115 CURVE SMOOTH",
"72 145 OFFCURVE",
"94 177 OFFCURVE",
"129 210 CURVE SMOOTH",
"152 231 OFFCURVE",
"169 242 OFFCURVE",
"181 242 CURVE SMOOTH",
"187 242 OFFCURVE",
"190 238 OFFCURVE",
"190 230 CURVE SMOOTH"
);
}
);
width = 291;
}
);
note = e;
unicode = 0065;
},
{
glyphname = schwa;
lastChange = "2021-10-01 05:57:18 +0000";
layers = (
{
hints = (
{
horizontal = 1;
place = "{304, -23}";
type = Stem;
},
{
horizontal = 1;
place = "{44, 21}";
target = up;
type = BottomGhost;
},
{
place = "{296, -32}";
type = Stem;
},
{
place = "{130, -26}";
type = Stem;
}
);
layerId = "A20F32D1-A37C-460A-962C-541C205D5E83";
paths = (
{
closed = 1;
nodes = (
"19 126 OFFCURVE",
"20 125 OFFCURVE",
"22 125 CURVE SMOOTH",
"29 125 OFFCURVE",
"36 132 OFFCURVE",
"46 144 CURVE SMOOTH",
"111 224 OFFCURVE",
"176 281 OFFCURVE",
"221 281 CURVE SMOOTH",
"230 281 OFFCURVE",
"239 278 OFFCURVE",
"248 272 CURVE SMOOTH",
"257 266 OFFCURVE",
"261 259 OFFCURVE",
"260 251 CURVE",
"227 229 OFFCURVE",
"205 216 OFFCURVE",
"177 190 CURVE SMOOTH",
"130 146 OFFCURVE",
"104 94 OFFCURVE",
"104 55 CURVE SMOOTH",
"104 34 OFFCURVE",
"122 23 OFFCURVE",
"157 23 CURVE SMOOTH",
"196 23 OFFCURVE",
"230 44 OFFCURVE",
"258 85 CURVE SMOOTH",
"283 123 OFFCURVE",
"296 163 OFFCURVE",
"296 204 CURVE SMOOTH",
"296 232 OFFCURVE",
"289 255 OFFCURVE",
"276 273 CURVE SMOOTH",
"261 294 OFFCURVE",
"240 304 OFFCURVE",
"212 304 CURVE SMOOTH",
"171 304 OFFCURVE",
"129 278 OFFCURVE",
"87 227 CURVE SMOOTH",
"65 202 OFFCURVE",
"51 179 OFFCURVE",
"21 136 CURVE",
"20 133 OFFCURVE",
"19 131 OFFCURVE",
"19 128 CURVE SMOOTH"
);
},
{
closed = 1;
nodes = (
"130 82 OFFCURVE",
"146 115 OFFCURVE",
"176 156 CURVE SMOOTH",
"207 196 OFFCURVE",
"235 219 OFFCURVE",
"260 223 CURVE",
"263 221 OFFCURVE",
"264 217 OFFCURVE",
"264 209 CURVE SMOOTH",
"264 199 OFFCURVE",
"262 186 OFFCURVE",
"257 171 CURVE SMOOTH",
"248 141 OFFCURVE",
"226 109 OFFCURVE",
"191 76 CURVE SMOOTH",
"168 55 OFFCURVE",
"151 44 OFFCURVE",
"139 44 CURVE SMOOTH",
"133 44 OFFCURVE",
"130 48 OFFCURVE",
"130 56 CURVE SMOOTH"
);
}
);
width = 291;
}
);
unicode = 0259;
},
{
glyphname = f;
layers = (
{
hints = (
{
horizontal = 1;
place = "{-352, 25}";
type = Stem;
},
{
horizontal = 1;
place = "{-234, 23}";
type = Stem;
},
{
horizontal = 1;
place = "{-111, 25}";
type = Stem;
},
{
horizontal = 1;
place = "{198, 27}";
type = Stem;
},
{
horizontal = 1;
place = "{544, 46}";
type = Stem;
},
{
place = "{-87, 44}";
type = Stem;
},
{
place = "{108, 28}";
type = Stem;
},
{
place = "{169, 49}";
type = Stem;
},
{
place = "{253, 39}";
type = Stem;
}
);
layerId = "A20F32D1-A37C-460A-962C-541C205D5E83";
paths = (
{
closed = 1;
nodes = (
"292 575 OFFCURVE",
"267 590 OFFCURVE",
"219 590 CURVE SMOOTH",
"145 590 OFFCURVE",
"108 532 OFFCURVE",
"108 416 CURVE SMOOTH",
"108 370 OFFCURVE",
"113 305 OFFCURVE",
"124 223 CURVE",
"75 220 OFFCURVE",
"50 211 OFFCURVE",
"50 194 CURVE SMOOTH",
"50 185 OFFCURVE",
"58 180 OFFCURVE",
"73 180 CURVE SMOOTH",
"75 180 OFFCURVE",
"93 183 OFFCURVE",
"129 188 CURVE",
"155 12 LINE SMOOTH",
"165 -55 OFFCURVE",
"169 -115 OFFCURVE",
"169 -167 CURVE SMOOTH",
"169 -215 OFFCURVE",
"164 -250 OFFCURVE",
"154 -274 CURVE SMOOTH",
"139 -309 OFFCURVE",
"111 -327 OFFCURVE",
"70 -327 CURVE SMOOTH",
"39 -327 OFFCURVE",
"12 -312 OFFCURVE",
"-11 -284 CURVE SMOOTH",
"-32 -256 OFFCURVE",
"-43 -227 OFFCURVE",
"-43 -194 CURVE SMOOTH",
"-43 -167 OFFCURVE",
"-35 -147 OFFCURVE",
"-18 -132 CURVE SMOOTH",
"0 -118 OFFCURVE",
"22 -111 OFFCURVE",
"50 -111 CURVE SMOOTH",
"57 -111 LINE",
"85 -129 OFFCURVE",
"99 -148 OFFCURVE",
"99 -167 CURVE SMOOTH",
"99 -179 OFFCURVE",
"93 -189 OFFCURVE",
"82 -198 CURVE SMOOTH",
"71 -207 OFFCURVE",
"60 -212 OFFCURVE",
"49 -212 CURVE SMOOTH",
"45 -212 OFFCURVE",
"40 -210 OFFCURVE",
"34 -208 CURVE SMOOTH",
"27 -206 OFFCURVE",
"23 -205 OFFCURVE",
"20 -205 CURVE SMOOTH",
"12 -205 OFFCURVE",
"8 -209 OFFCURVE",
"8 -216 CURVE SMOOTH",
"8 -228 OFFCURVE",
"22 -234 OFFCURVE",
"49 -234 CURVE SMOOTH",
"67 -234 OFFCURVE",
"84 -227 OFFCURVE",
"99 -214 CURVE SMOOTH",
"115 -200 OFFCURVE",
"123 -185 OFFCURVE",
"123 -167 CURVE SMOOTH",
"123 -144 OFFCURVE",
"114 -125 OFFCURVE",
"96 -109 CURVE SMOOTH",
"78 -93 OFFCURVE",
"58 -86 OFFCURVE",
"36 -86 CURVE SMOOTH",
"-4 -86 OFFCURVE",
"-41 -110 OFFCURVE",
"-73 -160 CURVE SMOOTH",
"-83 -175 OFFCURVE",
"-87 -198 OFFCURVE",
"-87 -228 CURVE SMOOTH",
"-87 -267 OFFCURVE",
"-76 -298 OFFCURVE",
"-54 -320 CURVE SMOOTH",
"-32 -341 OFFCURVE",
"-1 -352 OFFCURVE",
"39 -352 CURVE SMOOTH",
"158 -352 OFFCURVE",
"218 -292 OFFCURVE",
"218 -172 CURVE SMOOTH",
"218 -123 OFFCURVE",
"212 -62 OFFCURVE",
"196 11 CURVE SMOOTH",
"158 194 LINE",
"164 195 OFFCURVE",
"185 196 OFFCURVE",
"220 198 CURVE SMOOTH",
"245 199 OFFCURVE",
"265 202 OFFCURVE",
"280 207 CURVE SMOOTH",
"287 209 OFFCURVE",
"290 212 OFFCURVE",
"290 213 CURVE SMOOTH",
"290 221 OFFCURVE",
"268 225 OFFCURVE",
"223 225 CURVE SMOOTH",
"208 225 OFFCURVE",
"184 225 OFFCURVE",
"153 224 CURVE",
"142 294 OFFCURVE",
"136 351 OFFCURVE",
"136 397 CURVE SMOOTH",
"136 442 OFFCURVE",
"142 479 OFFCURVE",
"154 509 CURVE SMOOTH",
"163 533 OFFCURVE",
"180 545 OFFCURVE",
"206 545 CURVE SMOOTH",
"237 545 OFFCURVE",
"253 531 OFFCURVE",
"253 503 CURVE SMOOTH",
"253 492 OFFCURVE",
"248 479 OFFCURVE",
"239 463 CURVE SMOOTH",
"229 446 OFFCURVE",
"224 437 OFFCURVE",
"224 434 CURVE SMOOTH",
"224 427 OFFCURVE",
"227 423 OFFCURVE",
"234 423 CURVE SMOOTH",
"241 423 OFFCURVE",
"248 429 OFFCURVE",
"255 439 CURVE SMOOTH",
"279 477 OFFCURVE",
"292 512 OFFCURVE",
"292 545 CURVE SMOOTH"
);
}
);
width = 296;
}
);
note = f;
unicode = 0066;
},
{
glyphname = g;
layers = (
{
hints = (
{
horizontal = 1;
place = "{-271, 41}";
type = Stem;
},
{
horizontal = 1;
place = "{-148, 14}";
type = Stem;
},
{
horizontal = 1;
place = "{-64, 21}";
type = Stem;
},
{
horizontal = 1;
place = "{23, 31}";
type = Stem;
},
{
horizontal = 1;
place = "{241, 31}";
type = Stem;
},
{
place = "{-64, 22}";
type = Stem;
},
{
place = "{56, 30}";
type = Stem;
},
{
place = "{122, 20}";
type = Stem;
},
{
place = "{196, 21}";
type = Stem;
},
{
place = "{231, 27}";
type = Stem;
}
);
layerId = "A20F32D1-A37C-460A-962C-541C205D5E83";
paths = (
{
closed = 1;
nodes = (
"258 -95 OFFCURVE",
"255 -60 OFFCURVE",
"248 -21 CURVE SMOOTH",
"247 -12 OFFCURVE",
"241 19 OFFCURVE",
"229 72 CURVE SMOOTH",
"220 109 OFFCURVE",
"216 140 OFFCURVE",
"216 164 CURVE SMOOTH",
"216 167 OFFCURVE",
"216 172 OFFCURVE",
"217 179 CURVE SMOOTH",
"218 185 OFFCURVE",
"218 190 OFFCURVE",
"218 193 CURVE SMOOTH",
"218 199 LINE SMOOTH",
"217 206 OFFCURVE",
"214 209 OFFCURVE",
"209 209 CURVE SMOOTH",
"202 209 OFFCURVE",
"197 203 OFFCURVE",
"196 193 CURVE SMOOTH",
"196 169 LINE",
"194 151 OFFCURVE",
"186 128 OFFCURVE",
"174 101 CURVE SMOOTH",
"159 70 OFFCURVE",
"143 54 OFFCURVE",
"128 54 CURVE SMOOTH",
"113 54 OFFCURVE",
"101 64 OFFCURVE",
"94 86 CURVE SMOOTH",
"88 100 OFFCURVE",
"86 117 OFFCURVE",
"86 136 CURVE SMOOTH",
"86 152 OFFCURVE",
"88 165 OFFCURVE",
"93 176 CURVE SMOOTH",
"100 193 OFFCURVE",
"116 208 OFFCURVE",
"140 221 CURVE SMOOTH",
"163 235 OFFCURVE",
"185 241 OFFCURVE",
"205 241 CURVE SMOOTH",
"208 241 OFFCURVE",
"211 241 OFFCURVE",
"216 239 CURVE SMOOTH",
"221 238 OFFCURVE",
"225 238 OFFCURVE",
"228 238 CURVE SMOOTH",
"230 238 OFFCURVE",
"230 239 OFFCURVE",
"230 243 CURVE SMOOTH",
"230 262 OFFCURVE",
"218 272 OFFCURVE",
"194 272 CURVE SMOOTH",
"156 272 OFFCURVE",
"124 254 OFFCURVE",
"95 218 CURVE SMOOTH",
"69 185 OFFCURVE",
"56 149 OFFCURVE",
"56 111 CURVE SMOOTH",
"56 89 OFFCURVE",
"60 69 OFFCURVE",
"69 53 CURVE SMOOTH",
"81 33 OFFCURVE",
"97 23 OFFCURVE",
"117 23 CURVE SMOOTH",
"150 23 OFFCURVE",
"177 51 OFFCURVE",
"199 106 CURVE",
"219 -10 LINE SMOOTH",
"227 -57 OFFCURVE",
"231 -96 OFFCURVE",
"231 -126 CURVE SMOOTH",
"231 -195 OFFCURVE",
"198 -230 OFFCURVE",
"131 -230 CURVE SMOOTH",
"86 -230 OFFCURVE",
"42 -215 OFFCURVE",
"0 -185 CURVE SMOOTH",
"-28 -164 OFFCURVE",
"-42 -144 OFFCURVE",
"-42 -123 CURVE SMOOTH",
"-42 -84 OFFCURVE",
"-9 -64 OFFCURVE",
"57 -64 CURVE SMOOTH",
"68 -64 OFFCURVE",
"74 -65 OFFCURVE",
"75 -66 CURVE",
"86 -68 OFFCURVE",
"97 -74 OFFCURVE",
"107 -83 CURVE SMOOTH",
"117 -93 OFFCURVE",
"122 -102 OFFCURVE",
"122 -113 CURVE SMOOTH",
"122 -127 OFFCURVE",
"115 -134 OFFCURVE",
"101 -134 CURVE SMOOTH",
"93 -134 OFFCURVE",
"86 -131 OFFCURVE",
"78 -123 CURVE SMOOTH",
"71 -116 OFFCURVE",
"66 -113 OFFCURVE",
"64 -113 CURVE SMOOTH",
"58 -113 OFFCURVE",
"55 -116 OFFCURVE",
"55 -123 CURVE SMOOTH",
"55 -131 OFFCURVE",
"60 -137 OFFCURVE",
"72 -142 CURVE SMOOTH",
"81 -146 OFFCURVE",
"90 -148 OFFCURVE",
"98 -148 CURVE SMOOTH",
"128 -148 OFFCURVE",
"142 -137 OFFCURVE",
"142 -117 CURVE SMOOTH",
"142 -108 OFFCURVE",
"138 -98 OFFCURVE",
"131 -88 CURVE SMOOTH",
"107 -58 OFFCURVE",
"78 -43 OFFCURVE",
"42 -43 CURVE SMOOTH",
"18 -43 OFFCURVE",
"-5 -49 OFFCURVE",
"-27 -63 CURVE SMOOTH",
"-52 -78 OFFCURVE",
"-64 -98 OFFCURVE",
"-64 -120 CURVE SMOOTH",
"-64 -136 OFFCURVE",
"-59 -152 OFFCURVE",
"-49 -167 CURVE SMOOTH",
"-2 -237 OFFCURVE",
"66 -271 OFFCURVE",
"154 -271 CURVE SMOOTH",
"224 -271 OFFCURVE",
"258 -223 OFFCURVE",
"258 -126 CURVE SMOOTH"
);
}
);
width = 277;
}
);
note = g;
unicode = 0067;
},
{
glyphname = h;
layers = (
{
hints = (
{
horizontal = 1;
place = "{-95, 16}";
type = Stem;
},
{
horizontal = 1;
place = "{195, 25}";
type = Stem;
},
{
horizontal = 1;
place = "{397, 31}";
type = Stem;
},
{
place = "{68, 27}";
type = Stem;
},
{
place = "{174, 22}";
type = Stem;
},
{
place = "{204, 28}";
type = Stem;
},
{
place = "{242, 39}";
type = Stem;
},
{
place = "{296, 20}";
type = Stem;
}
);
layerId = "A20F32D1-A37C-460A-962C-541C205D5E83";
paths = (
{
closed = 1;
nodes = (
"316 -14 OFFCURVE",
"306 4 OFFCURVE",
"286 23 CURVE",
"283 25 OFFCURVE",
"281 26 OFFCURVE",
"280 26 CURVE SMOOTH",
"276 26 OFFCURVE",
"275 24 OFFCURVE",
"275 20 CURVE SMOOTH",
"275 17 OFFCURVE",
"276 15 OFFCURVE",
"279 12 CURVE",
"290 5 OFFCURVE",
"296 -5 OFFCURVE",
"296 -19 CURVE SMOOTH",
"296 -31 OFFCURVE",
"292 -44 OFFCURVE",
"284 -57 CURVE SMOOTH",
"275 -72 OFFCURVE",
"266 -79 OFFCURVE",
"255 -79 CURVE SMOOTH",
"240 -79 OFFCURVE",
"232 -67 OFFCURVE",
"232 -41 CURVE SMOOTH",
"232 -22 OFFCURVE",
"238 10 OFFCURVE",
"250 54 CURVE SMOOTH",
"262 96 OFFCURVE",
"272 128 OFFCURVE",
"278 149 CURVE SMOOTH",
"280 157 OFFCURVE",
"281 164 OFFCURVE",
"281 170 CURVE SMOOTH",
"281 203 OFFCURVE",
"266 220 OFFCURVE",
"237 220 CURVE SMOOTH",
"204 220 OFFCURVE",
"173 196 OFFCURVE",
"143 150 CURVE SMOOTH",
"119 114 OFFCURVE",
"103 76 OFFCURVE",
"95 36 CURVE",
"89 110 OFFCURVE",
"86 161 OFFCURVE",
"86 188 CURVE SMOOTH",
"86 204 OFFCURVE",
"87 218 OFFCURVE",
"88 230 CURVE",
"122 228 OFFCURVE",
"150 242 OFFCURVE",
"170 272 CURVE SMOOTH",
"188 298 OFFCURVE",
"196 329 OFFCURVE",
"196 365 CURVE SMOOTH",
"196 407 OFFCURVE",
"177 428 OFFCURVE",
"139 428 CURVE SMOOTH",
"97 428 OFFCURVE",
"74 366 OFFCURVE",
"68 242 CURVE",
"43 256 OFFCURVE",
"23 269 OFFCURVE",
"8 280 CURVE",
"3 280 OFFCURVE",
"1 277 OFFCURVE",
"1 272 CURVE SMOOTH",
"1 265 OFFCURVE",
"10 257 OFFCURVE",
"30 247 CURVE SMOOTH",
"46 238 OFFCURVE",
"59 233 OFFCURVE",
"68 231 CURVE",
"68 219 OFFCURVE",
"68 207 OFFCURVE",
"68 194 CURVE SMOOTH",
"68 128 OFFCURVE",
"72 68 OFFCURVE",
"79 14 CURVE SMOOTH",
"81 -1 LINE",
"81 -7 LINE SMOOTH",
"82 -14 OFFCURVE",
"84 -17 OFFCURVE",
"89 -17 CURVE SMOOTH",
"95 -17 OFFCURVE",
"100 -10 OFFCURVE",
"104 5 CURVE SMOOTH",
"125 75 OFFCURVE",
"145 124 OFFCURVE",
"164 149 CURVE SMOOTH",
"187 179 OFFCURVE",
"207 194 OFFCURVE",
"222 194 CURVE SMOOTH",
"236 194 OFFCURVE",
"242 184 OFFCURVE",
"242 162 CURVE SMOOTH",
"242 144 OFFCURVE",
"238 123 OFFCURVE",
"230 100 CURVE SMOOTH",
"213 47 OFFCURVE",
"204 5 OFFCURVE",
"204 -23 CURVE SMOOTH",
"204 -71 OFFCURVE",
"222 -95 OFFCURVE",
"257 -95 CURVE SMOOTH",
"296 -95 OFFCURVE",
"316 -74 OFFCURVE",
"316 -32 CURVE SMOOTH"
);
},
{
closed = 1;
nodes = (
"175 334 OFFCURVE",
"168 308 OFFCURVE",
"154 284 CURVE SMOOTH",
"137 255 OFFCURVE",
"116 240 OFFCURVE",
"92 240 CURVE SMOOTH",
"89 240 LINE",
"101 345 OFFCURVE",
"122 398 OFFCURVE",
"151 398 CURVE SMOOTH",
"167 398 OFFCURVE",
"175 386 OFFCURVE",
"175 361 CURVE SMOOTH"
);
}
);
width = 318;
}
);
note = h;
unicode = 0068;
},
{
glyphname = i;
lastChange = "2021-09-23 21:33:52 +0000";
layers = (
{
hints = (
{
horizontal = 1;
place = "{24, 22}";
type = Stem;
},
{
place = "{27, 35}";
type = Stem;
}
);
layerId = "A20F32D1-A37C-460A-962C-541C205D5E83";
paths = (
{
closed = 1;
nodes = (
"169 361 LINE",
"145 387 LINE",
"169 405 LINE",
"135 402 LINE",
"139 421 LINE",
"114 408 LINE",
"104 428 LINE",
"95 395 LINE",
"66 401 LINE",
"76 376 LINE",
"62 365 LINE",
"95 360 LINE",
"85 324 LINE",
"118 359 LINE",
"131 335 LINE",
"141 365 LINE"
);
},
{
closed = 1;
nodes = (
"231 153 OFFCURVE",
"230 155 OFFCURVE",
"229 155 CURVE SMOOTH",
"228 155 OFFCURVE",
"207 137 OFFCURVE",
"167 100 CURVE SMOOTH",
"126 64 OFFCURVE",
"97 46 OFFCURVE",
"80 46 CURVE SMOOTH",
"68 46 OFFCURVE",
"62 57 OFFCURVE",
"62 78 CURVE SMOOTH",
"62 120 OFFCURVE",
"77 181 OFFCURVE",
"108 260 CURVE SMOOTH",
"113 273 OFFCURVE",
"116 280 OFFCURVE",
"116 282 CURVE SMOOTH",
"116 294 OFFCURVE",
"105 301 OFFCURVE",
"82 301 CURVE SMOOTH",
"73 301 OFFCURVE",
"66 299 OFFCURVE",
"62 296 CURVE SMOOTH",
"54 289 OFFCURVE",
"50 284 OFFCURVE",
"50 281 CURVE SMOOTH",
"50 280 OFFCURVE",
"54 279 OFFCURVE",
"60 277 CURVE",
"38 179 OFFCURVE",
"27 115 OFFCURVE",
"27 86 CURVE SMOOTH",
"27 45 OFFCURVE",
"41 24 OFFCURVE",
"68 24 CURVE SMOOTH",
"89 24 OFFCURVE",
"117 39 OFFCURVE",
"154 68 CURVE SMOOTH",
"186 93 OFFCURVE",
"209 116 OFFCURVE",
"225 137 CURVE SMOOTH",
"229 142 OFFCURVE",
"231 147 OFFCURVE",
"231 150 CURVE SMOOTH"
);
}
);
width = 191;
}
);
note = i;
unicode = 0069;
},
{
color = 11;
glyphname = idotless;
lastChange = "2021-09-23 21:37:07 +0000";
layers = (
{
hints = (
{
horizontal = 1;
place = "{24, 22}";
type = Stem;
},
{
place = "{27, 35}";
type = Stem;
}
);
layerId = "A20F32D1-A37C-460A-962C-541C205D5E83";
paths = (
{
closed = 1;
nodes = (
"231 153 OFFCURVE",
"230 155 OFFCURVE",
"229 155 CURVE SMOOTH",
"228 155 OFFCURVE",
"207 137 OFFCURVE",
"167 100 CURVE SMOOTH",
"126 64 OFFCURVE",
"97 46 OFFCURVE",
"80 46 CURVE SMOOTH",
"68 46 OFFCURVE",
"62 57 OFFCURVE",
"62 78 CURVE SMOOTH",
"62 120 OFFCURVE",
"77 181 OFFCURVE",
"108 260 CURVE SMOOTH",
"113 273 OFFCURVE",
"116 280 OFFCURVE",
"116 282 CURVE SMOOTH",
"116 294 OFFCURVE",
"105 301 OFFCURVE",
"82 301 CURVE SMOOTH",
"73 301 OFFCURVE",
"66 299 OFFCURVE",
"62 296 CURVE SMOOTH",
"54 289 OFFCURVE",
"50 284 OFFCURVE",
"50 281 CURVE SMOOTH",
"50 280 OFFCURVE",
"54 279 OFFCURVE",
"60 277 CURVE",
"38 179 OFFCURVE",
"27 115 OFFCURVE",
"27 86 CURVE SMOOTH",
"27 45 OFFCURVE",
"41 24 OFFCURVE",
"68 24 CURVE SMOOTH",
"89 24 OFFCURVE",
"117 39 OFFCURVE",
"154 68 CURVE SMOOTH",
"186 93 OFFCURVE",
"209 116 OFFCURVE",
"225 137 CURVE SMOOTH",
"229 142 OFFCURVE",
"231 147 OFFCURVE",
"231 150 CURVE SMOOTH"
);
}
);
width = 191;
}
);
unicode = 0131;
},
{
glyphname = j;
layers = (
{
hints = (
{
horizontal = 1;
place = "{-356, 41}";
type = Stem;
},
{
horizontal = 1;
place = "{-267, 23}";
type = Stem;
},
{
horizontal = 1;
place = "{-59, 30}";
type = Stem;
},
{
horizontal = 1;
place = "{400, 15}";
type = Stem;
},
{
horizontal = 1;
place = "{431, 36}";
type = Stem;
},
{
horizontal = 1;
place = "{483, 22}";
type = Stem;
},
{
place = "{-134, 16}";
type = Stem;
},
{
place = "{-29, 21}";
type = Stem;
},
{
place = "{42, 20}";
type = Stem;
},
{
place = "{124, 20}";
type = Stem;
},
{
place = "{198, 42}";
type = Stem;
}
);
layerId = "A20F32D1-A37C-460A-962C-541C205D5E83";
paths = (
{
closed = 1;
nodes = (
"142 494 OFFCURVE",
"128 505 OFFCURVE",
"99 505 CURVE SMOOTH",
"83 505 OFFCURVE",
"70 499 OFFCURVE",
"59 488 CURVE SMOOTH",
"48 477 OFFCURVE",
"42 464 OFFCURVE",
"42 448 CURVE SMOOTH",
"42 430 OFFCURVE",
"48 417 OFFCURVE",
"59 411 CURVE SMOOTH",
"74 403 OFFCURVE",
"87 400 OFFCURVE",
"97 400 CURVE SMOOTH",
"104 400 OFFCURVE",
"113 402 OFFCURVE",
"123 408 CURVE SMOOTH",
"134 413 OFFCURVE",
"139 419 OFFCURVE",
"139 425 CURVE SMOOTH",
"139 428 OFFCURVE",
"138 429 OFFCURVE",
"136 429 CURVE SMOOTH",
"134 429 OFFCURVE",
"129 427 OFFCURVE",
"122 422 CURVE SMOOTH",
"114 417 OFFCURVE",
"107 415 OFFCURVE",
"101 415 CURVE SMOOTH",
"75 415 OFFCURVE",
"62 425 OFFCURVE",
"62 446 CURVE SMOOTH",
"62 457 OFFCURVE",
"67 465 OFFCURVE",
"76 473 CURVE SMOOTH",
"85 480 OFFCURVE",
"95 483 OFFCURVE",
"105 483 CURVE SMOOTH",
"119 483 OFFCURVE",
"126 479 OFFCURVE",
"126 471 CURVE SMOOTH",
"126 464 OFFCURVE",
"123 457 OFFCURVE",
"117 450 CURVE SMOOTH",
"111 443 OFFCURVE",
"105 440 OFFCURVE",
"98 440 CURVE SMOOTH",
"90 440 OFFCURVE",
"86 443 OFFCURVE",
"86 449 CURVE SMOOTH",
"86 450 OFFCURVE",
"89 453 OFFCURVE",
"95 456 CURVE SMOOTH",
"101 460 OFFCURVE",
"104 462 OFFCURVE",
"104 464 CURVE SMOOTH",
"104 466 OFFCURVE",
"101 467 OFFCURVE",
"95 467 CURVE SMOOTH",
"83 467 OFFCURVE",
"77 462 OFFCURVE",
"77 451 CURVE SMOOTH",
"77 438 OFFCURVE",
"85 431 OFFCURVE",
"101 431 CURVE SMOOTH",
"112 431 OFFCURVE",
"121 435 OFFCURVE",
"130 444 CURVE SMOOTH",
"138 452 OFFCURVE",
"142 462 OFFCURVE",
"142 473 CURVE SMOOTH"
);
},
{
closed = 1;
nodes = (
"240 -151 OFFCURVE",
"235 -117 OFFCURVE",
"224 -78 CURVE SMOOTH",
"197 23 OFFCURVE",
"179 93 OFFCURVE",
"168 131 CURVE SMOOTH",
"149 202 OFFCURVE",
"135 248 OFFCURVE",
"131 268 CURVE SMOOTH",
"125 291 OFFCURVE",
"123 314 OFFCURVE",
"121 336 CURVE",
"120 338 OFFCURVE",
"118 339 OFFCURVE",
"114 339 CURVE SMOOTH",
"100 339 OFFCURVE",
"93 335 OFFCURVE",
"93 328 CURVE SMOOTH",
"93 300 OFFCURVE",
"99 265 OFFCURVE",
"111 221 CURVE SMOOTH",
"124 174 OFFCURVE",
"135 138 OFFCURVE",
"141 114 CURVE SMOOTH",
"162 37 OFFCURVE",
"174 -10 OFFCURVE",
"178 -25 CURVE SMOOTH",
"192 -76 OFFCURVE",
"198 -124 OFFCURVE",
"198 -167 CURVE SMOOTH",
"198 -221 OFFCURVE",
"183 -259 OFFCURVE",
"154 -278 CURVE SMOOTH",
"117 -302 OFFCURVE",
"74 -314 OFFCURVE",
"23 -314 CURVE SMOOTH",
"-14 -314 OFFCURVE",
"-45 -306 OFFCURVE",
"-70 -293 CURVE SMOOTH",
"-102 -275 OFFCURVE",
"-118 -250 OFFCURVE",
"-118 -216 CURVE SMOOTH",
"-118 -196 OFFCURVE",
"-108 -174 OFFCURVE",
"-89 -148 CURVE SMOOTH",
"-71 -123 OFFCURVE",
"-50 -103 OFFCURVE",
"-24 -86 CURVE SMOOTH",
"5 -68 OFFCURVE",
"33 -59 OFFCURVE",
"60 -59 CURVE SMOOTH",
"103 -59 OFFCURVE",
"124 -76 OFFCURVE",
"124 -110 CURVE SMOOTH",
"124 -125 OFFCURVE",
"121 -138 OFFCURVE",
"114 -151 CURVE SMOOTH",
"106 -169 OFFCURVE",
"90 -189 OFFCURVE",
"66 -210 CURVE SMOOTH",
"39 -233 OFFCURVE",
"18 -244 OFFCURVE",
"1 -244 CURVE SMOOTH",
"-5 -244 OFFCURVE",
"-8 -242 OFFCURVE",
"-8 -237 CURVE SMOOTH",
"-8 -230 OFFCURVE",
"-3 -219 OFFCURVE",
"8 -205 CURVE SMOOTH",
"19 -191 OFFCURVE",
"24 -183 OFFCURVE",
"24 -179 CURVE SMOOTH",
"24 -171 OFFCURVE",
"22 -167 OFFCURVE",
"16 -167 CURVE SMOOTH",
"11 -167 OFFCURVE",
"4 -172 OFFCURVE",
"-7 -182 CURVE SMOOTH",
"-22 -195 OFFCURVE",
"-29 -212 OFFCURVE",
"-29 -231 CURVE SMOOTH",
"-29 -255 OFFCURVE",
"-17 -267 OFFCURVE",
"5 -267 CURVE SMOOTH",
"20 -267 OFFCURVE",
"40 -261 OFFCURVE",
"64 -248 CURVE SMOOTH",
"117 -220 OFFCURVE",
"144 -178 OFFCURVE",
"144 -122 CURVE SMOOTH",
"144 -60 OFFCURVE",
"115 -29 OFFCURVE",
"57 -29 CURVE SMOOTH",
"31 -29 OFFCURVE",
"-1 -40 OFFCURVE",
"-38 -62 CURVE SMOOTH",
"-65 -78 OFFCURVE",
"-88 -101 OFFCURVE",
"-106 -130 CURVE SMOOTH",
"-125 -158 OFFCURVE",
"-134 -188 OFFCURVE",
"-134 -218 CURVE SMOOTH",
"-134 -263 OFFCURVE",
"-112 -299 OFFCURVE",
"-67 -324 CURVE SMOOTH",
"-29 -345 OFFCURVE",
"14 -356 OFFCURVE",
"63 -356 CURVE SMOOTH",
"118 -356 OFFCURVE",
"162 -340 OFFCURVE",
"193 -310 CURVE SMOOTH",
"225 -280 OFFCURVE",
"240 -237 OFFCURVE",
"240 -182 CURVE SMOOTH"
);
}
);
width = 249;
}
);
note = j;
unicode = 006A;
},
{
color = 11;
glyphname = jdotless;
lastChange = "2021-09-23 21:37:07 +0000";
layers = (
{
hints = (
{
horizontal = 1;
place = "{-356, 41}";
type = Stem;
},
{
horizontal = 1;
place = "{-267, 23}";
type = Stem;
},
{
horizontal = 1;
place = "{-59, 30}";
type = Stem;
},
{
horizontal = 1;
place = "{400, 15}";
type = Stem;
},
{
horizontal = 1;
place = "{431, 36}";
type = Stem;
},
{
horizontal = 1;
place = "{483, 22}";
type = Stem;
},
{
place = "{-134, 16}";
type = Stem;
},
{
place = "{-29, 21}";
type = Stem;
},
{
place = "{42, 20}";
type = Stem;
},
{
place = "{124, 20}";
type = Stem;
},
{
place = "{198, 42}";
type = Stem;
}
);
layerId = "A20F32D1-A37C-460A-962C-541C205D5E83";
paths = (
{
closed = 1;
nodes = (
"240 -151 OFFCURVE",
"235 -117 OFFCURVE",
"224 -78 CURVE SMOOTH",
"197 23 OFFCURVE",
"179 93 OFFCURVE",
"168 131 CURVE SMOOTH",
"149 202 OFFCURVE",
"135 248 OFFCURVE",
"131 268 CURVE SMOOTH",
"125 291 OFFCURVE",
"123 314 OFFCURVE",
"121 336 CURVE",
"120 338 OFFCURVE",
"118 339 OFFCURVE",
"114 339 CURVE SMOOTH",
"100 339 OFFCURVE",
"93 335 OFFCURVE",
"93 328 CURVE SMOOTH",
"93 300 OFFCURVE",
"99 265 OFFCURVE",
"111 221 CURVE SMOOTH",
"124 174 OFFCURVE",
"135 138 OFFCURVE",
"141 114 CURVE SMOOTH",
"162 37 OFFCURVE",
"174 -10 OFFCURVE",
"178 -25 CURVE SMOOTH",
"192 -76 OFFCURVE",
"198 -124 OFFCURVE",
"198 -167 CURVE SMOOTH",
"198 -221 OFFCURVE",
"183 -259 OFFCURVE",
"154 -278 CURVE SMOOTH",
"117 -302 OFFCURVE",
"74 -314 OFFCURVE",
"23 -314 CURVE SMOOTH",
"-14 -314 OFFCURVE",
"-45 -306 OFFCURVE",
"-70 -293 CURVE SMOOTH",
"-102 -275 OFFCURVE",
"-118 -250 OFFCURVE",
"-118 -216 CURVE SMOOTH",
"-118 -196 OFFCURVE",
"-108 -174 OFFCURVE",
"-89 -148 CURVE SMOOTH",
"-71 -123 OFFCURVE",
"-50 -103 OFFCURVE",
"-24 -86 CURVE SMOOTH",
"5 -68 OFFCURVE",
"33 -59 OFFCURVE",
"60 -59 CURVE SMOOTH",
"103 -59 OFFCURVE",
"124 -76 OFFCURVE",
"124 -110 CURVE SMOOTH",
"124 -125 OFFCURVE",
"121 -138 OFFCURVE",
"114 -151 CURVE SMOOTH",
"106 -169 OFFCURVE",
"90 -189 OFFCURVE",
"66 -210 CURVE SMOOTH",
"39 -233 OFFCURVE",
"18 -244 OFFCURVE",
"1 -244 CURVE SMOOTH",
"-5 -244 OFFCURVE",
"-8 -242 OFFCURVE",
"-8 -237 CURVE SMOOTH",
"-8 -230 OFFCURVE",
"-3 -219 OFFCURVE",
"8 -205 CURVE SMOOTH",
"19 -191 OFFCURVE",
"24 -183 OFFCURVE",
"24 -179 CURVE SMOOTH",
"24 -171 OFFCURVE",
"22 -167 OFFCURVE",
"16 -167 CURVE SMOOTH",
"11 -167 OFFCURVE",
"4 -172 OFFCURVE",
"-7 -182 CURVE SMOOTH",
"-22 -195 OFFCURVE",
"-29 -212 OFFCURVE",
"-29 -231 CURVE SMOOTH",
"-29 -255 OFFCURVE",
"-17 -267 OFFCURVE",
"5 -267 CURVE SMOOTH",
"20 -267 OFFCURVE",
"40 -261 OFFCURVE",
"64 -248 CURVE SMOOTH",
"117 -220 OFFCURVE",
"144 -178 OFFCURVE",
"144 -122 CURVE SMOOTH",
"144 -60 OFFCURVE",
"115 -29 OFFCURVE",
"57 -29 CURVE SMOOTH",
"31 -29 OFFCURVE",
"-1 -40 OFFCURVE",
"-38 -62 CURVE SMOOTH",
"-65 -78 OFFCURVE",
"-88 -101 OFFCURVE",
"-106 -130 CURVE SMOOTH",
"-125 -158 OFFCURVE",
"-134 -188 OFFCURVE",
"-134 -218 CURVE SMOOTH",
"-134 -263 OFFCURVE",
"-112 -299 OFFCURVE",
"-67 -324 CURVE SMOOTH",
"-29 -345 OFFCURVE",
"14 -356 OFFCURVE",
"63 -356 CURVE SMOOTH",
"118 -356 OFFCURVE",
"162 -340 OFFCURVE",
"193 -310 CURVE SMOOTH",
"225 -280 OFFCURVE",
"240 -237 OFFCURVE",
"240 -182 CURVE SMOOTH"
);
}
);
width = 249;
}
);
unicode = 0237;
},
{
glyphname = k;
layers = (
{
hints = (
{
horizontal = 1;
place = "{-69, 32}";
type = Stem;
},
{
horizontal = 1;
place = "{269, 32}";
type = Stem;
},
{
horizontal = 1;
place = "{555, 41}";
type = Stem;
},
{
place = "{62, 18}";
type = Stem;
},
{
place = "{187, 26}";
type = Stem;
},
{
place = "{236, 49}";
type = Stem;
},
{
place = "{292, 19}";
type = Stem;
}
);
layerId = "A20F32D1-A37C-460A-962C-541C205D5E83";
paths = (
{
closed = 1;
nodes = (
"311 5 OFFCURVE",
"308 20 OFFCURVE",
"302 39 CURVE SMOOTH",
"294 61 OFFCURVE",
"287 72 OFFCURVE",
"279 72 CURVE SMOOTH",
"275 72 OFFCURVE",
"274 69 OFFCURVE",
"274 62 CURVE SMOOTH",
"274 56 OFFCURVE",
"277 46 OFFCURVE",
"283 31 CURVE SMOOTH",
"289 16 OFFCURVE",
"292 4 OFFCURVE",
"292 -5 CURVE SMOOTH",
"292 -27 OFFCURVE",
"286 -38 OFFCURVE",
"275 -38 CURVE SMOOTH",
"256 -38 OFFCURVE",
"228 29 OFFCURVE",
"192 162 CURVE",
"196 161 OFFCURVE",
"200 161 OFFCURVE",
"203 161 CURVE SMOOTH",
"223 161 OFFCURVE",
"242 171 OFFCURVE",
"259 191 CURVE SMOOTH",
"276 211 OFFCURVE",
"284 230 OFFCURVE",
"284 250 CURVE SMOOTH",
"284 264 OFFCURVE",
"280 276 OFFCURVE",
"272 286 CURVE SMOOTH",
"264 296 OFFCURVE",
"254 301 OFFCURVE",
"240 301 CURVE SMOOTH",
"208 301 OFFCURVE",
"175 271 OFFCURVE",
"141 213 CURVE SMOOTH",
"131 196 OFFCURVE",
"121 173 OFFCURVE",
"112 144 CURVE SMOOTH",
"88 73 LINE",
"83 171 OFFCURVE",
"80 238 OFFCURVE",
"80 275 CURVE SMOOTH",
"80 296 OFFCURVE",
"80 315 OFFCURVE",
"81 330 CURVE",
"123 329 OFFCURVE",
"157 349 OFFCURVE",
"182 391 CURVE SMOOTH",
"202 425 OFFCURVE",
"212 465 OFFCURVE",
"212 510 CURVE SMOOTH",
"212 539 OFFCURVE",
"206 559 OFFCURVE",
"192 572 CURVE SMOOTH",
"174 588 OFFCURVE",
"158 596 OFFCURVE",
"143 596 CURVE SMOOTH",
"97 596 OFFCURVE",
"71 513 OFFCURVE",
"64 347 CURVE",
"42 353 OFFCURVE",
"18 369 OFFCURVE",
"-8 395 CURVE",
"-11 397 OFFCURVE",
"-13 398 OFFCURVE",
"-14 398 CURVE SMOOTH",
"-21 398 OFFCURVE",
"-24 394 OFFCURVE",
"-24 387 CURVE SMOOTH",
"-24 383 OFFCURVE",
"-18 376 OFFCURVE",
"-5 365 CURVE SMOOTH",
"13 349 OFFCURVE",
"35 338 OFFCURVE",
"63 333 CURVE",
"62 311 OFFCURVE",
"62 289 OFFCURVE",
"62 266 CURVE SMOOTH",
"62 198 OFFCURVE",
"65 125 OFFCURVE",
"70 49 CURVE SMOOTH",
"71 31 OFFCURVE",
"72 20 OFFCURVE",
"73 16 CURVE SMOOTH",
"74 8 OFFCURVE",
"77 4 OFFCURVE",
"83 4 CURVE SMOOTH",
"91 4 OFFCURVE",
"97 13 OFFCURVE",
"101 32 CURVE SMOOTH",
"115 94 OFFCURVE",
"131 143 OFFCURVE",
"148 178 CURVE",
"154 167 LINE",
"159 164 OFFCURVE",
"166 141 OFFCURVE",
"176 100 CURVE SMOOTH",
"188 47 OFFCURVE",
"200 10 OFFCURVE",
"209 -11 CURVE SMOOTH",
"226 -50 OFFCURVE",
"245 -69 OFFCURVE",
"266 -69 CURVE SMOOTH",
"278 -69 OFFCURVE",
"288 -62 OFFCURVE",
"298 -46 CURVE SMOOTH",
"306 -32 OFFCURVE",
"311 -19 OFFCURVE",
"311 -5 CURVE SMOOTH"
);
},
{
closed = 1;
nodes = (
"186 471 OFFCURVE",
"178 437 OFFCURVE",
"161 403 CURVE SMOOTH",
"141 364 OFFCURVE",
"116 344 OFFCURVE",
"86 344 CURVE SMOOTH",
"82 344 LINE",
"87 395 OFFCURVE",
"95 439 OFFCURVE",
"104 477 CURVE SMOOTH",
"107 493 OFFCURVE",
"113 509 OFFCURVE",
"122 525 CURVE SMOOTH",
"134 545 OFFCURVE",
"146 554 OFFCURVE",
"158 554 CURVE SMOOTH",
"177 554 OFFCURVE",
"186 538 OFFCURVE",
"186 505 CURVE SMOOTH"
);
},
{
closed = 1;
nodes = (
"236 227 OFFCURVE",
"235 218 OFFCURVE",
"232 210 CURVE SMOOTH",
"230 202 OFFCURVE",
"224 194 OFFCURVE",
"216 187 CURVE SMOOTH",
"207 179 OFFCURVE",
"199 176 OFFCURVE",
"191 176 CURVE SMOOTH",
"176 176 OFFCURVE",
"166 184 OFFCURVE",
"159 200 CURVE",
"185 245 OFFCURVE",
"205 268 OFFCURVE",
"221 268 CURVE SMOOTH",
"231 268 OFFCURVE",
"236 258 OFFCURVE",
"236 238 CURVE SMOOTH"
);
}
);
width = 314;
}
);
note = k;
unicode = 006B;
},
{
glyphname = kgreenlandic;
lastChange = "2021-10-01 06:03:39 +0000";
layers = (
{
hints = (
{
horizontal = 1;
place = "{-18, 23}";
type = Stem;
},
{
place = "{273, 38}";
type = Stem;
}
);
layerId = "A20F32D1-A37C-460A-962C-541C205D5E83";
paths = (
{
closed = 1;
nodes = (
"384 371 OFFCURVE",
"381 374 OFFCURVE",
"374 374 CURVE SMOOTH",
"339 374 OFFCURVE",
"283 344 OFFCURVE",
"208 282 CURVE SMOOTH",
"175 254 OFFCURVE",
"141 221 OFFCURVE",
"110 184 CURVE",
"118 240 OFFCURVE",
"122 293 OFFCURVE",
"122 344 CURVE SMOOTH",
"122 370 OFFCURVE",
"121 384 OFFCURVE",
"120 388 CURVE SMOOTH",
"115 402 OFFCURVE",
"102 409 OFFCURVE",
"81 409 CURVE SMOOTH",
"57 409 OFFCURVE",
"43 402 OFFCURVE",
"45 389 CURVE SMOOTH",
"46 383 LINE SMOOTH",
"50 360 OFFCURVE",
"52 343 OFFCURVE",
"53 335 CURVE SMOOTH",
"62 268 OFFCURVE",
"67 217 OFFCURVE",
"67 182 CURVE SMOOTH",
"67 91 OFFCURVE",
"49 25 OFFCURVE",
"13 -16 CURVE SMOOTH",
"6 -24 OFFCURVE",
"2 -30 OFFCURVE",
"2 -33 CURVE SMOOTH",
"2 -40 OFFCURVE",
"6 -43 OFFCURVE",
"16 -43 CURVE SMOOTH",
"35 -43 OFFCURVE",
"54 -21 OFFCURVE",
"72 24 CURVE SMOOTH",
"82 49 OFFCURVE",
"92 79 OFFCURVE",
"100 114 CURVE",
"116 135 OFFCURVE",
"136 156 OFFCURVE",
"157 178 CURVE",
"176 184 OFFCURVE",
"192 187 OFFCURVE",
"203 187 CURVE SMOOTH",
"237 187 OFFCURVE",
"253 165 OFFCURVE",
"253 121 CURVE SMOOTH",
"253 110 OFFCURVE",
"251 94 OFFCURVE",
"247 72 CURVE SMOOTH",
"242 51 OFFCURVE",
"240 34 OFFCURVE",
"240 23 CURVE SMOOTH",
"240 -8 OFFCURVE",
"261 -24 OFFCURVE",
"300 -24 CURVE SMOOTH",
"322 -24 OFFCURVE",
"342 -17 OFFCURVE",
"362 -4 CURVE SMOOTH",
"382 10 OFFCURVE",
"392 26 OFFCURVE",
"392 44 CURVE SMOOTH",
"392 51 OFFCURVE",
"389 55 OFFCURVE",
"385 55 CURVE SMOOTH",
"379 55 OFFCURVE",
"373 47 OFFCURVE",
"367 32 CURVE SMOOTH",
"363 24 OFFCURVE",
"356 15 OFFCURVE",
"345 7 CURVE SMOOTH",
"333 -1 OFFCURVE",
"322 -6 OFFCURVE",
"312 -6 CURVE SMOOTH",
"302 -6 OFFCURVE",
"292 0 OFFCURVE",
"284 10 CURVE SMOOTH",
"277 20 OFFCURVE",
"274 29 OFFCURVE",
"274 39 CURVE SMOOTH",
"274 52 OFFCURVE",
"278 72 OFFCURVE",
"289 98 CURVE SMOOTH",
"299 123 OFFCURVE",
"305 143 OFFCURVE",
"305 155 CURVE SMOOTH",
"305 195 OFFCURVE",
"270 218 OFFCURVE",
"203 223 CURVE",
"232 268 OFFCURVE",
"296 320 OFFCURVE",
"349 346 CURVE SMOOTH",
"355 349 OFFCURVE",
"363 351 OFFCURVE",
"369 353 CURVE SMOOTH",
"380 358 OFFCURVE",
"384 363 OFFCURVE",
"384 367 CURVE SMOOTH"
);
}
);
width = 419;
}
);
unicode = 0138;
},
{
glyphname = l;
layers = (
{
hints = (
{
horizontal = 1;
place = "{23, 14}";
type = Stem;
},
{
place = "{13, 30}";
type = Stem;
},
{
place = "{187, 29}";
type = Stem;
}
);
layerId = "A20F32D1-A37C-460A-962C-541C205D5E83";
paths = (
{
closed = 1;
nodes = (
"216 542 OFFCURVE",
"204 553 OFFCURVE",
"180 553 CURVE SMOOTH",
"131 553 OFFCURVE",
"90 501 OFFCURVE",
"55 397 CURVE SMOOTH",
"27 313 OFFCURVE",
"13 241 OFFCURVE",
"13 180 CURVE SMOOTH",
"13 75 OFFCURVE",
"44 23 OFFCURVE",
"105 23 CURVE SMOOTH",
"132 23 OFFCURVE",
"152 31 OFFCURVE",
"167 50 CURVE SMOOTH",
"174 60 OFFCURVE",
"178 67 OFFCURVE",
"178 70 CURVE SMOOTH",
"178 73 OFFCURVE",
"177 75 OFFCURVE",
"174 75 CURVE SMOOTH",
"168 75 OFFCURVE",
"157 68 OFFCURVE",
"142 56 CURVE SMOOTH",
"127 43 OFFCURVE",
"114 37 OFFCURVE",
"104 37 CURVE SMOOTH",
"98 37 OFFCURVE",
"92 39 OFFCURVE",
"86 44 CURVE SMOOTH",
"57 66 OFFCURVE",
"42 107 OFFCURVE",
"42 168 CURVE SMOOTH",
"42 188 OFFCURVE",
"44 205 OFFCURVE",
"49 221 CURVE",
"83 261 OFFCURVE",
"118 308 OFFCURVE",
"151 363 CURVE SMOOTH",
"194 433 OFFCURVE",
"216 485 OFFCURVE",
"216 520 CURVE SMOOTH"
);
},
{
closed = 1;
nodes = (
"187 507 OFFCURVE",
"181 485 OFFCURVE",
"167 455 CURVE SMOOTH",
"122 355 OFFCURVE",
"86 293 OFFCURVE",
"60 267 CURVE",
"65 320 OFFCURVE",
"86 380 OFFCURVE",
"122 449 CURVE SMOOTH",
"148 497 OFFCURVE",
"169 523 OFFCURVE",
"186 527 CURVE",
"187 526 OFFCURVE",
"187 525 OFFCURVE",
"187 523 CURVE SMOOTH"
);
}
);
width = 200;
}
);
note = l;
unicode = 006C;
},
{
glyphname = m;
layers = (
{
hints = (
{
horizontal = 1;
place = "{-132, 26}";
type = Stem;
},
{
horizontal = 1;
place = "{7, 236}";
type = Stem;
},
{
horizontal = 1;
place = "{262, 32}";
type = Stem;
},
{
place = "{175, 36}";
type = Stem;
},
{
place = "{285, 49}";
type = Stem;
},
{
place = "{395, 30}";
type = Stem;
}
);
layerId = "A20F32D1-A37C-460A-962C-541C205D5E83";
paths = (
{
closed = 1;
nodes = (
"428 -33 OFFCURVE",
"424 -21 OFFCURVE",
"417 -5 CURVE SMOOTH",
"410 12 OFFCURVE",
"404 20 OFFCURVE",
"397 20 CURVE SMOOTH",
"393 20 OFFCURVE",
"391 17 OFFCURVE",
"391 11 CURVE SMOOTH",
"391 8 OFFCURVE",
"391 5 OFFCURVE",
"392 1 CURVE",
"404 -8 OFFCURVE",
"410 -20 OFFCURVE",
"410 -35 CURVE SMOOTH",
"410 -48 OFFCURVE",
"405 -63 OFFCURVE",
"393 -81 CURVE SMOOTH",
"381 -98 OFFCURVE",
"369 -106 OFFCURVE",
"356 -106 CURVE SMOOTH",
"341 -106 OFFCURVE",
"333 -94 OFFCURVE",
"333 -70 CURVE SMOOTH",
"333 -45 OFFCURVE",
"342 -9 OFFCURVE",
"360 39 CURVE SMOOTH",
"373 72 OFFCURVE",
"387 104 OFFCURVE",
"401 138 CURVE SMOOTH",
"417 181 OFFCURVE",
"425 214 OFFCURVE",
"425 238 CURVE SMOOTH",
"425 275 OFFCURVE",
"411 294 OFFCURVE",
"383 294 CURVE SMOOTH",
"354 294 OFFCURVE",
"320 277 OFFCURVE",
"281 240 CURVE SMOOTH",
"248 210 OFFCURVE",
"223 179 OFFCURVE",
"205 148 CURVE",
"209 164 OFFCURVE",
"211 179 OFFCURVE",
"211 192 CURVE SMOOTH",
"211 222 OFFCURVE",
"201 238 OFFCURVE",
"182 238 CURVE SMOOTH",
"177 238 OFFCURVE",
"171 237 OFFCURVE",
"164 235 CURVE",
"141 225 OFFCURVE",
"121 206 OFFCURVE",
"104 176 CURVE SMOOTH",
"98 167 OFFCURVE",
"85 142 OFFCURVE",
"66 100 CURVE",
"65 195 OFFCURVE",
"53 243 OFFCURVE",
"32 243 CURVE SMOOTH",
"26 243 OFFCURVE",
"23 240 OFFCURVE",
"23 235 CURVE SMOOTH",
"23 233 OFFCURVE",
"24 229 OFFCURVE",
"26 225 CURVE SMOOTH",
"35 207 OFFCURVE",
"40 187 OFFCURVE",
"40 164 CURVE SMOOTH",
"40 144 OFFCURVE",
"36 116 OFFCURVE",
"30 79 CURVE SMOOTH",
"25 53 OFFCURVE",
"23 37 OFFCURVE",
"23 30 CURVE SMOOTH",
"23 15 OFFCURVE",
"27 7 OFFCURVE",
"36 7 CURVE SMOOTH",
"43 7 OFFCURVE",
"53 25 OFFCURVE",
"68 60 CURVE SMOOTH",
"92 116 OFFCURVE",
"107 149 OFFCURVE",
"113 159 CURVE SMOOTH",
"131 194 OFFCURVE",
"150 212 OFFCURVE",
"167 212 CURVE SMOOTH",
"172 212 OFFCURVE",
"175 206 OFFCURVE",
"175 194 CURVE SMOOTH",
"175 175 OFFCURVE",
"168 147 OFFCURVE",
"156 110 CURVE SMOOTH",
"144 73 OFFCURVE",
"138 46 OFFCURVE",
"138 29 CURVE SMOOTH",
"138 19 OFFCURVE",
"143 14 OFFCURVE",
"153 14 CURVE SMOOTH",
"166 14 OFFCURVE",
"176 23 OFFCURVE",
"185 41 CURVE SMOOTH",
"251 189 OFFCURVE",
"310 263 OFFCURVE",
"362 263 CURVE SMOOTH",
"384 263 OFFCURVE",
"395 251 OFFCURVE",
"395 228 CURVE SMOOTH",
"395 193 OFFCURVE",
"389 165 OFFCURVE",
"376 144 CURVE SMOOTH",
"346 95 OFFCURVE",
"327 62 OFFCURVE",
"319 46 CURVE SMOOTH",
"296 2 OFFCURVE",
"284 -33 OFFCURVE",
"284 -58 CURVE SMOOTH",
"284 -78 OFFCURVE",
"289 -95 OFFCURVE",
"298 -109 CURVE SMOOTH",
"309 -125 OFFCURVE",
"323 -132 OFFCURVE",
"342 -132 CURVE SMOOTH",
"361 -132 OFFCURVE",
"380 -122 OFFCURVE",
"399 -101 CURVE SMOOTH",
"418 -81 OFFCURVE",
"428 -61 OFFCURVE",
"428 -41 CURVE SMOOTH"
);
}
);
width = 439;
}
);
note = m;
unicode = 006D;
},
{
glyphname = n;
layers = (
{
hints = (
{
horizontal = 1;
place = "{-11, 19}";
type = Stem;
},
{
horizontal = 1;
place = "{243, 23}";
type = Stem;
},
{
place = "{141, 25}";
type = Stem;
},
{
place = "{175, 38}";
type = Stem;
}
);
layerId = "A20F32D1-A37C-460A-962C-541C205D5E83";
paths = (
{
closed = 1;
nodes = (
"239 59 OFFCURVE",
"236 67 OFFCURVE",
"230 67 CURVE SMOOTH",
"229 67 OFFCURVE",
"229 65 OFFCURVE",
"229 61 CURVE SMOOTH",
"229 56 LINE SMOOTH",
"229 54 OFFCURVE",
"230 53 OFFCURVE",
"230 51 CURVE SMOOTH",
"230 41 OFFCURVE",
"227 32 OFFCURVE",
"221 23 CURVE SMOOTH",
"215 13 OFFCURVE",
"207 8 OFFCURVE",
"197 8 CURVE SMOOTH",
"177 8 OFFCURVE",
"167 24 OFFCURVE",
"167 56 CURVE SMOOTH",
"167 76 OFFCURVE",
"174 105 OFFCURVE",
"190 144 CURVE SMOOTH",
"206 182 OFFCURVE",
"213 211 OFFCURVE",
"213 230 CURVE SMOOTH",
"213 254 OFFCURVE",
"203 266 OFFCURVE",
"182 266 CURVE SMOOTH",
"157 266 OFFCURVE",
"134 248 OFFCURVE",
"111 213 CURVE SMOOTH",
"102 201 OFFCURVE",
"88 173 OFFCURVE",
"68 130 CURVE",
"68 226 OFFCURVE",
"57 274 OFFCURVE",
"35 274 CURVE SMOOTH",
"29 274 OFFCURVE",
"25 271 OFFCURVE",
"25 265 CURVE SMOOTH",
"25 262 OFFCURVE",
"27 259 OFFCURVE",
"29 256 CURVE SMOOTH",
"42 234 OFFCURVE",
"48 203 OFFCURVE",
"48 164 CURVE SMOOTH",
"48 151 OFFCURVE",
"44 131 OFFCURVE",
"37 105 CURVE SMOOTH",
"30 80 OFFCURVE",
"27 61 OFFCURVE",
"27 49 CURVE SMOOTH",
"27 41 OFFCURVE",
"30 38 OFFCURVE",
"37 38 CURVE SMOOTH",
"44 38 OFFCURVE",
"55 56 OFFCURVE",
"70 91 CURVE SMOOTH",
"95 147 OFFCURVE",
"111 180 OFFCURVE",
"116 190 CURVE SMOOTH",
"135 225 OFFCURVE",
"153 242 OFFCURVE",
"168 242 CURVE SMOOTH",
"173 242 OFFCURVE",
"176 238 OFFCURVE",
"176 229 CURVE SMOOTH",
"176 211 OFFCURVE",
"170 182 OFFCURVE",
"158 142 CURVE SMOOTH",
"147 102 OFFCURVE",
"141 73 OFFCURVE",
"141 54 CURVE SMOOTH",
"141 11 OFFCURVE",
"155 -11 OFFCURVE",
"182 -11 CURVE SMOOTH",
"197 -11 OFFCURVE",
"210 -5 OFFCURVE",
"221 5 CURVE SMOOTH",
"233 16 OFFCURVE",
"239 29 OFFCURVE",
"239 44 CURVE SMOOTH"
);
}
);
width = 242;
}
);
note = n;
unicode = 006E;
},
{
glyphname = eng;
lastChange = "2021-09-23 21:55:46 +0000";
layers = (
{
background = {
paths = (
{
closed = 1;
nodes = (
"171 -150 OFFCURVE",
"175 -124 OFFCURVE",
"176 -93 CURVE SMOOTH",
"181 -12 OFFCURVE",
"184 44 OFFCURVE",
"185 75 CURVE SMOOTH",
"188 132 OFFCURVE",
"189 169 OFFCURVE",
"191 185 CURVE SMOOTH",
"192 204 OFFCURVE",
"196 221 OFFCURVE",
"200 238 CURVE",
"199 239 OFFCURVE",
"198 241 OFFCURVE",
"195 242 CURVE SMOOTH",
"185 245 OFFCURVE",
"179 244 OFFCURVE",
"177 239 CURVE SMOOTH",
"170 218 OFFCURVE",
"166 191 OFFCURVE",
"165 155 CURVE SMOOTH",
"163 117 OFFCURVE",
"162 88 OFFCURVE",
"161 69 CURVE SMOOTH",
"158 7 OFFCURVE",
"156 -30 OFFCURVE",
"155 -43 CURVE SMOOTH",
"153 -84 OFFCURVE",
"146 -120 OFFCURVE",
"136 -152 CURVE SMOOTH",
"123 -192 OFFCURVE",
"103 -217 OFFCURVE",
"77 -224 CURVE SMOOTH",
"44 -232 OFFCURVE",
"9 -231 OFFCURVE",
"-29 -219 CURVE SMOOTH",
"-56 -210 OFFCURVE",
"-77 -197 OFFCURVE",
"-92 -181 CURVE SMOOTH",
"-112 -160 OFFCURVE",
"-117 -138 OFFCURVE",
"-109 -113 CURVE SMOOTH",
"-105 -98 OFFCURVE",
"-92 -84 OFFCURVE",
"-72 -69 CURVE SMOOTH",
"-52 -55 OFFCURVE",
"-32 -45 OFFCURVE",
"-9 -39 CURVE SMOOTH",
"17 -33 OFFCURVE",
"40 -33 OFFCURVE",
"60 -39 CURVE SMOOTH",
"92 -50 OFFCURVE",
"103 -67 OFFCURVE",
"95 -92 CURVE SMOOTH",
"91 -103 OFFCURVE",
"86 -112 OFFCURVE",
"78 -120 CURVE SMOOTH",
"67 -132 OFFCURVE",
"51 -143 OFFCURVE",
"28 -152 CURVE SMOOTH",
"3 -163 OFFCURVE",
"-16 -166 OFFCURVE",
"-28 -162 CURVE SMOOTH",
"-33 -160 OFFCURVE",
"-34 -158 OFFCURVE",
"-33 -154 CURVE SMOOTH",
"-31 -149 OFFCURVE",
"-25 -142 OFFCURVE",
"-14 -135 CURVE SMOOTH",
"-2 -127 OFFCURVE",
"3 -122 OFFCURVE",
"4 -119 CURVE SMOOTH",
"6 -113 OFFCURVE",
"6 -110 OFFCURVE",
"1 -108 CURVE SMOOTH",
"-2 -107 OFFCURVE",
"-9 -109 OFFCURVE",
"-19 -114 CURVE SMOOTH",
"-33 -120 OFFCURVE",
"-43 -131 OFFCURVE",
"-47 -145 CURVE SMOOTH",
"-53 -163 OFFCURVE",
"-47 -174 OFFCURVE",
"-31 -180 CURVE SMOOTH",
"-20 -183 OFFCURVE",
"-3 -184 OFFCURVE",
"17 -180 CURVE SMOOTH",
"63 -172 OFFCURVE",
"93 -147 OFFCURVE",
"107 -106 CURVE SMOOTH",
"122 -60 OFFCURVE",
"108 -30 OFFCURVE",
"65 -16 CURVE SMOOTH",
"46 -10 OFFCURVE",
"19 -11 OFFCURVE",
"-13 -18 CURVE SMOOTH",
"-37 -23 OFFCURVE",
"-60 -35 OFFCURVE",
"-80 -52 CURVE SMOOTH",
"-101 -68 OFFCURVE",
"-114 -88 OFFCURVE",
"-122 -110 CURVE SMOOTH",
"-132 -143 OFFCURVE",
"-125 -175 OFFCURVE",
"-98 -205 CURVE SMOOTH",
"-75 -229 OFFCURVE",
"-45 -248 OFFCURVE",
"-9 -259 CURVE SMOOTH",
"31 -273 OFFCURVE",
"68 -271 OFFCURVE",
"98 -257 CURVE SMOOTH",
"129 -242 OFFCURVE",
"150 -214 OFFCURVE",
"163 -173 CURVE SMOOTH"
);
}
);
};
hints = (
{
horizontal = 1;
place = "{-11, 19}";
type = Stem;
},
{
horizontal = 1;
place = "{243, 23}";
type = Stem;
},
{
place = "{141, 25}";
type = Stem;
},
{
place = "{175, 38}";
type = Stem;
},
{
horizontal = 1;
place = "{-356, 41}";
type = Stem;
},
{
horizontal = 1;
place = "{-267, 23}";
type = Stem;
},
{
horizontal = 1;
place = "{-59, 30}";
type = Stem;
},
{
horizontal = 1;
place = "{400, 15}";
type = Stem;
},
{
horizontal = 1;
place = "{431, 36}";
type = Stem;
},
{
horizontal = 1;
place = "{483, 22}";
type = Stem;
},
{
place = "{-134, 16}";
type = Stem;
},
{
place = "{-29, 21}";
type = Stem;
},
{
place = "{42, 20}";
type = Stem;
},
{
place = "{124, 20}";
type = Stem;
},
{
place = "{198, 42}";
type = Stem;
}
);
layerId = "A20F32D1-A37C-460A-962C-541C205D5E83";
paths = (
{
closed = 1;
nodes = (
"218 266 OFFCURVE",
"182 266 CURVE SMOOTH",
"157 266 OFFCURVE",
"134 248 OFFCURVE",
"111 213 CURVE SMOOTH",
"102 201 OFFCURVE",
"88 173 OFFCURVE",
"68 130 CURVE",
"68 226 OFFCURVE",
"57 274 OFFCURVE",
"35 274 CURVE SMOOTH",
"29 274 OFFCURVE",
"25 271 OFFCURVE",
"25 265 CURVE SMOOTH",
"25 262 OFFCURVE",
"27 259 OFFCURVE",
"29 256 CURVE SMOOTH",
"42 234 OFFCURVE",
"48 203 OFFCURVE",
"48 164 CURVE SMOOTH",
"48 151 OFFCURVE",
"44 131 OFFCURVE",
"37 105 CURVE SMOOTH",
"30 80 OFFCURVE",
"27 61 OFFCURVE",
"27 49 CURVE SMOOTH",
"27 41 OFFCURVE",
"30 38 OFFCURVE",
"37 38 CURVE SMOOTH",
"44 38 OFFCURVE",
"55 56 OFFCURVE",
"70 91 CURVE SMOOTH",
"95 147 OFFCURVE",
"111 180 OFFCURVE",
"116 190 CURVE SMOOTH",
"135 225 OFFCURVE",
"153 242 OFFCURVE",
"168 242 CURVE SMOOTH",
"176 242 OFFCURVE",
"177 232 OFFCURVE",
"178 204 CURVE SMOOTH",
"182 142 OFFCURVE",
"177 41 OFFCURVE",
"170 -43 CURVE SMOOTH",
"168 -84 OFFCURVE",
"161 -120 OFFCURVE",
"151 -152 CURVE SMOOTH",
"138 -192 OFFCURVE",
"118 -217 OFFCURVE",
"92 -224 CURVE SMOOTH",
"59 -232 OFFCURVE",
"24 -231 OFFCURVE",
"-14 -219 CURVE SMOOTH",
"-41 -210 OFFCURVE",
"-62 -197 OFFCURVE",
"-77 -181 CURVE SMOOTH",
"-97 -160 OFFCURVE",
"-102 -138 OFFCURVE",
"-94 -113 CURVE SMOOTH",
"-90 -98 OFFCURVE",
"-77 -84 OFFCURVE",
"-57 -69 CURVE SMOOTH",
"-37 -55 OFFCURVE",
"-17 -45 OFFCURVE",
"6 -39 CURVE SMOOTH",
"32 -33 OFFCURVE",
"55 -33 OFFCURVE",
"75 -39 CURVE SMOOTH",
"107 -50 OFFCURVE",
"118 -67 OFFCURVE",
"110 -92 CURVE SMOOTH",
"106 -103 OFFCURVE",
"101 -112 OFFCURVE",
"93 -120 CURVE SMOOTH",
"82 -132 OFFCURVE",
"66 -143 OFFCURVE",
"43 -152 CURVE SMOOTH",
"18 -163 OFFCURVE",
"-1 -166 OFFCURVE",
"-13 -162 CURVE SMOOTH",
"-18 -160 OFFCURVE",
"-19 -158 OFFCURVE",
"-18 -154 CURVE SMOOTH",
"-16 -149 OFFCURVE",
"-10 -142 OFFCURVE",
"1 -135 CURVE SMOOTH",
"13 -127 OFFCURVE",
"18 -122 OFFCURVE",
"19 -119 CURVE SMOOTH",
"21 -113 OFFCURVE",
"21 -110 OFFCURVE",
"16 -108 CURVE SMOOTH",
"13 -107 OFFCURVE",
"6 -109 OFFCURVE",
"-4 -114 CURVE SMOOTH",
"-18 -120 OFFCURVE",
"-28 -131 OFFCURVE",
"-32 -145 CURVE SMOOTH",
"-38 -163 OFFCURVE",
"-32 -174 OFFCURVE",
"-16 -180 CURVE SMOOTH",
"-5 -183 OFFCURVE",
"12 -184 OFFCURVE",
"32 -180 CURVE SMOOTH",
"78 -172 OFFCURVE",
"108 -147 OFFCURVE",
"122 -106 CURVE SMOOTH",
"137 -60 OFFCURVE",
"123 -30 OFFCURVE",
"80 -16 CURVE SMOOTH",
"61 -10 OFFCURVE",
"34 -11 OFFCURVE",
"2 -18 CURVE SMOOTH",
"-22 -23 OFFCURVE",
"-45 -35 OFFCURVE",
"-65 -52 CURVE SMOOTH",
"-86 -68 OFFCURVE",
"-99 -88 OFFCURVE",
"-107 -110 CURVE SMOOTH",
"-117 -143 OFFCURVE",
"-110 -175 OFFCURVE",
"-83 -205 CURVE SMOOTH",
"-60 -229 OFFCURVE",
"-30 -248 OFFCURVE",
"6 -259 CURVE SMOOTH",
"46 -273 OFFCURVE",
"83 -271 OFFCURVE",
"113 -257 CURVE SMOOTH",
"144 -242 OFFCURVE",
"165 -214 OFFCURVE",
"178 -173 CURVE SMOOTH",
"186 -150 OFFCURVE",
"190 -124 OFFCURVE",
"191 -93 CURVE SMOOTH",
"196 -11 OFFCURVE",
"204 168 OFFCURVE",
"206 185 CURVE SMOOTH",
"211 234 OFFCURVE"
);
}
);
width = 242;
}
);
unicode = 014B;
},
{
glyphname = o;
layers = (
{
hints = (
{
horizontal = 1;
place = "{14, 42}";
type = Stem;
},
{
horizontal = 1;
place = "{186, 24}";
type = Stem;
},
{
horizontal = 1;
place = "{252, 28}";
type = Stem;
},
{
place = "{5, 27}";
type = Stem;
},
{
place = "{225, 29}";
type = Stem;
}
);
layerId = "A20F32D1-A37C-460A-962C-541C205D5E83";
paths = (
{
closed = 1;
nodes = (
"255 156 OFFCURVE",
"246 176 OFFCURVE",
"227 189 CURVE SMOOTH",
"209 203 OFFCURVE",
"186 210 OFFCURVE",
"159 210 CURVE SMOOTH",
"113 210 OFFCURVE",
"89 194 OFFCURVE",
"89 162 CURVE SMOOTH",
"89 152 OFFCURVE",
"101 148 OFFCURVE",
"126 148 CURVE SMOOTH",
"139 148 OFFCURVE",
"149 150 OFFCURVE",
"157 155 CURVE",
"158 159 LINE SMOOTH",
"158 161 OFFCURVE",
"157 161 OFFCURVE",
"156 160 CURVE",
"123 165 OFFCURVE",
"107 170 OFFCURVE",
"107 176 CURVE SMOOTH",
"107 178 LINE",
"118 183 OFFCURVE",
"131 185 OFFCURVE",
"147 185 CURVE SMOOTH",
"200 185 OFFCURVE",
"226 168 OFFCURVE",
"226 134 CURVE SMOOTH",
"226 111 OFFCURVE",
"220 93 OFFCURVE",
"207 78 CURVE SMOOTH",
"194 63 OFFCURVE",
"177 56 OFFCURVE",
"155 56 CURVE SMOOTH",
"122 56 OFFCURVE",
"93 69 OFFCURVE",
"69 94 CURVE SMOOTH",
"45 120 OFFCURVE",
"32 149 OFFCURVE",
"32 182 CURVE SMOOTH",
"32 210 OFFCURVE",
"42 229 OFFCURVE",
"62 239 CURVE SMOOTH",
"77 248 OFFCURVE",
"101 252 OFFCURVE",
"132 252 CURVE SMOOTH",
"146 252 OFFCURVE",
"156 250 OFFCURVE",
"164 248 CURVE SMOOTH",
"187 240 OFFCURVE",
"200 236 OFFCURVE",
"203 236 CURVE SMOOTH",
"208 236 OFFCURVE",
"211 239 OFFCURVE",
"211 244 CURVE SMOOTH",
"211 268 OFFCURVE",
"182 280 OFFCURVE",
"126 280 CURVE SMOOTH",
"46 280 OFFCURVE",
"5 244 OFFCURVE",
"5 173 CURVE SMOOTH",
"5 127 OFFCURVE",
"25 85 OFFCURVE",
"63 45 CURVE SMOOTH",
"83 24 OFFCURVE",
"109 14 OFFCURVE",
"139 14 CURVE SMOOTH",
"172 14 OFFCURVE",
"199 25 OFFCURVE",
"221 47 CURVE SMOOTH",
"244 70 OFFCURVE",
"255 97 OFFCURVE",
"255 130 CURVE SMOOTH"
);
}
);
width = 258;
}
);
note = o;
unicode = 006F;
},
